<svg width="14" height="16" viewBox="0 0 14 16" fill="none" xmlns="http://www.w3.org/2000/svg">
<path d="M7.5 5.6001C7.5 5.46749 7.44732 5.34031 7.35355 5.24654C7.25979 5.15278 7.13261 5.1001 7 5.1001C6.86739 5.1001 6.74021 5.15278 6.64645 5.24654C6.55268 5.34031 6.5 5.46749 6.5 5.6001V8.5001H3.5C3.36739 8.5001 3.24021 8.55278 3.14645 8.64654C3.05268 8.74031 3 8.86749 3 9.0001C3 9.13271 3.05268 9.25988 3.14645 9.35365C3.24021 9.44742 3.36739 9.5001 3.5 9.5001H7C7.13261 9.5001 7.25979 9.44742 7.35355 9.35365C7.44732 9.25988 7.5 9.13271 7.5 9.0001V5.6001Z" fill="#DAAA02"/>
<path d="M5.49989 1C5.49989 0.867392 5.55256 0.740215 5.64633 0.646447C5.7401 0.552678 5.86728 0.5 5.99989 0.5H7.99989C8.13249 0.5 8.25967 0.552678 8.35344 0.646447C8.44721 0.740215 8.49989 0.867392 8.49989 1C8.49989 1.13261 8.44721 1.25979 8.35344 1.35355C8.25967 1.44732 8.13249 1.5 7.99989 1.5V2.07C9.35989 2.266 10.5939 2.85 11.5839 3.71C11.5878 3.70562 11.5918 3.70128 11.5959 3.697L11.9499 3.343L11.5959 2.99C11.502 2.89625 11.4492 2.76904 11.4491 2.63635C11.449 2.50367 11.5016 2.37639 11.5954 2.2825C11.6891 2.18861 11.8163 2.13582 11.949 2.13572C12.0817 2.13563 12.209 2.18825 12.3029 2.282L13.7169 3.697C13.7646 3.74312 13.8027 3.7983 13.8289 3.8593C13.8551 3.9203 13.8689 3.98591 13.8695 4.0523C13.8701 4.11869 13.8574 4.18453 13.8323 4.24598C13.8072 4.30743 13.77 4.36325 13.7231 4.4102C13.6761 4.45714 13.6203 4.49427 13.5589 4.51941C13.4974 4.54455 13.4316 4.5572 13.3652 4.55663C13.2988 4.55605 13.2332 4.54226 13.1722 4.51605C13.1112 4.48985 13.056 4.45175 13.0099 4.404L12.6569 4.05L12.3029 4.404C12.2986 4.40807 12.2943 4.41208 12.2899 4.416C13.3081 5.59135 13.9059 7.07228 13.989 8.62509C14.0722 10.1779 13.6359 11.7142 12.749 12.9915C11.8621 14.2689 10.5752 15.2146 9.09124 15.6793C7.60729 16.1441 6.01082 16.1015 4.55374 15.5583C3.09667 15.0151 1.86196 14.0022 1.04444 12.6794C0.226923 11.3566 -0.126857 9.79922 0.0389274 8.25305C0.204712 6.70687 0.880621 5.25992 1.96 4.14051C3.03938 3.02109 4.46077 2.29296 5.99989 2.071V1.5C5.86728 1.5 5.7401 1.44732 5.64633 1.35355C5.55256 1.25979 5.49989 1.13261 5.49989 1ZM6.99989 3C6.21195 3.00007 5.43175 3.15533 4.70382 3.45691C3.97589 3.7585 3.3145 4.20051 2.75739 4.75771C1.63227 5.88303 1.00025 7.4092 1.00039 9.0005C1.00052 10.5918 1.63279 12.1179 2.7581 13.243C3.88341 14.3681 5.40959 15.0001 7.00089 15C8.59219 14.9999 10.1183 14.3676 11.2434 13.2423C12.3685 12.117 13.0005 10.5908 13.0004 8.9995C13.0003 7.4082 12.368 5.88213 11.2427 4.75701C10.1174 3.63188 8.59118 2.99987 6.99989 3Z" fill="#DAAA02"/>
</svg>
