<svg width="15" height="14" viewBox="0 0 15 14" fill="none" xmlns="http://www.w3.org/2000/svg">
<path d="M0.833333 4.11832H11.6667L10.3333 5.10649C10.2458 5.17138 10.172 5.25266 10.1163 5.34572C10.0605 5.43877 10.0239 5.54176 10.0084 5.64881C9.9929 5.75587 9.99891 5.86488 10.0261 5.96964C10.0532 6.0744 10.101 6.17284 10.1667 6.25935C10.2443 6.36163 10.3449 6.44464 10.4607 6.50181C10.5764 6.55898 10.704 6.58874 10.8333 6.58874C11.0136 6.58874 11.1891 6.53095 11.3333 6.42405L14.6667 3.95363C14.7686 3.87678 14.8512 3.77773 14.9081 3.66418C14.9649 3.55064 14.9945 3.42566 14.9945 3.29897C14.9945 3.17228 14.9649 3.0473 14.9081 2.93376C14.8512 2.82021 14.7686 2.72116 14.6667 2.64431L11.45 0.173889C11.2754 0.039574 11.054 -0.0207007 10.8344 0.00632475C10.6148 0.0333502 10.4151 0.145462 10.2792 0.317997C10.1432 0.490532 10.0822 0.709356 10.1096 0.926332C10.1369 1.14331 10.2504 1.34066 10.425 1.47498L11.7333 2.47138H0.833333C0.61232 2.47138 0.400358 2.55814 0.244078 2.71257C0.0877973 2.867 0 3.07645 0 3.29485C0 3.51325 0.0877973 3.7227 0.244078 3.87713C0.400358 4.03157 0.61232 4.11832 0.833333 4.11832ZM14.1667 9.88264H3.33333L4.66667 8.89447C4.84348 8.76343 4.96037 8.56835 4.99162 8.35215C5.02288 8.13594 4.96594 7.91632 4.83333 7.74161C4.70073 7.56689 4.50331 7.45138 4.28452 7.42049C4.06573 7.38961 3.84348 7.44587 3.66667 7.57691L0.333333 10.0473C0.231411 10.1242 0.148806 10.2232 0.0919473 10.3368C0.0350882 10.4503 0.00550787 10.5753 0.00550787 10.702C0.00550787 10.8287 0.0350882 10.9537 0.0919473 11.0672C0.148806 11.1808 0.231411 11.2798 0.333333 11.3567L3.55 13.8271C3.69546 13.9386 3.87421 13.9994 4.05833 14C4.1856 13.9997 4.3111 13.9706 4.42522 13.9149C4.53934 13.8593 4.63903 13.7785 4.71667 13.6788C4.85199 13.5072 4.91306 13.2896 4.88651 13.0735C4.85997 12.8575 4.74797 12.6607 4.575 12.526L3.26667 11.5296H14.1667C14.3877 11.5296 14.5996 11.4428 14.7559 11.2884C14.9122 11.134 15 10.9245 15 10.7061C15 10.4877 14.9122 10.2783 14.7559 10.1238C14.5996 9.96939 14.3877 9.88264 14.1667 9.88264Z" fill="#009345"/>
</svg>
