<svg width="96" height="28" viewBox="0 0 96 28" fill="none" xmlns="http://www.w3.org/2000/svg">
<path d="M55.7454 18.1502C55.7804 18.1404 55.8177 18.1431 55.851 18.1577C55.8843 18.1723 55.9115 18.198 55.9279 18.2304L56.6722 19.217C57.0231 19.689 57.3771 20.1501 57.7264 20.6174C58.0757 21.0847 58.414 21.5458 58.7586 22.0084C58.927 22.2349 59.1017 22.4552 59.27 22.6818C59.2919 22.7166 59.3223 22.7451 59.3585 22.7647C59.3946 22.7842 59.4351 22.7942 59.4761 22.7935C60.0284 22.7935 60.5776 22.7935 61.1315 22.7935C61.1645 22.7935 61.2023 22.7935 61.2227 22.7416C61.1991 22.7038 61.1724 22.6582 61.1409 22.6157L60.1826 21.3774C59.9938 21.1319 59.8082 20.8849 59.6178 20.641L58.7193 19.4861C58.5084 19.2139 58.3023 18.9385 58.0899 18.6663C57.6997 18.1612 57.3032 17.6577 56.9177 17.151C56.872 17.0928 56.8343 17.0283 56.7918 16.9638C56.8468 16.8867 56.8925 16.819 56.9491 16.7545L58.1591 15.1889C58.6217 14.5909 59.0838 13.9935 59.5454 13.3967C60.0174 12.783 60.4989 12.1709 60.9725 11.5557C61.0071 11.5101 61.0606 11.4676 61.0496 11.3983C61.0369 11.3909 61.0231 11.3856 61.0087 11.3826H59.3534C59.3194 11.3809 59.2856 11.3883 59.2554 11.404C59.2252 11.4198 59.1999 11.4434 59.1819 11.4723C59.0843 11.606 58.9821 11.7366 58.8814 11.8672C58.6595 12.1426 58.4392 12.4305 58.2189 12.7075C57.953 13.0584 57.6902 13.4108 57.4322 13.7617C57.0262 14.2988 56.6182 14.8343 56.208 15.3682C56.105 15.5178 55.9915 15.6598 55.8681 15.7931C55.7596 15.8057 55.7281 15.727 55.684 15.6688C55.2812 15.1291 54.88 14.5878 54.4756 14.0497L53.0988 12.2228C52.921 11.9868 52.74 11.7508 52.567 11.5132C52.5378 11.4674 52.4969 11.4302 52.4484 11.4056C52.4 11.3809 52.3458 11.3697 52.2916 11.3732C51.7598 11.3732 51.2295 11.3732 50.6977 11.3732C50.6678 11.3732 50.6363 11.3732 50.5812 11.3858C50.6316 11.4629 50.6662 11.5211 50.7071 11.5746C50.8078 11.713 50.9132 11.8484 51.0218 11.9852C51.3507 12.4164 51.6827 12.8459 52.0115 13.2771C52.2491 13.5918 52.4836 13.9065 52.7212 14.2133C52.9588 14.5201 53.1743 14.8002 53.4009 15.0945L54.5275 16.5688L54.7525 16.8631C54.7807 16.8941 54.7964 16.9345 54.7964 16.9764C54.7964 17.0183 54.7807 17.0586 54.7525 17.0896L54.7148 17.1384C54.5322 17.3792 54.3513 17.6215 54.1672 17.8607L52.9745 19.4137C52.3294 20.2529 51.6848 21.0921 51.0407 21.9313C50.866 22.1594 50.6866 22.386 50.512 22.6157C50.4789 22.6598 50.4191 22.7007 50.449 22.7809C50.4852 22.7809 50.5183 22.7809 50.5529 22.7809H52.1453C52.173 22.7821 52.2006 22.7764 52.2255 22.7643C52.2505 22.7522 52.2721 22.7342 52.2885 22.7117C52.3121 22.6787 52.342 22.6488 52.3671 22.6173C52.6456 22.2507 52.9241 21.8856 53.2011 21.5159L54.7415 19.4703C54.9524 19.1902 55.1601 18.9086 55.3709 18.6285C55.4889 18.4759 55.6211 18.3091 55.7454 18.1502Z" fill="#009506"/>
<path d="M69.674 11.4757C69.5855 11.4485 69.4924 11.4394 69.4002 11.4489H66.3791C66.3115 11.4489 66.2422 11.4489 66.173 11.4489C66.1314 11.4414 66.0904 11.4309 66.0503 11.4174C66.0427 11.3616 66.038 11.3054 66.0361 11.2491C66.0361 10.8494 66.0361 10.4497 66.0361 10.0501C66.0336 9.98785 66.0384 9.92554 66.0503 9.86441C66.1069 9.65199 66.1274 9.43013 66.2076 9.224C66.3854 8.75195 66.6797 8.36487 67.1596 8.17134C67.2828 8.11063 67.4152 8.07075 67.5514 8.05332C67.6609 8.04465 67.7697 8.02888 67.8771 8.00612C67.9854 7.98413 68.0966 7.98094 68.206 7.99668C68.3838 8.01871 68.5616 8.03444 68.7394 8.05647C68.7998 8.06604 68.8596 8.07864 68.9187 8.09423C68.9502 8.10805 68.9829 8.11911 69.0163 8.12728C69.2132 8.15363 69.4074 8.1968 69.5969 8.2563C69.634 8.26073 69.6715 8.26073 69.7086 8.2563C69.7086 8.1792 69.7196 8.11154 69.7196 8.04388V7.08091C69.722 7.03951 69.722 6.998 69.7196 6.9566C69.7215 6.9148 69.7074 6.87384 69.6803 6.84201C69.6531 6.81018 69.6149 6.78983 69.5733 6.78509C69.438 6.73586 69.2976 6.70208 69.1548 6.68439C69.1268 6.68456 69.0994 6.67634 69.0761 6.66079C69.0146 6.62876 68.9455 6.61408 68.8763 6.6183C68.7394 6.60886 68.6025 6.59627 68.4656 6.58369C68.3617 6.57425 68.261 6.55694 68.1509 6.55379C67.9857 6.55379 67.8205 6.55379 67.6552 6.55379C67.6004 6.54587 67.5448 6.54587 67.49 6.55379C67.2524 6.62617 66.9944 6.57425 66.7631 6.68282C66.554 6.71847 66.3517 6.78641 66.1636 6.88422C65.5937 7.13831 65.1307 7.58358 64.8544 8.14301C64.7406 8.36076 64.6509 8.59028 64.5869 8.82748C64.539 8.99255 64.5001 9.16011 64.4705 9.32942C64.4076 9.7105 64.3807 10.0967 64.3902 10.4828C64.3997 10.6748 64.3902 10.8683 64.3902 11.0618C64.3902 11.3514 64.3902 11.3514 64.1086 11.3529H63.0748C63.0017 11.3419 62.927 11.3495 62.8577 11.375C62.8206 11.4281 62.8053 11.4934 62.8152 11.5575C62.8152 11.8958 62.8152 12.2341 62.8152 12.5708C62.8152 12.7643 62.8372 12.7848 63.0308 12.7848C63.3691 12.7848 63.7058 12.7848 64.0441 12.7848H64.2093C64.3666 12.7848 64.384 12.8163 64.3902 12.972C64.3902 13.0413 64.3902 13.1105 64.3902 13.1797V22.4035C64.3902 22.4791 64.3902 22.5609 64.3902 22.6317C64.3948 22.6714 64.4016 22.7108 64.4107 22.7497C64.4392 22.7594 64.4688 22.7657 64.4988 22.7686H65.9291C65.9647 22.7629 65.9992 22.7518 66.0314 22.7355C66.0314 22.6396 66.0314 22.5514 66.0314 22.4618C66.0314 19.34 66.0314 16.2171 66.0314 13.0932C66.0314 12.7785 66.0314 12.7785 66.3461 12.7785H69.3656C69.427 12.7785 69.4899 12.7785 69.5513 12.7785C69.5896 12.7729 69.6275 12.7645 69.6646 12.7533C69.702 12.3284 69.7051 11.9011 69.674 11.4757Z" fill="#009506"/>
<path d="M88.8895 11.3861C88.8604 11.4534 88.8496 11.5272 88.858 11.6001V12.5709C88.858 12.8227 88.858 12.8227 89.1113 12.8258H89.1947C89.5094 12.8258 89.8414 12.8258 90.1656 12.8258C90.2346 12.8268 90.3035 12.8326 90.3717 12.8431C90.3961 12.8461 90.4185 12.8578 90.435 12.876C90.4515 12.8942 90.4608 12.9177 90.4614 12.9422C90.4614 13.0178 90.4614 13.0996 90.4614 13.1704V19.9537C90.4614 20.0717 90.4614 20.1882 90.4614 20.3062C90.4576 20.3543 90.4619 20.4027 90.474 20.4494C90.5448 20.6382 90.5401 20.8412 90.603 21.0316C90.6574 21.2158 90.7269 21.3953 90.8107 21.5681C91.0735 22.097 91.5215 22.5108 92.0695 22.7309C92.3448 22.8571 92.6396 22.9353 92.9412 22.9622C92.9943 22.9691 93.0469 22.9796 93.0986 22.9937C93.4461 23.0467 93.7994 23.051 94.1481 23.0063C94.2708 22.9937 94.392 22.9701 94.5147 22.9512C94.549 22.9493 94.5832 22.9451 94.617 22.9386C94.7743 22.893 94.9317 22.8489 95.089 22.7986C95.3 22.7384 95.5018 22.6494 95.6885 22.5342C95.6885 22.0937 95.6885 21.6594 95.6885 21.2251C95.6885 21.2015 95.6696 21.1795 95.6586 21.1511C95.484 21.2188 95.3203 21.288 95.1535 21.3462C95.0239 21.3921 94.8915 21.4294 94.757 21.458C94.4865 21.5096 94.2109 21.5307 93.9357 21.5209C93.6096 21.518 93.288 21.4445 92.9931 21.3053C92.7851 21.2053 92.6039 21.0573 92.4643 20.8735C92.3248 20.6896 92.231 20.4752 92.1907 20.248C92.1812 20.207 92.1671 20.1677 92.1608 20.1268C92.145 20.0403 92.1246 19.9521 92.1167 19.864C92.1088 19.7759 92.1167 19.6579 92.1167 19.5493V13.0807C92.1143 13.0393 92.1143 12.9978 92.1167 12.9564C92.1167 12.8746 92.1513 12.8415 92.2284 12.8337C92.3044 12.8298 92.3806 12.8298 92.4566 12.8337H95.4132C95.4824 12.8337 95.5516 12.8337 95.6209 12.8337C95.6365 12.8352 95.6523 12.8335 95.6672 12.8286C95.6822 12.8237 95.6959 12.8157 95.7076 12.8052C95.7193 12.7947 95.7287 12.7819 95.7351 12.7675C95.7416 12.7532 95.745 12.7377 95.7452 12.722C95.7475 12.6879 95.7475 12.6537 95.7452 12.6197C95.7452 12.2735 95.7452 11.9284 95.7452 11.5843C95.7498 11.551 95.7476 11.517 95.7387 11.4846C95.7298 11.4521 95.7143 11.4218 95.6932 11.3955C95.6287 11.3955 95.5548 11.3955 95.4792 11.3955H92.3323C92.2607 11.4092 92.1867 11.3957 92.1246 11.3577C92.1011 11.2814 92.0941 11.201 92.1041 11.1217V8.20448C92.1111 8.12 92.1042 8.03496 92.0837 7.95272C92.0438 7.9436 92.0033 7.93729 91.9625 7.93384C91.5062 7.93384 91.0509 7.93384 90.5967 7.93384C90.5535 7.93793 90.5108 7.94637 90.4693 7.95901C90.4693 8.0487 90.4693 8.13052 90.4693 8.21235V10.9439C90.4693 11.0399 90.4693 11.1375 90.4693 11.2334C90.4647 11.2692 90.4568 11.3045 90.4457 11.3389C90.373 11.3746 90.2912 11.3872 90.2112 11.3751H89.094C89.0216 11.3766 88.954 11.3829 88.8895 11.3861Z" fill="#009506"/>
<path d="M74.1406 22.7859C74.1735 22.6801 74.1842 22.5687 74.172 22.4586V11.7054C74.172 11.6361 74.172 11.5669 74.172 11.4977C74.1656 11.4592 74.1561 11.4213 74.1437 11.3844C74.115 11.3753 74.0855 11.3689 74.0556 11.3655H72.6489C72.6171 11.3694 72.5859 11.3774 72.5561 11.3891C72.5345 11.4722 72.5286 11.5587 72.5388 11.644C72.5388 15.263 72.5388 18.882 72.5388 22.501C72.5388 22.5561 72.5388 22.6112 72.5388 22.6584C72.5443 22.6934 72.5517 22.728 72.5608 22.7622C72.6023 22.7712 72.6444 22.7775 72.6867 22.7811C73.1682 22.7906 73.6402 22.8 74.1406 22.7859Z" fill="#009506"/>
<path d="M74.2482 7.04282C74.1884 7.03338 74.1569 7.02394 74.1223 7.02237C74.0877 7.02079 74.0122 7.02237 73.9571 7.02237H72.6165C72.5441 7.02237 72.4591 7.00191 72.4025 7.06643C72.396 7.08635 72.3918 7.10693 72.3899 7.12779C72.3899 7.65229 72.3899 8.17678 72.3899 8.70128C72.3899 8.82244 72.4182 8.84604 72.5347 8.85863H74.02C74.2513 8.85863 74.2639 8.84604 74.2639 8.61159C74.2639 8.16472 74.2639 7.71785 74.2639 7.27098C74.2686 7.19545 74.2529 7.12779 74.2482 7.04282Z" fill="#009506"/>
<path d="M23.1667 22.7889C23.158 22.7479 23.1522 22.7064 23.1494 22.6646V7.35141C23.1894 7.33764 23.2305 7.32711 23.2721 7.31994C23.3335 7.31994 23.3965 7.31994 23.4578 7.31994H28.3813H29.0232C29.0643 7.31855 29.1054 7.32119 29.146 7.32781C29.3627 7.37105 29.5828 7.39475 29.8037 7.39861C29.838 7.40005 29.8722 7.40373 29.906 7.40963C30.1499 7.45369 30.3953 7.48988 30.6345 7.5481C30.8737 7.60632 31.1396 7.66768 31.3866 7.75422C31.6651 7.85178 31.9436 7.94461 32.2143 8.06892C32.7552 8.30555 33.2673 8.6033 33.7406 8.95637C34.7936 9.73095 35.6139 10.7798 36.1118 11.9885C36.2188 12.2481 36.3132 12.5109 36.3982 12.7752C36.4832 13.0396 36.5005 13.2882 36.5681 13.5399C36.6484 13.8342 36.6216 14.1426 36.6956 14.4384C36.7072 14.4996 36.7109 14.562 36.7066 14.6241C36.7066 14.8931 36.7066 15.1606 36.7066 15.4297C36.7066 15.5131 36.6924 15.5949 36.6846 15.6767C36.6672 15.8482 36.6531 16.0198 36.6279 16.1897C36.5996 16.3864 36.5634 16.5831 36.5241 16.7782C36.491 16.9355 36.4501 17.0929 36.4092 17.2597C36.384 17.3588 36.3541 17.4579 36.3195 17.5539C36.0422 18.376 35.626 19.1445 35.089 19.826C34.739 20.2584 34.3457 20.6538 33.9152 21.0061C33.6755 21.2006 33.4237 21.3798 33.1615 21.5427C32.9129 21.7 32.6438 21.8259 32.3748 21.9597C32.0633 22.1173 31.7384 22.2469 31.4039 22.3467C31.2106 22.4147 31.0123 22.4673 30.8107 22.5041C30.6943 22.578 30.5511 22.545 30.4331 22.5954C30.314 22.6269 30.1924 22.6479 30.0696 22.6583C29.7516 22.718 29.4298 22.7559 29.1066 22.7716C28.8529 22.7936 28.598 22.7999 28.3435 22.7905C26.8466 22.7905 25.3502 22.7905 23.8543 22.7905C23.697 22.7905 23.5396 22.7905 23.3823 22.7905C23.3225 22.7983 23.2548 22.792 23.1667 22.7889ZM24.8976 21.2154C24.9888 21.2154 25.0643 21.2248 25.1383 21.2248H28.655C28.8967 21.2383 29.139 21.216 29.3741 21.1588C29.4075 21.15 29.442 21.1468 29.4764 21.1493C29.7239 21.1414 29.9695 21.1039 30.2081 21.0376C30.4216 20.9939 30.6319 20.9355 30.8375 20.8629C31.1557 20.758 31.4655 20.6291 31.7643 20.4774C32.2626 20.2273 32.7212 19.9049 33.1253 19.5208C33.6369 19.0291 34.0539 18.4478 34.3558 17.8057C34.4345 17.6389 34.5006 17.4658 34.5635 17.2927C34.6423 17.0805 34.7075 16.8634 34.7586 16.6429C34.7948 16.4855 34.8074 16.3156 34.8514 16.1566C34.8889 16.0021 34.9085 15.8437 34.9097 15.6846C34.9017 15.4915 34.9128 15.2981 34.9427 15.1071C34.949 15.0665 34.949 15.0251 34.9427 14.9844C34.9348 14.8947 34.9207 14.8066 34.9191 14.7185C34.9316 14.4702 34.9067 14.2214 34.8451 13.9805C34.8375 13.9401 34.8338 13.899 34.8341 13.8578C34.8311 13.8097 34.8248 13.7618 34.8153 13.7146C34.7254 13.3196 34.6044 12.9324 34.4534 12.5565C34.3353 12.2713 34.1942 11.996 34.0317 11.7336C33.7219 11.2367 33.3353 10.7922 32.8862 10.4166C32.7965 10.341 32.7068 10.2592 32.6139 10.1963C32.2783 9.93544 31.9141 9.71372 31.5282 9.53541C31.1396 9.34946 30.7295 9.21206 30.3072 9.1263C30.2864 9.12507 30.2661 9.11972 30.2474 9.11057C30.1617 9.06554 30.0657 9.04383 29.9689 9.04763C29.9276 9.04826 29.8866 9.04133 29.8478 9.02717C29.7381 8.98436 29.6208 8.96455 29.5032 8.96896C29.4414 8.97096 29.3796 8.96568 29.3191 8.95322C29.0827 8.90406 28.8412 8.8845 28.6 8.895C27.4629 8.895 26.3247 8.895 25.1855 8.895C25.1237 8.89186 25.0617 8.89186 24.9998 8.895C24.9569 8.90278 24.9148 8.91437 24.874 8.92962C24.874 9.02403 24.8645 9.11214 24.8645 9.20183V20.9275C24.8645 20.9825 24.8645 21.0376 24.8645 21.0927C24.8704 21.1346 24.8788 21.1761 24.8897 21.217L24.8976 21.2154Z" fill="#009506"/>
<path d="M48.8179 17.6863C48.7046 17.6863 48.6086 17.6863 48.5126 17.6863H40.0929C40.0095 17.6863 39.9277 17.6863 39.8443 17.6863C39.8303 17.686 39.8165 17.6887 39.8035 17.694C39.7906 17.6993 39.7789 17.7073 39.7692 17.7173C39.7595 17.7273 39.7519 17.7392 39.747 17.7523C39.742 17.7654 39.7398 17.7793 39.7404 17.7933C39.7437 17.8819 39.7531 17.9703 39.7688 18.0576C39.7848 18.1092 39.7974 18.1617 39.8065 18.215C39.8207 18.377 39.8589 18.5361 39.9198 18.687C40.0882 19.2473 40.3711 19.7665 40.7506 20.2117C41.0991 20.6139 41.5279 20.9387 42.0094 21.1652C42.3178 21.3164 42.6464 21.4223 42.985 21.4799C43.3761 21.5643 43.7779 21.5876 44.1761 21.5492C44.4483 21.5098 44.7221 21.4784 44.9912 21.4233C45.1796 21.3836 45.3639 21.3267 45.5419 21.2534C45.8363 21.141 46.1184 20.9987 46.3837 20.8285C46.6076 20.6817 46.822 20.5208 47.0257 20.347C47.1201 20.2684 47.2082 20.1802 47.2995 20.0968C47.3388 20.0607 47.3829 20.0276 47.4285 19.9883C47.62 20.1133 47.7963 20.2601 47.954 20.4257C48.1273 20.5654 48.2908 20.7168 48.4434 20.8789C48.4186 20.9212 48.3907 20.9617 48.36 21C48.0751 21.3179 47.7623 21.6097 47.4254 21.8717C47.1554 22.072 46.8703 22.2509 46.5725 22.4067C46.1841 22.5946 45.7783 22.7442 45.3609 22.8536C45.1344 22.8678 44.9219 22.97 44.6906 22.9606C44.6377 22.957 44.5845 22.9623 44.5333 22.9763C44.339 23.0247 44.1383 23.0427 43.9385 23.0298C43.8063 23.0298 43.6757 23.0298 43.5451 23.0298C43.4003 23.0348 43.2555 23.0216 43.114 22.9905C43.0263 22.9721 42.9375 22.96 42.8481 22.9543C42.7584 22.9563 42.6694 22.9391 42.5869 22.9039C42.5623 22.8917 42.5356 22.8842 42.5082 22.8819C42.1838 22.8266 41.867 22.7337 41.5641 22.605C41.2449 22.4797 40.9396 22.3215 40.6531 22.1329C40.4957 22.0322 40.3384 21.9268 40.1999 21.8182C39.6593 21.3906 39.2048 20.8641 38.8609 20.2668C38.6843 19.9567 38.5338 19.6325 38.4108 19.2975C38.3369 19.0993 38.307 18.8853 38.2393 18.6839C38.1717 18.4824 38.1827 18.2464 38.1119 18.0356C38.0963 17.9755 38.091 17.9133 38.0961 17.8515C38.0961 17.3621 38.0961 16.8728 38.0961 16.3834C38.1031 16.2945 38.1162 16.2062 38.1355 16.1191C38.1355 16.086 38.1559 16.053 38.1591 16.0184C38.1963 15.654 38.2749 15.295 38.3935 14.9484C38.4844 14.6674 38.6002 14.3952 38.7397 14.1349C39.0187 13.5824 39.386 13.0791 39.827 12.6448C40.1535 12.3292 40.5176 12.0549 40.9111 11.8282C41.2265 11.6476 41.5611 11.503 41.9087 11.397C42.0486 11.3378 42.1966 11.3002 42.3477 11.2853C42.3814 11.2804 42.4146 11.2725 42.4468 11.2617C42.5192 11.2418 42.5928 11.2266 42.6671 11.2161C42.8327 11.2153 42.9974 11.1915 43.1565 11.1453C43.1971 11.1381 43.2386 11.1381 43.2792 11.1453H43.693C43.8154 11.1388 43.938 11.1477 44.0581 11.172C44.1731 11.1957 44.29 11.2084 44.4074 11.2098C44.4903 11.2078 44.5728 11.2228 44.6497 11.2538C44.6749 11.2648 44.7013 11.2727 44.7284 11.2774C45.1494 11.3456 45.5568 11.4805 45.9353 11.6771C46.3368 11.8765 46.7078 12.1325 47.0367 12.4371C47.5191 12.8901 47.9119 13.4297 48.1948 14.0279C48.3742 14.3907 48.513 14.7722 48.6086 15.1655C48.6511 15.3449 48.6983 15.5243 48.7408 15.7052C48.7518 15.7509 48.7487 15.8012 48.7565 15.8484C48.7707 15.9507 48.7896 16.0514 48.8053 16.1537C48.8176 16.2054 48.8255 16.258 48.8289 16.311C48.8352 16.717 48.8389 17.124 48.8399 17.5321C48.8367 17.584 48.8293 17.6355 48.8179 17.6863ZM47.1531 16.4637C47.1891 16.3619 47.1891 16.2508 47.1531 16.149C47.0871 15.9664 47.1264 15.7635 47.0273 15.5888C47.0351 15.4315 46.9376 15.315 46.9297 15.1703C46.8262 14.8766 46.6988 14.5919 46.5489 14.319C46.2676 13.8094 45.865 13.3771 45.3767 13.0602C45.0561 12.8461 44.6944 12.7014 44.3146 12.6354C44.2944 12.6333 44.2748 12.628 44.2564 12.6196C44.1559 12.5721 44.0446 12.552 43.9338 12.5614C43.7198 12.5614 43.5058 12.5614 43.2918 12.5614C43.1135 12.5407 42.9328 12.5651 42.7663 12.6322C42.7528 12.6355 42.7388 12.6355 42.7253 12.6322C42.5803 12.6399 42.4383 12.6774 42.3084 12.7424C41.9112 12.8932 41.5445 13.1144 41.2258 13.3954C40.8067 13.7639 40.4659 14.2128 40.2235 14.7155C40.1067 14.9717 40.0048 15.2344 39.9182 15.5023C39.8747 15.6325 39.842 15.7662 39.8207 15.9019C39.8096 15.9906 39.7923 16.0785 39.7688 16.1647C39.7294 16.2605 39.7294 16.3679 39.7688 16.4637C39.8604 16.499 39.9593 16.5109 40.0567 16.4983H46.8841C46.9365 16.5011 46.989 16.5011 47.0414 16.4983C47.0797 16.4903 47.1171 16.4787 47.1531 16.4637Z" fill="#009506"/>
<path d="M78.4103 13.4707C78.2404 13.049 78.0877 12.6132 77.9382 12.1679C78.0232 12.1254 78.0877 12.0845 78.1554 12.0593C78.4449 11.9507 78.7266 11.8249 79.0192 11.7257C79.3575 11.6124 79.7005 11.5228 80.0467 11.4346C80.2642 11.404 80.4796 11.3604 80.6918 11.304C80.9955 11.304 81.2945 11.2348 81.5966 11.2206C81.8987 11.2065 82.2024 11.2206 82.5061 11.2206C82.5545 11.2182 82.6031 11.2214 82.6508 11.2301C82.839 11.2725 83.0308 11.2962 83.2236 11.3009C83.2713 11.3044 83.3187 11.3118 83.3652 11.3229C83.4454 11.3387 83.5226 11.356 83.6059 11.3764C83.7853 11.4221 83.9663 11.463 84.1425 11.518C84.6128 11.6658 85.0525 11.8971 85.4406 12.2009C85.9119 12.5754 86.2815 13.0624 86.5153 13.6171C86.6244 13.8836 86.7108 14.1589 86.7734 14.44C86.8473 14.7232 86.8253 15.0159 86.9055 15.296C86.9179 15.357 86.9216 15.4196 86.9166 15.4817V22.5765C86.9166 22.6379 86.9166 22.6992 86.9071 22.7701C86.8671 22.7825 86.826 22.7909 86.7844 22.7952H85.4815C85.4481 22.7931 85.4149 22.7878 85.3824 22.7795C85.3451 22.7113 85.3313 22.6328 85.3431 22.5561C85.3431 22.1627 85.3431 21.7693 85.3431 21.3759C85.3423 21.3143 85.3375 21.2528 85.3289 21.1918C85.3271 21.1833 85.3233 21.1753 85.3178 21.1685C85.3123 21.1617 85.3053 21.1563 85.2973 21.1528C85.2893 21.1492 85.2806 21.1476 85.2718 21.1481C85.2631 21.1486 85.2546 21.1512 85.2471 21.1557C85.2071 21.1819 85.1706 21.2131 85.1385 21.2485C84.9839 21.4324 84.8167 21.6054 84.6382 21.7662C84.3149 22.0549 83.9558 22.3009 83.5698 22.4978C83.2515 22.659 82.915 22.781 82.5674 22.8613C82.3715 22.9271 82.1667 22.9626 81.9601 22.9667C81.9325 22.965 81.9048 22.9682 81.8783 22.9762C81.6573 23.0316 81.4288 23.0512 81.2017 23.0344H80.8492C80.8016 23.0392 80.7536 23.0392 80.706 23.0344C80.5251 22.9856 80.3347 22.9903 80.1553 22.9494C79.846 22.8868 79.5419 22.8006 79.2458 22.6914C78.9114 22.5655 78.5942 22.3979 78.3017 22.1926C77.7908 21.8398 77.3912 21.3485 77.1499 20.7764C76.998 20.4149 76.9215 20.0262 76.9249 19.6341C76.9249 19.4343 76.9249 19.2344 76.9375 19.0346C76.9532 18.8079 76.9959 18.5839 77.065 18.3674C77.1559 18.0503 77.3007 17.7512 77.4929 17.4831C77.7531 17.1185 78.0837 16.8097 78.4654 16.5752C78.7577 16.3957 79.0684 16.248 79.3921 16.1347C79.5967 16.0623 79.817 16.0308 80.0215 15.9679C80.2261 15.9049 80.4841 15.9033 80.7107 15.8404C80.7622 15.8275 80.815 15.8212 80.8681 15.8215C81.551 15.8215 82.2323 15.8121 82.9136 15.8215C83.1732 15.8215 83.4313 15.886 83.7004 15.9128C83.9046 15.9409 84.1073 15.9792 84.3077 16.0277C84.5113 16.0599 84.7122 16.1073 84.9088 16.1693C85.0096 16.1859 85.109 16.2101 85.2062 16.2416C85.2161 16.2456 85.2267 16.2474 85.2373 16.2469C85.2479 16.2464 85.2583 16.2437 85.2678 16.239C85.2773 16.2342 85.2857 16.2275 85.2924 16.2193C85.2992 16.2111 85.3041 16.2016 85.3069 16.1913C85.3216 16.146 85.3301 16.0989 85.3321 16.0513C85.3349 15.8585 85.3213 15.6658 85.2911 15.4754C85.2911 15.392 85.2786 15.3101 85.266 15.2283C85.2534 15.1465 85.2376 15.071 85.2203 14.9876C85.2203 14.9545 85.1999 14.9215 85.1936 14.8885C85.0925 14.3938 84.8485 13.9398 84.4918 13.5825C84.1617 13.2597 83.7576 13.0226 83.3148 12.8917C82.9893 12.7775 82.6465 12.7206 82.3015 12.7233C82.2188 12.7241 82.1364 12.7146 82.0561 12.695C81.9413 12.6722 81.8231 12.6722 81.7083 12.695C81.6208 12.7132 81.5318 12.7238 81.4424 12.7265C81.0838 12.7249 80.7263 12.7688 80.3787 12.8571C80.1395 12.9137 79.8972 12.9641 79.6628 13.0427C79.2974 13.1576 78.94 13.2964 78.5928 13.4581C78.5352 13.4832 78.4708 13.4876 78.4103 13.4707ZM82.0797 16.9938H81.3496C81.3012 16.9898 81.2524 16.9957 81.2064 17.0111C81.0965 17.051 80.9802 17.0702 80.8634 17.0677C80.8289 17.0678 80.7945 17.0721 80.7611 17.0803C80.6037 17.1244 80.4605 17.1716 80.3095 17.2172C79.8101 17.354 79.3643 17.64 79.0318 18.037C78.8 18.3119 78.6525 18.648 78.607 19.0047C78.5532 19.3391 78.5731 19.6811 78.6652 20.007C78.7405 20.2569 78.8633 20.4898 79.0271 20.693C79.3546 21.0888 79.793 21.3776 80.2859 21.5223C80.4102 21.5616 80.5408 21.5805 80.6635 21.6198C80.7819 21.6539 80.9039 21.6734 81.027 21.6781C81.1371 21.6859 81.2457 21.7017 81.3559 21.7064C81.466 21.7111 81.562 21.7064 81.6705 21.6985C81.7384 21.6889 81.8067 21.6831 81.8751 21.6812C82.1371 21.6844 82.398 21.6483 82.6493 21.5742C83.0448 21.4855 83.4239 21.3352 83.7727 21.1289C84.3376 20.8197 84.794 20.3446 85.0803 19.7678C85.1937 19.5638 85.2649 19.3391 85.2896 19.107C85.292 19.0866 85.2968 19.0665 85.3037 19.0472C85.3468 18.9088 85.366 18.764 85.3604 18.6192V17.7176C85.3604 17.6767 85.3604 17.6342 85.3604 17.5933C85.3584 17.5589 85.3451 17.5261 85.3227 17.4999C85.3002 17.4737 85.2698 17.4557 85.2361 17.4485C85.0787 17.406 84.9072 17.3541 84.7404 17.3116C84.6145 17.2802 84.4871 17.2518 84.3581 17.2329C84.1717 17.1842 83.9808 17.1542 83.7885 17.1433C83.7746 17.1434 83.7609 17.1395 83.7491 17.1322C83.6269 17.0849 83.496 17.0645 83.3652 17.0725C83.2692 17.0713 83.1735 17.0629 83.0788 17.0473C82.8963 17.0083 82.71 16.9904 82.5234 16.9938C82.3692 16.9938 82.2244 16.9938 82.0797 16.9938Z" fill="#009506"/>
<path d="M55.7463 18.1504C55.622 18.3077 55.4898 18.4761 55.3624 18.646C55.1515 18.9261 54.9438 19.2078 54.733 19.4879L53.1925 21.5334C52.9156 21.9016 52.6371 22.2666 52.3586 22.6348C52.3334 22.6663 52.3035 22.6962 52.2799 22.7292C52.2636 22.7517 52.242 22.7698 52.217 22.7818C52.192 22.7939 52.1644 22.7996 52.1367 22.7985H50.5444C50.5097 22.7985 50.4767 22.7985 50.4405 22.7985C50.4106 22.7182 50.4704 22.6773 50.5034 22.6333C50.6781 22.4035 50.8575 22.1769 51.0321 21.9488C51.6773 21.1096 52.3219 20.2704 52.9659 19.4312L54.1587 17.8782C54.3427 17.639 54.5237 17.3967 54.7062 17.1559L54.744 17.1072C54.7722 17.0762 54.7878 17.0358 54.7878 16.9939C54.7878 16.952 54.7722 16.9116 54.744 16.8806L54.519 16.5863L53.3924 15.1057C53.1658 14.8114 52.9376 14.5188 52.7126 14.2245C52.4876 13.9303 52.2406 13.5951 52.003 13.2883C51.6741 12.8572 51.3421 12.4276 51.0133 11.9965C50.9094 11.8596 50.804 11.7243 50.6986 11.5858C50.6576 11.5323 50.623 11.4741 50.5727 11.397C50.6277 11.397 50.6592 11.3844 50.6891 11.3844C51.221 11.3844 51.7512 11.3844 52.2831 11.3844C52.3373 11.381 52.3914 11.3922 52.4399 11.4168C52.4883 11.4414 52.5292 11.4786 52.5584 11.5244C52.7315 11.7636 52.9124 11.9965 53.0903 12.2341L54.4671 14.0609C54.8714 14.599 55.2727 15.1403 55.6755 15.68C55.7195 15.7382 55.751 15.8169 55.8596 15.8043C55.9829 15.671 56.0965 15.529 56.1995 15.3795C56.6107 14.8466 57.0187 14.3111 57.4236 13.7729C57.6896 13.4221 57.9523 13.0696 58.2104 12.7187C58.4275 12.4355 58.6478 12.1538 58.865 11.8722C58.9657 11.7416 59.0679 11.611 59.1655 11.4772C59.1834 11.4483 59.2088 11.4247 59.239 11.409C59.2692 11.3932 59.303 11.3858 59.337 11.3875H60.9923C61.0067 11.3905 61.0205 11.3958 61.0332 11.4033C61.0442 11.4725 60.9907 11.515 60.9561 11.5606C60.4841 12.1759 60.0042 12.7879 59.529 13.4016C59.0538 14.0153 58.6053 14.5959 58.1427 15.1938L56.9327 16.7594C56.8824 16.8239 56.8367 16.8916 56.7754 16.9687C56.8178 17.0332 56.8556 17.0977 56.9012 17.1559C57.2915 17.6626 57.688 18.1661 58.0735 18.6712C58.2843 18.9434 58.4905 19.2188 58.7029 19.491L59.6013 20.6459C59.7917 20.8898 59.9774 21.1369 60.1662 21.3823L61.1245 22.6207C61.1559 22.6632 61.1827 22.7088 61.2063 22.7465C61.1858 22.8032 61.1481 22.7985 61.115 22.7985C60.5643 22.7985 60.0136 22.7985 59.4597 22.7985C59.4187 22.7991 59.3781 22.7892 59.342 22.7696C59.3059 22.75 59.2755 22.7215 59.2536 22.6868C59.0852 22.4602 58.9106 22.2399 58.7422 22.0133C58.3976 21.5507 58.0562 21.0849 57.71 20.6223C57.3638 20.1597 57.0067 19.6893 56.6558 19.2219L55.9115 18.2354C55.8966 18.2055 55.8725 18.1812 55.8428 18.1659C55.8131 18.1506 55.7793 18.1452 55.7463 18.1504Z" fill="#009506"/>
<path d="M69.6743 11.4757C69.7098 11.9087 69.7098 12.344 69.6743 12.777C69.6372 12.7881 69.5993 12.7965 69.561 12.8022C69.4996 12.8022 69.4367 12.8022 69.3753 12.8022H66.3511C66.0364 12.8022 66.0364 12.8022 66.0364 13.1169C66.0364 16.2397 66.0364 19.3626 66.0364 22.4854C66.0364 22.5751 66.0364 22.6632 66.0364 22.7592C66.0042 22.7754 65.9697 22.7866 65.9341 22.7922H64.5132C64.4832 22.7894 64.4536 22.783 64.4251 22.7734C64.416 22.7344 64.4092 22.695 64.4047 22.6553C64.4047 22.5798 64.4047 22.498 64.4047 22.4272V13.2003C64.4047 13.131 64.4047 13.0618 64.4047 12.9926C64.4047 12.8352 64.3748 12.8116 64.2237 12.8053H64.0585C63.7202 12.8053 63.3835 12.8053 63.0452 12.8053C62.8516 12.8053 62.8312 12.7849 62.8296 12.5913C62.8296 12.2546 62.8296 11.9163 62.8296 11.578C62.8197 11.5139 62.835 11.4486 62.8721 11.3955C62.9414 11.37 63.0161 11.3624 63.0892 11.3734H64.123C64.4047 11.3734 64.4047 11.3734 64.4047 11.0823C64.4047 10.8888 64.4125 10.6953 64.4047 10.5033C64.3951 10.1172 64.422 9.73101 64.4849 9.34993C64.5145 9.18062 64.5534 9.01306 64.6013 8.84799C64.6653 8.61078 64.755 8.38127 64.8688 8.16352C65.1451 7.60409 65.6081 7.15881 66.178 6.90473C66.3662 6.80692 66.5684 6.73898 66.7775 6.70332C67.0088 6.59475 67.2668 6.64668 67.5044 6.5743C67.5592 6.56638 67.6149 6.56638 67.6696 6.5743C67.8349 6.5743 68.0001 6.5743 68.1653 6.5743C68.2691 6.5743 68.3698 6.59475 68.48 6.6042C68.6169 6.61678 68.7538 6.62937 68.8907 6.63881C68.9599 6.63459 69.029 6.64927 69.0905 6.6813C69.1138 6.69685 69.1412 6.70507 69.1692 6.7049C69.312 6.72259 69.4524 6.75637 69.5877 6.8056C69.6293 6.81034 69.6675 6.83068 69.6947 6.86252C69.7218 6.89435 69.7359 6.93531 69.7341 6.97711C69.7364 7.01851 69.7364 7.06002 69.7341 7.10142V8.04551C69.7341 8.11317 69.7341 8.18083 69.723 8.25793C69.6859 8.26235 69.6484 8.26235 69.6113 8.25793C69.4218 8.19843 69.2276 8.15526 69.0307 8.1289C68.9973 8.12073 68.9647 8.10968 68.9331 8.09586C68.874 8.08027 68.8142 8.06766 68.7538 8.0581C68.576 8.03607 68.3982 8.02033 68.2204 7.99831C68.111 7.98257 67.9998 7.98576 67.8915 8.00775C67.7841 8.03051 67.6753 8.04628 67.5658 8.05495C67.4296 8.07237 67.2972 8.11225 67.174 8.17296C66.6862 8.3665 66.3998 8.74886 66.222 9.22563C66.1449 9.43175 66.1245 9.65361 66.0647 9.86603C66.0528 9.92716 66.048 9.98948 66.0505 10.0517C66.0505 10.4514 66.0505 10.851 66.0505 11.2507C66.0524 11.307 66.0571 11.3632 66.0647 11.4191C66.1048 11.4325 66.1458 11.443 66.1874 11.4505C66.2566 11.4505 66.3259 11.4505 66.3935 11.4505H69.4146C69.502 11.4424 69.5901 11.4509 69.6743 11.4757Z" fill="#009506"/>
<path d="M88.8897 11.386C88.9543 11.386 89.0219 11.3765 89.0896 11.3765H90.2067C90.2868 11.3887 90.3686 11.376 90.4412 11.3403C90.4523 11.306 90.4602 11.2707 90.4648 11.2349C90.4648 11.1389 90.4648 11.0414 90.4648 10.9454V8.21381C90.4648 8.13199 90.4648 8.05646 90.4648 7.96048C90.5063 7.94783 90.549 7.9394 90.5923 7.9353C91.0475 7.9353 91.5028 7.9353 91.958 7.9353C91.9988 7.93876 92.0393 7.94506 92.0792 7.95418C92.0997 8.03642 92.1066 8.12147 92.0997 8.20594V11.1012C92.0897 11.1804 92.0966 11.2608 92.1201 11.3372C92.1822 11.3752 92.2563 11.3886 92.3278 11.3749H95.4748C95.5503 11.3749 95.6321 11.3749 95.6888 11.3749C95.7099 11.4012 95.7253 11.4315 95.7343 11.464C95.7432 11.4965 95.7454 11.5304 95.7407 11.5638C95.7407 11.9078 95.7407 12.253 95.7407 12.5991C95.743 12.6332 95.743 12.6673 95.7407 12.7014C95.7406 12.7171 95.7372 12.7326 95.7307 12.747C95.7242 12.7613 95.7148 12.7741 95.7032 12.7846C95.6915 12.7951 95.6777 12.8031 95.6628 12.808C95.6478 12.8129 95.632 12.8146 95.6164 12.8131C95.5472 12.8131 95.4779 12.8131 95.4087 12.8131H92.4521C92.3761 12.8092 92.3 12.8092 92.224 12.8131C92.1469 12.8131 92.1185 12.854 92.1123 12.9358C92.1099 12.9772 92.1099 13.0188 92.1123 13.0602V19.5335C92.1123 19.6373 92.1123 19.7412 92.1123 19.8482C92.1123 19.9552 92.1406 20.0244 92.1563 20.1109C92.1563 20.1519 92.1768 20.1912 92.1862 20.2321C92.2265 20.4594 92.3203 20.6738 92.4599 20.8576C92.5994 21.0415 92.7807 21.1895 92.9887 21.2895C93.2879 21.4307 93.6145 21.5043 93.9454 21.5051C94.2206 21.5149 94.4962 21.4938 94.7667 21.4421C94.9012 21.4136 95.0336 21.3762 95.1632 21.3304C95.33 21.2722 95.4937 21.203 95.6683 21.1353C95.6793 21.1636 95.6982 21.1856 95.6982 21.2092C95.6982 21.6435 95.6982 22.0778 95.6982 22.5184C95.5115 22.6336 95.3097 22.7225 95.0987 22.7827C94.9414 22.8331 94.784 22.8771 94.6267 22.9228C94.5929 22.9293 94.5587 22.9335 94.5244 22.9354C94.4017 22.9542 94.2805 22.9778 94.1578 22.9904C93.8091 23.0351 93.4558 23.0309 93.1083 22.9778C93.0566 22.9638 93.004 22.9533 92.9509 22.9464C92.6493 22.9195 92.3545 22.8412 92.0792 22.7151C91.5312 22.495 91.0832 22.0811 90.8204 21.5523C90.7366 21.3794 90.6671 21.1999 90.6127 21.0157C90.5498 20.8253 90.5545 20.6223 90.4837 20.4335C90.4716 20.3868 90.4673 20.3384 90.4711 20.2903C90.4711 20.1723 90.4711 20.0559 90.4711 19.9379V13.1703C90.4711 13.0948 90.4711 13.0129 90.4711 12.9421C90.4705 12.9176 90.4612 12.8941 90.4447 12.8759C90.4282 12.8577 90.4058 12.846 90.3814 12.843C90.3132 12.8325 90.2443 12.8267 90.1753 12.8257C89.8511 12.8257 89.527 12.8257 89.2044 12.8257H89.121C88.8693 12.8257 88.8693 12.8257 88.8677 12.5708V11.6C88.8563 11.5279 88.8639 11.4542 88.8897 11.386Z" fill="#009506"/>
<path d="M74.1402 22.7859C73.6445 22.8 73.1615 22.7859 72.68 22.7859C72.6377 22.7822 72.5956 22.7759 72.5541 22.767C72.545 22.7328 72.5376 22.6981 72.5321 22.6631C72.5321 22.6081 72.5321 22.553 72.5321 22.5058C72.5321 18.8868 72.5321 15.2678 72.5321 11.6487C72.5228 11.5627 72.5297 11.4757 72.5525 11.3923C72.5824 11.3805 72.6136 11.3726 72.6454 11.3687H74.0521C74.082 11.3721 74.1115 11.3784 74.1402 11.3875C74.1526 11.4245 74.162 11.4624 74.1685 11.5008C74.1685 11.5701 74.1685 11.6393 74.1685 11.7085V22.4617C74.1813 22.5706 74.1716 22.6809 74.1402 22.7859Z" fill="#009506"/>
<path d="M74.2487 7.04312C74.2487 7.12809 74.2613 7.20047 74.2613 7.26341C74.2613 7.71028 74.2613 8.15715 74.2613 8.60402C74.2613 8.83847 74.2487 8.84949 74.0174 8.85106H72.5383C72.4219 8.84162 72.3936 8.81802 72.3936 8.69371C72.3936 8.16921 72.3936 7.64472 72.3936 7.12022C72.3955 7.09936 72.3997 7.07878 72.4061 7.05886C72.4675 6.99434 72.5478 7.0148 72.6201 7.0148H73.9545C74.0095 7.0148 74.0646 7.0148 74.1197 7.0148C74.1747 7.0148 74.1889 7.03368 74.2487 7.04312Z" fill="#009506"/>
<path d="M0.000431981 3.25408C-0.00854612 3.80932 0.122553 4.35787 0.381618 4.84904C0.640682 5.34022 1.01936 5.75819 1.48266 6.06433L11.1879 12.4763C11.4466 12.65 11.6584 12.8849 11.8042 13.1603C11.95 13.4357 12.0255 13.7428 12.0237 14.0544C12.022 14.366 11.9432 14.6723 11.7944 14.9461C11.6455 15.2198 11.4312 15.4525 11.1706 15.6233L1.65889 21.7599C1.19112 22.0615 0.807108 22.4763 0.542486 22.966C0.277864 23.4556 0.141206 24.0041 0.145193 24.5607V24.718C0.170369 27.6447 3.706 29.0955 5.77985 27.0311L17.4724 15.3872C17.6479 15.2127 17.7872 15.0051 17.8822 14.7765C17.9773 14.5479 18.0262 14.3028 18.0262 14.0553C18.0262 13.8077 17.9773 13.5626 17.8822 13.334C17.7872 13.1055 17.6479 12.8979 17.4724 12.7233L5.63037 0.96623C3.56595 -1.0856 0.0492101 0.343129 0.000431981 3.25408Z" fill="#009506"/>
<path d="M2.53843 9.90527H1.90117C1.25636 9.90527 0.733643 10.428 0.733643 11.0728V16.934C0.733643 17.5789 1.25636 18.1016 1.90117 18.1016H2.53843C3.18324 18.1016 3.70596 17.5789 3.70596 16.934V11.0728C3.70596 10.428 3.18324 9.90527 2.53843 9.90527Z" fill="#009506"/>
</svg>
