<svg width="21" height="18" viewBox="0 0 21 18" fill="none" xmlns="http://www.w3.org/2000/svg">
<path d="M18.9 4V2C18.9 0.897 17.9581 0 16.8 0H3.15C1.4133 0 0 1.346 0 3V15C0 17.201 1.8837 18 3.15 18H18.9C20.0581 18 21 17.103 21 16V6C21 4.897 20.0581 4 18.9 4ZM16.8 13H14.7V9H16.8V13ZM3.15 4C2.87965 3.98848 2.62438 3.87809 2.43734 3.69182C2.2503 3.50554 2.14592 3.25774 2.14592 3C2.14592 2.74226 2.2503 2.49446 2.43734 2.30818C2.62438 2.12191 2.87965 2.01152 3.15 2H16.8V4H3.15Z" fill="white"/>
</svg>
