<svg width="17" height="16" viewBox="0 0 17 16" fill="none" xmlns="http://www.w3.org/2000/svg">
<path d="M8.5 16C13.1944 16 17 12.4183 17 8C17 3.58172 13.1944 0 8.5 0C3.80558 0 0 3.58172 0 8C0 12.4183 3.80558 16 8.5 16Z" fill="#8AC9FE"/>
<path d="M12.7174 1.05273C13.5972 2.31267 14.1096 3.82017 14.1096 5.44055C14.1096 9.85883 10.304 13.4405 5.60958 13.4405C4.07474 13.4405 2.63498 13.0575 1.39209 12.3877C2.9113 14.5632 5.52714 15.9999 8.49991 15.9999C13.1943 15.9999 16.9999 12.4182 16.9999 7.99989C16.9999 5.02617 15.2759 2.43158 12.7174 1.05273Z" fill="#60B7FF"/>
<path d="M8.50011 14.9661C12.5878 14.9661 15.9016 11.8473 15.9016 8.00003C15.9016 4.15276 12.5878 1.03394 8.50011 1.03394C4.41239 1.03394 1.09863 4.15276 1.09863 8.00003C1.09863 11.8473 4.41239 14.9661 8.50011 14.9661Z" fill="#EAF6FF"/>
<path d="M8.50054 11.8984C8.40979 11.8984 8.31905 11.8769 8.2372 11.8339L5.01129 10.139C4.84033 10.0492 4.73438 9.87931 4.73438 9.69502V6.30518C4.73438 6.1209 4.84033 5.95102 5.01129 5.86121L8.2372 4.16631C8.4009 4.08031 8.60018 4.08031 8.76387 4.16631L11.9898 5.86121C12.1608 5.95102 12.2667 6.1209 12.2667 6.30518V9.69502C12.2667 9.87931 12.1608 10.0492 11.9898 10.139L8.76387 11.8339C8.68203 11.8769 8.59128 11.8984 8.50054 11.8984ZM5.95725 9.47131L8.36517 10.7364C8.44931 10.7806 8.55177 10.7806 8.63591 10.7364L11.0438 9.47131C11.1317 9.42512 11.1862 9.33781 11.1862 9.24309V6.75709C11.1862 6.66237 11.1317 6.57503 11.0438 6.52887L8.63591 5.26374C8.55177 5.21952 8.44931 5.21952 8.36517 5.26374L5.95725 6.52887C5.86936 6.57506 5.8149 6.66237 5.8149 6.75709V9.24309C5.81487 9.33781 5.86936 9.42515 5.95725 9.47131Z" fill="#60B7FF"/>
<path d="M13.7306 3.07129C13.9769 3.81998 14.1097 4.61563 14.1097 5.44051C14.1097 9.85879 10.3041 13.4405 5.60969 13.4405C4.91415 13.4405 4.23834 13.3613 3.59131 13.213C4.89772 14.3034 6.61655 14.966 8.50006 14.966C12.5878 14.966 15.9015 11.8471 15.9015 7.99988C15.9015 6.07479 15.0718 4.3321 13.7306 3.07129Z" fill="#D8ECFE"/>
</svg>
