<svg width="27" height="22" viewBox="0 0 27 22" fill="none" xmlns="http://www.w3.org/2000/svg">
<path d="M13.3889 9.64919C20.5784 9.64919 26.4066 7.70644 26.4066 5.30995C26.4066 2.91345 20.5784 0.970703 13.3889 0.970703C6.19935 0.970703 0.371094 2.91345 0.371094 5.30995C0.371094 7.70644 6.19935 9.64919 13.3889 9.64919Z" fill="#009506"/>
<path d="M23.4171 10.8491C20.6999 11.7548 17.1385 12.2537 13.3889 12.2537C9.63924 12.2537 6.07781 11.7548 3.36061 10.8491C2.1171 10.4347 1.13828 9.96358 0.371094 9.46387V11.299C0.371094 12.4581 1.7251 13.5478 4.18393 14.3673C6.64261 15.1869 9.91165 15.6383 13.3889 15.6383C16.8661 15.6383 20.1351 15.187 22.5938 14.3673C25.0525 13.5478 26.4066 12.4581 26.4066 11.299V9.46387C25.6395 9.96358 24.6606 10.4346 23.4171 10.8491Z" fill="#009506"/>
<path d="M23.4171 16.8383C20.7 17.7441 17.1385 18.2429 13.3889 18.2429C9.63924 18.2429 6.07776 17.744 3.36061 16.8383C2.11705 16.4238 1.13823 15.9528 0.371094 15.4531V17.4619C0.371094 19.8583 6.19935 21.8011 13.3889 21.8011C20.5784 21.8011 26.4066 19.8583 26.4066 17.4618V15.4532C25.6396 15.9528 24.6607 16.4239 23.4171 16.8383Z" fill="#009506"/>
</svg>
