<svg width="35" height="35" viewBox="0 0 35 35" fill="none" xmlns="http://www.w3.org/2000/svg">
<path d="M17.5 35C27.165 35 35 27.165 35 17.5C35 7.83502 27.165 0 17.5 0C7.83502 0 0 7.83502 0 17.5C0 27.165 7.83502 35 17.5 35Z" fill="#FD9468"/>
<path d="M26.183 2.30322C27.9944 5.05934 29.0493 8.357 29.0493 11.9016C29.0493 21.5666 21.2143 29.4016 11.5493 29.4016C8.38931 29.4016 5.42511 28.5637 2.86621 27.0985C5.99399 31.8575 11.3796 35.0002 17.5 35.0002C27.165 35.0002 35 27.1651 35 17.5001C35 10.9951 31.4505 5.31945 26.183 2.30322Z" fill="#FE7D43"/>
<path d="M17.5001 32.7384C25.916 32.7384 32.7384 25.9159 32.7384 17.5C32.7384 9.08415 25.916 2.26172 17.5001 2.26172C9.08416 2.26172 2.26172 9.08415 2.26172 17.5C2.26172 25.9159 9.08416 32.7384 17.5001 32.7384Z" fill="#FFDCCE"/>
<path d="M17.699 12.8231L20.7578 15.8824C20.8678 15.9925 21.0462 15.9925 21.1562 15.8824L22.7685 14.2698C22.8785 14.1598 22.8785 13.9815 22.7685 13.8715L17.699 8.80081C17.589 8.69075 17.4106 8.69075 17.3006 8.80081L12.2329 13.8697C12.1229 13.9796 12.1229 14.158 12.2329 14.268L13.8451 15.8806C13.9551 15.9906 14.1335 15.9906 14.2435 15.8806L17.3006 12.8231C17.4107 12.713 17.589 12.713 17.699 12.8231Z" fill="#FD9468"/>
<path d="M10.4145 15.688L8.80222 17.3006C8.69223 17.4106 8.69223 17.5889 8.80222 17.6989L10.4144 19.3115C10.5244 19.4216 10.7028 19.4216 10.8128 19.3115L12.4251 17.6989C12.5351 17.5889 12.5351 17.4105 12.4251 17.3005L10.8129 15.688C10.703 15.578 10.5246 15.578 10.4145 15.688Z" fill="#FD9468"/>
<path d="M17.6987 26.1988L22.7691 21.1272C22.8791 21.0172 22.8791 20.8388 22.769 20.7288L21.1559 19.1171C21.0458 19.0071 20.8675 19.0072 20.7575 19.1172L17.6987 22.1765C17.5887 22.2866 17.4103 22.2866 17.3003 22.1765L14.243 19.1187C14.1331 19.0088 13.955 19.0086 13.8449 19.1184L12.2302 20.7289C12.12 20.8389 12.1198 21.0174 12.23 21.1275L17.3003 26.1988C17.4104 26.3088 17.5887 26.3088 17.6987 26.1988Z" fill="#FD9468"/>
<path d="M24.1865 15.6889L22.5742 17.3016C22.4642 17.4116 22.4642 17.5899 22.5742 17.6999L24.1864 19.3125C24.2964 19.4226 24.4749 19.4226 24.5848 19.3125L26.1972 17.6999C26.3072 17.5899 26.3072 17.4115 26.1972 17.3015L24.5849 15.6889C24.4749 15.5789 24.2965 15.5789 24.1865 15.6889Z" fill="#FD9468"/>
<path d="M19.3418 17.3005L17.699 15.6573C17.589 15.5472 17.4106 15.5472 17.3006 15.6573L15.6577 17.3005C15.5477 17.4105 15.5477 17.5888 15.6577 17.6988L17.3006 19.3421C17.4106 19.4522 17.589 19.4522 17.699 19.3421L19.3418 17.6988C19.4518 17.5887 19.4518 17.4105 19.3418 17.3005Z" fill="#FD9468"/>
<path d="M28.2691 6.71875C28.7762 8.3565 29.0495 10.097 29.0495 11.9014C29.0495 21.5664 21.2145 29.4014 11.5495 29.4014C10.1175 29.4014 8.72616 29.2281 7.39404 28.9037C10.0837 31.2891 13.6225 32.7384 17.5003 32.7384C25.9162 32.7384 32.7386 25.9159 32.7386 17.5C32.7386 13.2889 31.0303 9.47678 28.2691 6.71875Z" fill="#FFD1BE"/>
</svg>
