<svg width="38" height="35" viewBox="0 0 38 35" fill="none" xmlns="http://www.w3.org/2000/svg">
<g clip-path="url(#clip0_471_1901)">
<path d="M19.073 35C29.4451 35 37.8535 27.165 37.8535 17.5C37.8535 7.83502 29.4451 0 19.073 0C8.70079 0 0.29248 7.83502 0.29248 17.5C0.29248 27.165 8.70079 35 19.073 35Z" fill="#009706"/>
<path d="M27.9899 2.09473C29.9021 4.8358 31.0138 8.10645 31.0138 11.6195C31.0138 21.2845 22.6055 29.1195 12.2333 29.1195C9.00616 29.1195 5.9693 28.3606 3.31641 27.0246C6.6652 31.8248 12.4708 34.9998 19.0729 34.9998C29.4451 34.9998 37.8534 27.1648 37.8534 17.4998C37.8534 10.842 33.8632 5.05284 27.9899 2.09473Z" fill="#009506"/>
<path d="M19.0731 32.7384C28.1048 32.7384 35.4264 25.9159 35.4264 17.5C35.4264 9.08415 28.1048 2.26172 19.0731 2.26172C10.0414 2.26172 2.71973 9.08415 2.71973 17.5C2.71973 25.9159 10.0414 32.7384 19.0731 32.7384Z" fill="#D8F6EF"/>
<path d="M30.1159 6.26123C30.6984 7.95019 31.0141 9.7505 31.0141 11.6198C31.0141 21.2848 22.6058 29.1198 12.2336 29.1198C10.7559 29.1198 9.3183 28.9602 7.93896 28.6595C10.8585 31.1899 14.7715 32.7384 19.0732 32.7384C28.105 32.7384 35.4266 25.9159 35.4266 17.5001C35.4266 13.0507 33.3796 9.04708 30.1159 6.26123Z" fill="#C6F2E7"/>
<path d="M14.3782 10.1122C14.3717 10.4939 14.4673 10.871 14.6562 11.2087C14.8452 11.5464 15.1213 11.8338 15.4592 12.0442L22.5372 16.4524C22.7259 16.5718 22.8803 16.7334 22.9866 16.9227C23.093 17.112 23.148 17.3232 23.1467 17.5374C23.1455 17.7516 23.088 17.9622 22.9795 18.1504C22.8709 18.3386 22.7146 18.4986 22.5246 18.616L15.5877 22.8349C15.2466 23.0422 14.9665 23.3275 14.7736 23.6641C14.5806 24.0007 14.4809 24.3778 14.4838 24.7605V24.8686C14.5022 26.8807 17.0807 27.8781 18.5931 26.4588L27.1204 18.4537C27.2484 18.3337 27.35 18.191 27.4193 18.0339C27.4886 17.8767 27.5243 17.7082 27.5243 17.538C27.5243 17.3678 27.4886 17.1993 27.4193 17.0422C27.35 16.885 27.2484 16.7423 27.1204 16.6223L18.4841 8.53928C16.9785 7.12865 14.4138 8.1109 14.3782 10.1122Z" fill="#009506"/>
<path d="M15.5183 14.875H15.1156C14.7082 14.875 14.3779 15.2098 14.3779 15.6228V19.3772C14.3779 19.7902 14.7082 20.125 15.1156 20.125H15.5183C15.9257 20.125 16.256 19.7902 16.256 19.3772V15.6228C16.256 15.2098 15.9257 14.875 15.5183 14.875Z" fill="#009506"/>
</g>
<defs>
<clipPath id="clip0_471_1901">
<rect width="37.561" height="35" fill="white" transform="translate(0.29248)"/>
</clipPath>
</defs>
</svg>
