<svg width="35" height="35" viewBox="0 0 35 35" fill="none" xmlns="http://www.w3.org/2000/svg">
<path d="M17.5 35C27.165 35 35 27.165 35 17.5C35 7.83502 27.165 0 17.5 0C7.83502 0 0 7.83502 0 17.5C0 27.165 7.83502 35 17.5 35Z" fill="black"/>
<path d="M25.0814 1.72314C27.1354 4.59096 28.3448 8.10477 28.3448 11.9014C28.3448 21.5664 20.5098 29.4014 10.8448 29.4014C8.12859 29.4014 5.55698 28.7825 3.26318 27.6782C6.43807 32.111 11.6313 34.9999 17.4998 34.9999C27.1648 34.9999 34.9998 27.1649 34.9998 17.4999C34.9998 10.5511 30.9498 4.54837 25.0814 1.72314Z" fill="black"/>
<path d="M17.5 32.7384C25.9159 32.7384 32.7384 25.9159 32.7384 17.5C32.7384 9.08415 25.9159 2.26172 17.5 2.26172C9.08415 2.26172 2.26172 9.08415 2.26172 17.5C2.26172 25.9159 9.08415 32.7384 17.5 32.7384Z" fill="#EAF6FF"/>
<path d="M27.246 5.78613C27.9562 7.68994 28.3453 9.75016 28.3453 11.9016C28.3453 21.5666 20.5103 29.4016 10.8453 29.4016C9.74503 29.4016 8.66892 29.299 7.625 29.1047C10.2848 31.3703 13.7325 32.7385 17.5002 32.7385C25.9161 32.7385 32.7385 25.916 32.7385 17.5001C32.7385 12.7911 30.602 8.58135 27.246 5.78613Z" fill="#D8ECFE"/>
<path d="M17.2953 8.35631L12.3804 16.2824C12.3211 16.3781 12.35 16.5037 12.4452 16.5638L17.459 19.7304C17.5267 19.7731 17.613 19.7726 17.6801 19.729L22.5578 16.5652C22.6518 16.5042 22.6795 16.379 22.6199 16.2841L17.6433 8.35528C17.5626 8.22683 17.3752 8.22738 17.2953 8.35631Z" fill="black"/>
<path d="M17.6398 22.4726L21.9479 19.7932C22.1347 19.677 22.3484 19.8964 22.2275 20.0801L17.8869 26.6735C17.8078 26.7936 17.6327 26.7971 17.5489 26.6802L12.852 20.1263C12.7217 19.9444 12.9354 19.715 13.1261 19.8321L17.4242 22.4731C17.4904 22.5139 17.5739 22.5137 17.6398 22.4726Z" fill="black"/>
</svg>
