<svg width="35" height="35" viewBox="0 0 35 35" fill="none" xmlns="http://www.w3.org/2000/svg">
<path d="M17.5 35C27.165 35 35 27.165 35 17.5C35 7.83502 27.165 0 17.5 0C7.83502 0 0 7.83502 0 17.5C0 27.165 7.83502 35 17.5 35Z" fill="#8AC9FE"/>
<path d="M26.183 2.30322C27.9944 5.05934 29.0493 8.35699 29.0493 11.9016C29.0493 21.5666 21.2143 29.4016 11.5493 29.4016C8.38931 29.4016 5.42511 28.5637 2.86621 27.0985C5.99399 31.8575 11.3796 35.0001 17.5 35.0001C27.165 35.0001 35 27.1651 35 17.5001C35 10.9951 31.4505 5.31944 26.183 2.30322Z" fill="#60B7FF"/>
<path d="M17.5001 32.7384C25.9159 32.7384 32.7384 25.9159 32.7384 17.5C32.7384 9.08415 25.9159 2.26172 17.5001 2.26172C9.08415 2.26172 2.26172 9.08415 2.26172 17.5C2.26172 25.9159 9.08415 32.7384 17.5001 32.7384Z" fill="#EAF6FF"/>
<path d="M17.5 26.0277C17.3131 26.0277 17.1263 25.9807 16.9578 25.8866L10.3162 22.179C9.96423 21.9825 9.74609 21.6109 9.74609 21.2078V13.7925C9.74609 13.3894 9.96423 13.0178 10.3162 12.8214L16.9578 9.11375C17.2948 8.92563 17.7051 8.92563 18.0421 9.11375L24.6837 12.8214C25.0357 13.0178 25.2538 13.3894 25.2538 13.7925V21.2078C25.2538 21.6109 25.0357 21.9825 24.6837 22.179L18.0421 25.8866C17.8736 25.9807 17.6868 26.0277 17.5 26.0277ZM12.2638 20.7184L17.2213 23.4859C17.3945 23.5826 17.6054 23.5826 17.7787 23.4859L22.7361 20.7184C22.9171 20.6174 23.0292 20.4264 23.0292 20.2192V14.7811C23.0292 14.5739 22.9171 14.3828 22.7361 14.2819L17.7787 11.5144C17.6054 11.4177 17.3945 11.4177 17.2213 11.5144L12.2638 14.2819C12.0828 14.3829 11.9707 14.5739 11.9707 14.7811V20.2192C11.9706 20.4264 12.0828 20.6175 12.2638 20.7184Z" fill="#60B7FF"/>
<path d="M28.2691 6.71875C28.7762 8.3565 29.0495 10.097 29.0495 11.9014C29.0495 21.5664 21.2145 29.4014 11.5495 29.4014C10.1175 29.4014 8.72616 29.2281 7.39404 28.9037C10.0837 31.2891 13.6225 32.7384 17.5003 32.7384C25.9162 32.7384 32.7386 25.9159 32.7386 17.5C32.7386 13.2889 31.0303 9.47678 28.2691 6.71875Z" fill="#D8ECFE"/>
</svg>
