<svg width="40" height="40" viewBox="0 0 40 40" fill="none" xmlns="http://www.w3.org/2000/svg">
<path d="M20 40C31.0457 40 40 31.0457 40 20C40 8.9543 31.0457 0 20 0C8.9543 0 0 8.9543 0 20C0 31.0457 8.9543 40 20 40Z" fill="#5DE1C4"/>
<path d="M29.4958 2.39404C31.5322 5.5267 32.7162 9.26459 32.7162 13.2795C32.7162 24.3252 23.7619 33.2795 12.7162 33.2795C9.27943 33.2795 6.04537 32.4122 3.22021 30.8853C6.78647 36.3712 12.969 39.9998 19.9999 39.9998C31.0456 39.9998 39.9999 31.0455 39.9999 19.9998C39.9999 12.3909 35.7506 5.77475 29.4958 2.39404Z" fill="#0ED2B3"/>
<path d="M20.0002 37.4154C29.6184 37.4154 37.4154 29.6184 37.4154 20.0002C37.4154 10.382 29.6184 2.58496 20.0002 2.58496C10.382 2.58496 2.58496 10.382 2.58496 20.0002C2.58496 29.6184 10.382 37.4154 20.0002 37.4154Z" fill="#D8F6EF"/>
<path d="M31.7596 7.15576C32.3798 9.086 32.7161 11.1435 32.7161 13.2798C32.7161 24.3255 23.7618 33.2798 12.7161 33.2798C11.1424 33.2798 9.61148 33.0975 8.14258 32.7538C11.2517 35.6457 15.4188 37.4154 19.9998 37.4154C29.6181 37.4154 37.4151 29.6183 37.4151 20.0001C37.4151 14.9151 35.2352 10.3396 31.7596 7.15576Z" fill="#C6F2E7"/>
<path d="M25.8998 10.4663H20.0509C20.0479 10.4663 20.0451 10.4658 20.0421 10.4658C20.0392 10.4658 20.0363 10.4662 20.0334 10.4663H14.1845C13.3526 10.4663 12.6782 11.145 12.6782 11.9821C12.6782 12.8193 13.3526 13.498 14.1845 13.498H18.5359V28.0178C18.5359 28.855 19.2103 29.5336 20.0421 29.5336C20.874 29.5336 21.5484 28.855 21.5484 28.0178V13.498H25.8998C26.7317 13.498 27.406 12.8193 27.406 11.9821C27.406 11.145 26.7316 10.4663 25.8998 10.4663Z" fill="#5DE1C4"/>
<path d="M19.9999 21.911C17.7659 21.911 15.6582 21.6588 14.0646 21.2009C12.1892 20.662 11.2383 19.9091 11.2383 18.9631C11.2383 17.95 12.3797 17.1324 14.5391 16.5988C14.8626 16.5189 15.1899 16.7164 15.2699 17.04C15.3498 17.3636 15.1523 17.6908 14.8287 17.7708C12.85 18.2597 12.4455 18.8356 12.4455 18.9631C12.4455 19.1316 12.9228 19.6167 14.398 20.0406C15.8862 20.4682 17.8756 20.7037 19.9999 20.7037C22.1242 20.7037 24.1137 20.4682 25.6018 20.0406C27.077 19.6166 27.5543 19.1316 27.5543 18.9631C27.5543 18.8402 27.168 18.2821 25.2779 17.7977C24.955 17.715 24.7602 17.386 24.8431 17.0632C24.9259 16.7402 25.2548 16.5457 25.5777 16.6283C27.6606 17.1621 28.7616 17.9695 28.7616 18.9632C28.7616 19.9092 27.8106 20.662 25.9352 21.201C24.3416 21.6588 22.2339 21.911 19.9999 21.911Z" fill="#5DE1C4"/>
</svg>
