<svg width="35" height="35" viewBox="0 0 35 35" fill="none" xmlns="http://www.w3.org/2000/svg">
<path d="M17.5 35C27.165 35 35 27.165 35 17.5C35 7.83502 27.165 0 17.5 0C7.83502 0 0 7.83502 0 17.5C0 27.165 7.83502 35 17.5 35Z" fill="#5DE1C4"/>
<path d="M25.809 2.09473C27.5909 4.8358 28.6268 8.10645 28.6268 11.6195C28.6268 21.2845 20.7918 29.1195 11.1268 29.1195C8.11969 29.1195 5.28988 28.3607 2.81787 27.0246C5.93834 31.8248 11.3481 34.9998 17.5001 34.9998C27.1651 34.9998 35.0001 27.1648 35.0001 17.4998C35.0001 10.842 31.282 5.05284 25.809 2.09473Z" fill="#0ED2B3"/>
<path d="M17.5 32.7384C25.9159 32.7384 32.7384 25.9159 32.7384 17.5C32.7384 9.08415 25.9159 2.26172 17.5 2.26172C9.08415 2.26172 2.26172 9.08415 2.26172 17.5C2.26172 25.9159 9.08415 32.7384 17.5 32.7384Z" fill="#D8F6EF"/>
<path d="M27.7899 6.26123C28.3326 7.95019 28.6268 9.7505 28.6268 11.6198C28.6268 21.2848 20.7918 29.1198 11.1268 29.1198C9.74986 29.1198 8.41029 28.9602 7.125 28.6595C9.8455 31.1899 13.4917 32.7384 17.5001 32.7384C25.916 32.7384 32.7384 25.9159 32.7384 17.5001C32.7384 13.0507 30.8311 9.04708 27.7899 6.26123Z" fill="#C6F2E7"/>
<path d="M22.6621 9.15812H17.5443C17.5417 9.15812 17.5393 9.15771 17.5367 9.15771C17.5341 9.15771 17.5316 9.15806 17.529 9.15812H12.4112C11.6833 9.15812 11.0933 9.75196 11.0933 10.4845C11.0933 11.217 11.6833 11.8109 12.4112 11.8109H16.2187V24.5157C16.2187 25.2482 16.8088 25.842 17.5367 25.842C18.2646 25.842 18.8546 25.2482 18.8546 24.5157V11.8109H22.6621C23.39 11.8109 23.9801 11.217 23.9801 10.4845C23.9801 9.75196 23.39 9.15812 22.6621 9.15812Z" fill="#5DE1C4"/>
<path d="M17.4999 19.172C15.5452 19.172 13.7009 18.9513 12.3065 18.5507C10.6656 18.0791 9.8335 17.4203 9.8335 16.5926C9.8335 15.7061 10.8322 14.9907 12.7217 14.5238C13.0048 14.4539 13.2912 14.6267 13.3612 14.9099C13.4311 15.193 13.2583 15.4793 12.9751 15.5493C11.2438 15.9771 10.8899 16.481 10.8899 16.5926C10.8899 16.74 11.3075 17.1645 12.5983 17.5354C13.9004 17.9095 15.6412 18.1156 17.4999 18.1156C19.3587 18.1156 21.0995 17.9095 22.4016 17.5354C23.6924 17.1644 24.11 16.74 24.11 16.5926C24.11 16.485 23.772 15.9967 22.1182 15.5729C21.8356 15.5005 21.6652 15.2127 21.7377 14.9301C21.8101 14.6475 22.0979 14.4773 22.3805 14.5496C24.203 15.0167 25.1664 15.7232 25.1664 16.5926C25.1664 17.4204 24.3343 18.0791 22.6933 18.5507C21.2989 18.9513 19.4547 19.172 17.4999 19.172Z" fill="#5DE1C4"/>
</svg>
