<svg width="35" height="35" viewBox="0 0 35 35" fill="none" xmlns="http://www.w3.org/2000/svg">
<path d="M17.5 35C27.165 35 35 27.165 35 17.5C35 7.83502 27.165 0 17.5 0C7.83502 0 0 7.83502 0 17.5C0 27.165 7.83502 35 17.5 35Z" fill="#FEE55A"/>
<path d="M2.67606 17.5C2.67606 8.28522 9.79822 0.733975 18.8381 0.0505176C18.3964 0.0170898 17.9502 0 17.5 0C7.83501 0 0 7.83501 0 17.5C0 27.165 7.83501 35 17.5 35C17.9502 35 18.3964 34.9829 18.838 34.9495C9.79822 34.266 2.67606 26.7148 2.67606 17.5Z" fill="#FFD301"/>
<path d="M17.4999 32.5756C25.826 32.5756 32.5756 25.826 32.5756 17.5C32.5756 9.17391 25.826 2.42432 17.4999 2.42432C9.17391 2.42432 2.42432 9.17391 2.42432 17.5C2.42432 25.826 9.17391 32.5756 17.4999 32.5756Z" fill="#FFD301"/>
<path d="M5.69976 17.5C5.69976 9.72735 11.5821 3.32953 19.1376 2.51318C18.5997 2.45508 18.0534 2.42432 17.5 2.42432C9.17392 2.42432 2.42432 9.17392 2.42432 17.5C2.42432 25.826 9.17392 32.5756 17.5 32.5756C18.0535 32.5756 18.5997 32.5449 19.1376 32.4867C11.5821 31.6704 5.69976 25.2726 5.69976 17.5Z" fill="#FFC20C"/>
<path d="M24.5461 20.6335C24.5511 19.1757 23.8135 17.8866 22.6908 17.1237C22.5953 17.0588 22.5725 16.9289 22.6398 16.8351C23.136 16.143 23.4291 15.296 23.4291 14.3813C23.4291 12.3979 22.0545 10.7295 20.2079 10.2787C20.1172 10.2565 20.0544 10.1737 20.0544 10.0804V8.38465C20.0544 7.7902 19.5976 7.27873 19.0038 7.25077C18.3699 7.2209 17.8465 7.72607 17.8465 8.35348V9.95356C17.8465 10.0669 17.7546 10.1587 17.6414 10.1587H16.175C16.0617 10.1587 15.9698 10.0669 15.9698 9.95356V8.38465C15.9698 7.7902 15.513 7.27873 14.9193 7.25077C14.2853 7.2209 13.762 7.72607 13.762 8.35348V9.95356C13.762 10.0669 13.6701 10.1587 13.5569 10.1587H12.1625C11.568 10.1587 11.0566 10.6156 11.0286 11.2093C10.9987 11.8432 11.5039 12.3666 12.1313 12.3666H12.5445C12.6578 12.3666 12.7497 12.4584 12.7497 12.5717V22.4283C12.7497 22.5416 12.6578 22.6335 12.5445 22.6335H12.1625C11.5681 22.6335 11.0566 23.0903 11.0287 23.684C10.9988 24.318 11.504 24.8413 12.1314 24.8413H13.5569C13.6702 24.8413 13.762 24.9332 13.762 25.0465V26.6154C13.762 27.2099 14.2188 27.7213 14.8126 27.7493C15.4465 27.7792 15.9699 27.274 15.9699 26.6466V25.0464C15.9699 24.9331 16.0618 24.8413 16.175 24.8413H17.6415C17.7548 24.8413 17.8466 24.9331 17.8466 25.0464V26.6153C17.8466 27.2098 18.3033 27.7213 18.8971 27.7492C19.5311 27.7791 20.0544 27.2739 20.0544 26.6465V25.0464C20.0544 24.933 20.1463 24.8412 20.2595 24.8412C22.5962 24.8413 24.5381 22.9704 24.5461 20.6335ZM14.9574 12.6698C14.9574 12.5023 15.0931 12.3667 15.2605 12.3667H19.1636C20.2599 12.3667 21.1877 13.2246 21.2202 14.3204C21.254 15.459 20.3376 16.3961 19.2064 16.3961H15.2605C15.0931 16.3961 14.9574 16.2604 14.9574 16.093V12.6698ZM22.3374 20.6797C22.3048 21.7755 21.377 22.6334 20.2807 22.6334H15.2605C15.0931 22.6334 14.9574 22.4977 14.9574 22.3303V18.907C14.9574 18.7397 15.0931 18.6039 15.2605 18.6039H20.3236C21.4548 18.604 22.3711 19.541 22.3374 20.6797Z" fill="#E49824"/>
<path d="M19.1974 9.95356V8.35348C19.1974 8.00074 19.3629 7.68663 19.6204 7.48449C19.4487 7.34832 19.237 7.26171 19.0035 7.25077C18.3696 7.2209 17.8462 7.72607 17.8462 8.35348V9.95356C17.8462 10.0669 17.7543 10.1587 17.6411 10.1587H18.9923C19.1056 10.1587 19.1974 10.0669 19.1974 9.95356Z" fill="#DF751C"/>
<path d="M12.3794 23.6839C12.4073 23.0902 12.9188 22.6334 13.5133 22.6334H13.8952C14.0085 22.6334 14.1004 22.5416 14.1004 22.4282V12.5717C14.1004 12.4584 14.0085 12.3666 13.8952 12.3666H13.482C12.8546 12.3666 12.3494 11.8432 12.3793 11.2092C12.4073 10.6155 12.9187 10.1587 13.5132 10.1587H12.162C11.5675 10.1587 11.0561 10.6155 11.0281 11.2092C10.9982 11.8432 11.5034 12.3666 12.1308 12.3666H12.5441C12.6573 12.3666 12.7492 12.4584 12.7492 12.5717V22.4283C12.7492 22.5416 12.6573 22.6335 12.5441 22.6335H12.1621C11.5676 22.6335 11.0561 23.0902 11.0282 23.684C10.9983 24.318 11.5035 24.8413 12.1309 24.8413H13.4821C12.8547 24.8413 12.3495 24.3179 12.3794 23.6839Z" fill="#DF751C"/>
<path d="M15.1129 9.95356V8.35348C15.1129 8.00074 15.2784 7.68663 15.5359 7.48449C15.3642 7.34832 15.1526 7.26171 14.919 7.25077C14.2851 7.2209 13.7617 7.72607 13.7617 8.35348V9.95356C13.7617 10.0669 13.6699 10.1587 13.5566 10.1587H14.9078C15.0211 10.1587 15.1129 10.0669 15.1129 9.95356Z" fill="#DF751C"/>
<path d="M19.1974 26.6154V25.0465C19.1974 24.9331 19.1055 24.8413 18.9923 24.8413H17.6411C17.7544 24.8413 17.8462 24.9331 17.8462 25.0465V26.6154C17.8462 27.2098 18.303 27.7213 18.8967 27.7493C19.1743 27.7623 19.4306 27.6729 19.6311 27.5155C19.3662 27.3054 19.1974 26.976 19.1974 26.6154Z" fill="#DF751C"/>
<path d="M15.113 26.6154V25.0465C15.113 24.9331 15.0212 24.8413 14.9078 24.8413H13.5566C13.6699 24.8413 13.7617 24.9331 13.7617 25.0465V26.6154C13.7617 27.2098 14.2185 27.7213 14.8123 27.7493C15.0898 27.7623 15.3461 27.6729 15.5466 27.5155C15.2818 27.3054 15.113 26.976 15.113 26.6154Z" fill="#DF751C"/>
<path d="M32.5758 16.9716H30.6891V16.7156C30.6891 16.424 30.4526 16.1875 30.161 16.1875C29.8693 16.1875 29.6328 16.424 29.6328 16.7156V18.2839C29.6328 18.5756 29.8693 18.812 30.161 18.812C30.4526 18.812 30.6891 18.5756 30.6891 18.2839V18.0279H32.5758C32.8674 18.0279 33.1039 17.7915 33.1039 17.4998C33.1039 17.208 32.8674 16.9716 32.5758 16.9716Z" fill="#FEE55A"/>
<path d="M16.7161 5.36715H18.2843C18.576 5.36715 18.8124 5.13069 18.8124 4.839C18.8124 4.54731 18.576 4.31086 18.2843 4.31086H18.0284V2.42414C18.0284 2.13245 17.7919 1.896 17.5002 1.896C17.2085 1.896 16.9721 2.13245 16.9721 2.42414V4.31079H16.7161C16.4244 4.31079 16.188 4.54725 16.188 4.83894C16.1879 5.13069 16.4244 5.36715 16.7161 5.36715Z" fill="#FEE55A"/>
<path d="M18.2838 29.6323H16.7156C16.424 29.6323 16.1875 29.8688 16.1875 30.1605C16.1875 30.4522 16.424 30.6886 16.7156 30.6886H16.9716V32.5753C16.9716 32.867 17.208 33.1034 17.4997 33.1034C17.7914 33.1034 18.0279 32.867 18.0279 32.5753V30.6886H18.2838C18.5755 30.6886 18.812 30.4522 18.812 30.1605C18.812 29.8688 18.5755 29.6323 18.2838 29.6323Z" fill="#FEE55A"/>
<path d="M4.31097 18.2838C4.31097 18.5755 4.54742 18.812 4.83911 18.812C5.1308 18.812 5.36726 18.5755 5.36726 18.2838V16.7156C5.36726 16.424 5.1308 16.1875 4.83911 16.1875C4.54742 16.1875 4.31097 16.424 4.31097 16.7156V16.9716H2.4345C2.42842 17.147 2.42432 17.3229 2.42432 17.4997C2.42432 17.6766 2.42849 17.8525 2.4345 18.0279H4.31097V18.2838Z" fill="#FEE55A"/>
<path d="M6.09562 15.085C6.13999 15.0965 6.18449 15.102 6.22831 15.102C6.46326 15.102 6.67763 14.944 6.73929 14.706C7.45789 11.9301 9.28329 9.4814 11.7475 7.98781C11.9969 7.8366 12.0766 7.51183 11.9254 7.26231C11.7742 7.01287 11.4495 6.93316 11.1999 7.08438C8.46257 8.74359 6.51521 11.3564 5.71671 14.4413C5.64356 14.7237 5.81323 15.0119 6.09562 15.085Z" fill="#FEE55A"/>
<path d="M22.892 6.58566C22.6305 6.45632 22.3137 6.56331 22.1843 6.82471C22.0549 7.08612 22.162 7.40297 22.4234 7.53237C25.3246 8.96839 27.4522 11.5831 28.2606 14.706C28.3222 14.944 28.5366 15.1019 28.7715 15.1019C28.8153 15.1019 28.8598 15.0965 28.9043 15.085C29.1866 15.0119 29.3563 14.7237 29.2832 14.4413C28.3979 11.021 26.0684 8.15779 22.892 6.58566Z" fill="#FEE55A"/>
<path d="M28.9043 19.9145C28.6219 19.8413 28.3337 20.011 28.2606 20.2934C27.4522 23.4164 25.3246 26.0311 22.4234 27.4671C22.162 27.5965 22.0549 27.9133 22.1843 28.1747C22.2765 28.3609 22.4636 28.4687 22.6581 28.4687C22.7368 28.4687 22.8167 28.451 22.892 28.4138C26.0684 26.8416 28.398 23.9784 29.2833 20.5581C29.3563 20.2757 29.1866 19.9875 28.9043 19.9145Z" fill="#FEE55A"/>
<path d="M11.7472 27.0115C9.24696 25.4959 7.46846 23.11 6.73934 20.2934C6.66619 20.011 6.37806 19.8414 6.09566 19.9144C5.81327 19.9875 5.6436 20.2757 5.71668 20.5581C6.51518 23.6429 8.4624 26.2556 11.1996 27.9148C11.2852 27.9667 11.3796 27.9914 11.4728 27.9914C11.6514 27.9914 11.8256 27.9008 11.925 27.7369C12.0763 27.4876 11.9966 27.1627 11.7472 27.0115Z" fill="#FEE55A"/>
</svg>
