<svg width="44" height="44" viewBox="0 0 44 44" fill="none" xmlns="http://www.w3.org/2000/svg">
<path d="M22 44C34.1503 44 44 34.1503 44 22C44 9.84974 34.1503 0 22 0C9.84974 0 0 9.84974 0 22C0 34.1503 9.84974 44 22 44Z" fill="#FD9468"/>
<path d="M32.9161 2.89551C35.1933 6.36034 36.5194 10.506 36.5194 14.962C36.5194 27.1123 26.6697 36.962 14.5194 36.962C10.5468 36.962 6.82041 35.9087 3.60352 34.0667C7.53559 40.0494 14.306 44.0002 22.0002 44.0002C34.1505 44.0002 44.0002 34.1505 44.0002 22.0002C44.0002 13.8225 39.5381 6.68733 32.9161 2.89551Z" fill="#FE7D43"/>
<path d="M22 41.1568C32.58 41.1568 41.1568 32.58 41.1568 22C41.1568 11.42 32.58 2.84326 22 2.84326C11.42 2.84326 2.84326 11.42 2.84326 22C2.84326 32.58 11.42 41.1568 22 41.1568Z" fill="#FFDCCE"/>
<path d="M22.2503 16.1208L26.0957 19.9668C26.234 20.1052 26.4583 20.1052 26.5965 19.9668L28.6234 17.9396C28.7617 17.8013 28.7617 17.5771 28.6234 17.4388L22.2503 11.0642C22.112 10.9259 21.8877 10.9259 21.7494 11.0642L15.3786 17.4365C15.2403 17.5748 15.2403 17.799 15.3786 17.9372L17.4054 19.9645C17.5437 20.1029 17.768 20.1029 17.9063 19.9645L21.7494 16.1208C21.8879 15.9824 22.1121 15.9824 22.2503 16.1208Z" fill="#FD9468"/>
<path d="M13.093 19.7223L11.0661 21.7497C10.9278 21.888 10.9278 22.1122 11.0661 22.2505L13.0929 24.2777C13.2311 24.4161 13.4554 24.4161 13.5937 24.2777L15.6206 22.2504C15.7589 22.1121 15.7589 21.8879 15.6206 21.7496L13.5938 19.7224C13.4556 19.5841 13.2314 19.5841 13.093 19.7223Z" fill="#FD9468"/>
<path d="M22.2502 32.9361L28.6244 26.5604C28.7627 26.422 28.7627 26.1977 28.6243 26.0594L26.5963 24.0333C26.458 23.8951 26.2338 23.8952 26.0956 24.0334L22.2502 27.8794C22.1119 28.0178 21.8876 28.0178 21.7494 27.8794L17.9059 24.0353C17.7677 23.8972 17.5438 23.897 17.4054 24.035L15.3756 26.0596C15.2369 26.1979 15.2368 26.4223 15.3752 26.5607L21.7494 32.936C21.8877 33.0743 22.1119 33.0743 22.2502 32.9361Z" fill="#FD9468"/>
<path d="M30.4065 19.7233L28.3796 21.7507C28.2413 21.889 28.2413 22.1132 28.3796 22.2514L30.4064 24.2787C30.5447 24.4171 30.769 24.4171 30.9073 24.2787L32.9342 22.2514C33.0725 22.1131 33.0725 21.8889 32.9342 21.7506L30.9073 19.7233C30.769 19.5851 30.5448 19.5851 30.4065 19.7233Z" fill="#FD9468"/>
<path d="M24.3158 21.7496L22.2505 19.6838C22.1122 19.5455 21.8879 19.5455 21.7496 19.6838L19.6843 21.7496C19.546 21.8879 19.546 22.1121 19.6843 22.2504L21.7496 24.3163C21.8879 24.4547 22.1122 24.4547 22.2505 24.3163L24.3158 22.2504C24.4541 22.112 24.4541 21.8879 24.3158 21.7496Z" fill="#FD9468"/>
<path d="M35.5378 8.44629C36.1753 10.5052 36.519 12.6932 36.519 14.9616C36.519 27.1119 26.6692 36.9616 14.519 36.9616C12.7188 36.9616 10.9696 36.7438 9.29492 36.3359C12.6762 39.3347 17.1249 41.1567 21.9999 41.1567C32.5799 41.1567 41.1567 32.5799 41.1567 21.9999C41.1566 16.7059 39.0091 11.9135 35.5378 8.44629Z" fill="#FFD1BE"/>
</svg>
