<svg width="41" height="41" viewBox="0 0 41 41" fill="none" xmlns="http://www.w3.org/2000/svg">
<path d="M20.5 41C31.8218 41 41 31.8218 41 20.5C41 9.17816 31.8218 0 20.5 0C9.17816 0 0 9.17816 0 20.5C0 31.8218 9.17816 41 20.5 41Z" fill="black"/>
<path d="M29.3812 2.01855C31.7873 5.37799 33.2041 9.49417 33.2041 13.9416C33.2041 25.2635 24.0259 34.4416 12.7041 34.4416C9.52223 34.4416 6.50978 33.7167 3.82275 32.423C7.5419 37.6158 13.6254 40.9999 20.4999 40.9999C31.8218 40.9999 40.9999 31.8218 40.9999 20.4999C40.9999 12.3599 36.2556 5.3281 29.3812 2.01855Z" fill="black"/>
<path d="M20.5 38.3506C30.3587 38.3506 38.3506 30.3587 38.3506 20.5C38.3506 10.6414 30.3587 2.64941 20.5 2.64941C10.6414 2.64941 2.64941 10.6414 2.64941 20.5C2.64941 30.3587 10.6414 38.3506 20.5 38.3506Z" fill="#EAF6FF"/>
<path d="M31.9167 6.77783C32.7486 9.00801 33.2044 11.4214 33.2044 13.9416C33.2044 25.2635 24.0263 34.4416 12.7044 34.4416C11.4156 34.4416 10.155 34.3214 8.93213 34.0939C12.0479 36.7479 16.0866 38.3506 20.5002 38.3506C30.3589 38.3506 38.3508 30.3585 38.3508 20.4999C38.3508 14.9836 35.8481 10.0522 31.9167 6.77783Z" fill="#D8ECFE"/>
<path d="M20.2598 9.78895L14.5024 19.0738C14.4329 19.1859 14.4668 19.3331 14.5783 19.4034L20.4516 23.1129C20.5308 23.163 20.632 23.1623 20.7106 23.1113L26.4245 19.4051C26.5346 19.3336 26.567 19.187 26.4972 19.0758L20.6675 9.78775C20.573 9.63729 20.3535 9.63793 20.2598 9.78895Z" fill="black"/>
<path d="M20.6633 26.3252L25.7099 23.1864C25.9287 23.0504 26.1791 23.3073 26.0374 23.5225L20.9527 31.2462C20.86 31.387 20.6549 31.3911 20.5568 31.2541L15.0547 23.5767C14.902 23.3636 15.1524 23.0948 15.3757 23.2321L20.4106 26.3258C20.4882 26.3735 20.586 26.3733 20.6633 26.3252Z" fill="black"/>
</svg>
