<svg width="42" height="42" viewBox="0 0 42 42" fill="none" xmlns="http://www.w3.org/2000/svg">
<path d="M21 42C32.598 42 42 32.598 42 21C42 9.40202 32.598 0 21 0C9.40202 0 0 9.40202 0 21C0 32.598 9.40202 42 21 42Z" fill="#8AC9FE"/>
<path d="M31.4197 2.76367C33.5933 6.07101 34.8591 10.0282 34.8591 14.2817C34.8591 25.8797 25.4571 35.2817 13.8591 35.2817C10.0672 35.2817 6.51013 34.2762 3.43945 32.518C7.19279 38.2287 13.6555 42 21 42C32.598 42 42 32.598 42 21C42 13.1939 37.7407 6.38314 31.4197 2.76367Z" fill="#60B7FF"/>
<path d="M20.9999 39.2859C31.0989 39.2859 39.2859 31.0989 39.2859 20.9999C39.2859 10.9008 31.0989 2.71387 20.9999 2.71387C10.9008 2.71387 2.71387 10.9008 2.71387 20.9999C2.71387 31.0989 10.9008 39.2859 20.9999 39.2859Z" fill="#EAF6FF"/>
<path d="M21 31.2331C20.7758 31.2331 20.5516 31.1767 20.3494 31.0638L12.3795 26.6147C11.9571 26.3789 11.6953 25.933 11.6953 25.4493V16.5509C11.6953 16.0672 11.9571 15.6213 12.3795 15.3855L20.3494 10.9364C20.7538 10.7107 21.2461 10.7107 21.6505 10.9364L29.6204 15.3855C30.0428 15.6213 30.3046 16.0672 30.3046 16.5509V25.4493C30.3046 25.933 30.0428 26.3789 29.6204 26.6147L21.6505 31.0638C21.4483 31.1767 21.2241 31.2331 21 31.2331ZM14.7165 24.862L20.6655 28.183C20.8734 28.299 21.1265 28.299 21.3344 28.183L27.2834 24.862C27.5005 24.7408 27.635 24.5116 27.635 24.2629V17.7372C27.635 17.4886 27.5005 17.2593 27.2834 17.1381L21.3344 13.8172C21.1265 13.7011 20.8734 13.7011 20.6655 13.8172L14.7165 17.1381C14.4994 17.2594 14.3649 17.4886 14.3649 17.7372V24.2629C14.3648 24.5116 14.4994 24.7409 14.7165 24.862Z" fill="#60B7FF"/>
<path d="M33.9226 8.0625C34.5311 10.0278 34.8592 12.1164 34.8592 14.2817C34.8592 25.8797 25.4571 35.2817 13.8592 35.2817C12.1408 35.2817 10.4711 35.0737 8.87256 34.6844C12.1002 37.5469 16.3467 39.2861 21.0001 39.2861C31.0992 39.2861 39.2861 31.0991 39.2861 21.0001C39.286 15.9467 37.2361 11.3721 33.9226 8.0625Z" fill="#D8ECFE"/>
</svg>
