<svg width="41" height="41" viewBox="0 0 41 41" fill="none" xmlns="http://www.w3.org/2000/svg">
<path d="M20.5 41C31.8218 41 41 31.8218 41 20.5C41 9.17816 31.8218 0 20.5 0C9.17816 0 0 9.17816 0 20.5C0 31.8218 9.17816 41 20.5 41Z" fill="#FEE55A"/>
<path d="M3.13482 20.5C3.13482 9.70555 11.4779 0.859799 22.0674 0.0591777C21.5501 0.0200195 21.0274 0 20.5 0C9.17815 0 0 9.17815 0 20.5C0 31.8218 9.17815 41 20.5 41C21.0274 41 21.5501 40.98 22.0674 40.9408C11.4779 40.1402 3.13482 31.2945 3.13482 20.5Z" fill="#FFD301"/>
<path d="M20.4999 38.1599C30.2532 38.1599 38.1599 30.2532 38.1599 20.4999C38.1599 10.7465 30.2532 2.83984 20.4999 2.83984C10.7465 2.83984 2.83984 10.7465 2.83984 20.4999C2.83984 30.2532 10.7465 38.1599 20.4999 38.1599Z" fill="#FFD301"/>
<path d="M6.67679 20.4999C6.67679 11.3948 13.5675 3.90024 22.4183 2.94395C21.7881 2.87588 21.1482 2.83984 20.4999 2.83984C10.7465 2.83984 2.83984 10.7465 2.83984 20.4999C2.83984 30.2532 10.7465 38.1599 20.4999 38.1599C21.1483 38.1599 21.7881 38.1239 22.4183 38.0558C13.5675 37.0995 6.67679 29.6049 6.67679 20.4999Z" fill="#FFC20C"/>
<path d="M28.7538 24.1706C28.7596 22.4628 27.8956 20.9528 26.5804 20.0591C26.4686 19.9831 26.4418 19.8309 26.5206 19.721C27.1019 18.9103 27.4452 17.9181 27.4452 16.8466C27.4452 14.5231 25.835 12.5688 23.6718 12.0406C23.5656 12.0147 23.492 11.9177 23.492 11.8083V9.82192C23.492 9.12556 22.9569 8.52642 22.2613 8.49366C21.5187 8.45867 20.9056 9.05045 20.9056 9.7854V11.6598C20.9056 11.7926 20.798 11.9001 20.6654 11.9001H18.9476C18.8149 11.9001 18.7072 11.7926 18.7072 11.6598V9.82192C18.7072 9.12556 18.1722 8.52642 17.4766 8.49366C16.734 8.45867 16.1209 9.05045 16.1209 9.7854V11.6598C16.1209 11.7926 16.0133 11.9001 15.8806 11.9001H14.2472C13.5509 11.9001 12.9517 12.4353 12.919 13.1307C12.884 13.8734 13.4757 14.4865 14.2107 14.4865H14.6948C14.8275 14.4865 14.9351 14.594 14.9351 14.7268V26.2731C14.9351 26.4058 14.8275 26.5134 14.6948 26.5134H14.2473C13.5509 26.5134 12.9518 27.0485 12.919 27.744C12.884 28.4867 13.4758 29.0998 14.2108 29.0998H15.8807C16.0134 29.0998 16.121 29.2073 16.121 29.3401V31.178C16.121 31.8743 16.656 32.4735 17.3516 32.5062C18.0942 32.5412 18.7073 31.9494 18.7073 31.2145V29.34C18.7073 29.2072 18.8149 29.0997 18.9476 29.0997H20.6655C20.7982 29.0997 20.9057 29.2072 20.9057 29.34V31.1779C20.9057 31.8742 21.4408 32.4734 22.1363 32.5061C22.879 32.5411 23.4921 31.9493 23.4921 31.2144V29.3399C23.4921 29.2072 23.5997 29.0996 23.7323 29.0996C26.4696 29.0998 28.7443 26.908 28.7538 24.1706ZM17.5213 14.8416C17.5213 14.6455 17.6802 14.4866 17.8764 14.4866H22.4485C23.7327 14.4866 24.8196 15.4915 24.8577 16.7753C24.8973 18.109 23.8238 19.2068 22.4987 19.2068H17.8764C17.6802 19.2068 17.5213 19.0478 17.5213 18.8517V14.8416ZM26.1664 24.2247C26.1282 25.5083 25.0413 26.5133 23.7571 26.5133H17.8764C17.6802 26.5133 17.5213 26.3544 17.5213 26.1583V22.1481C17.5213 21.9521 17.6802 21.793 17.8764 21.793H23.8073C25.1325 21.7931 26.2059 22.8908 26.1664 24.2247Z" fill="#E49824"/>
<path d="M22.4886 11.6598V9.7854C22.4886 9.3722 22.6825 9.00424 22.9841 8.76745C22.783 8.60793 22.535 8.50648 22.2615 8.49366C21.5188 8.45867 20.9058 9.05045 20.9058 9.7854V11.6598C20.9058 11.7926 20.7981 11.9001 20.6655 11.9001H22.2484C22.381 11.9001 22.4886 11.7926 22.4886 11.6598Z" fill="#DF751C"/>
<path d="M14.5019 27.7442C14.5346 27.0487 15.1338 26.5136 15.8301 26.5136H16.2776C16.4103 26.5136 16.5179 26.4061 16.5179 26.2733V14.7271C16.5179 14.5944 16.4103 14.4868 16.2776 14.4868H15.7935C15.0586 14.4868 14.4668 13.8737 14.5018 13.131C14.5345 12.4355 15.1337 11.9004 15.83 11.9004H14.2472C13.5509 11.9004 12.9517 12.4356 12.919 13.131C12.884 13.8737 13.4757 14.4868 14.2107 14.4868H14.6948C14.8275 14.4868 14.9351 14.5943 14.9351 14.7271V26.2734C14.9351 26.4061 14.8275 26.5137 14.6948 26.5137H14.2473C13.5509 26.5137 12.9518 27.0488 12.919 27.7443C12.884 28.487 13.4758 29.1 14.2108 29.1H15.7936C15.0586 29.1 14.4669 28.4869 14.5019 27.7442Z" fill="#DF751C"/>
<path d="M17.7039 11.6598V9.7854C17.7039 9.3722 17.8978 9.00424 18.1994 8.76745C17.9983 8.60793 17.7504 8.50648 17.4768 8.49366C16.7342 8.45867 16.1211 9.05045 16.1211 9.7854V11.6598C16.1211 11.7926 16.0135 11.9001 15.8809 11.9001H17.4637C17.5964 11.9001 17.7039 11.7926 17.7039 11.6598Z" fill="#DF751C"/>
<path d="M22.4886 31.1778V29.3399C22.4886 29.2072 22.381 29.0996 22.2484 29.0996H20.6655C20.7982 29.0996 20.9058 29.2072 20.9058 29.3399V31.1778C20.9058 31.8742 21.4408 32.4733 22.1364 32.5061C22.4615 32.5214 22.7617 32.4166 22.9966 32.2323C22.6864 31.9861 22.4886 31.6003 22.4886 31.1778Z" fill="#DF751C"/>
<path d="M17.704 31.1778V29.3399C17.704 29.2072 17.5965 29.0996 17.4637 29.0996H15.8809C16.0135 29.0996 16.1211 29.2072 16.1211 29.3399V31.1778C16.1211 31.8742 16.6562 32.4733 17.3517 32.5061C17.6769 32.5214 17.9771 32.4166 18.2119 32.2323C17.9018 31.9861 17.704 31.6003 17.704 31.1778Z" fill="#DF751C"/>
<path d="M38.1598 19.8814H35.9498V19.5816C35.9498 19.2399 35.6728 18.9629 35.3311 18.9629C34.9894 18.9629 34.7124 19.2399 34.7124 19.5816V21.4186C34.7124 21.7603 34.9894 22.0373 35.3311 22.0373C35.6728 22.0373 35.9498 21.7603 35.9498 21.4186V21.1188H38.1598C38.5015 21.1188 38.7785 20.8418 38.7785 20.5001C38.7785 20.1584 38.5015 19.8814 38.1598 19.8814Z" fill="#FEE55A"/>
<path d="M19.5815 6.2874H21.4186C21.7603 6.2874 22.0373 6.01041 22.0373 5.66872C22.0373 5.32702 21.7603 5.05003 21.4186 5.05003H21.1188V2.83987C21.1188 2.49818 20.8418 2.22119 20.5001 2.22119C20.1584 2.22119 19.8814 2.49818 19.8814 2.83987V5.04995H19.5816C19.2399 5.04995 18.9629 5.32694 18.9629 5.66863C18.9627 6.01041 19.2398 6.2874 19.5815 6.2874Z" fill="#FEE55A"/>
<path d="M21.4186 34.7124H19.5816C19.2399 34.7124 18.9629 34.9894 18.9629 35.3311C18.9629 35.6728 19.2399 35.9498 19.5816 35.9498H19.8814V38.1598C19.8814 38.5015 20.1584 38.7785 20.5001 38.7785C20.8418 38.7785 21.1188 38.5015 21.1188 38.1598V35.9498H21.4186C21.7603 35.9498 22.0372 35.6728 22.0372 35.3311C22.0373 34.9894 21.7603 34.7124 21.4186 34.7124Z" fill="#FEE55A"/>
<path d="M5.04992 21.4186C5.04992 21.7603 5.32691 22.0372 5.6686 22.0372C6.0103 22.0372 6.28729 21.7603 6.28729 21.4186V19.5816C6.28729 19.2399 6.0103 18.9629 5.6686 18.9629C5.32691 18.9629 5.04992 19.2399 5.04992 19.5816V19.8814H2.85178C2.84465 20.0869 2.83984 20.2929 2.83984 20.5001C2.83984 20.7072 2.84473 20.9133 2.85178 21.1188H5.04992V21.4186Z" fill="#FEE55A"/>
<path d="M7.14054 17.6713C7.19251 17.6848 7.24465 17.6912 7.29598 17.6912C7.5712 17.6912 7.82233 17.5061 7.89456 17.2274C8.73634 13.9756 10.8747 11.1071 13.7613 9.35747C14.0535 9.18034 14.1468 8.79989 13.9697 8.5076C13.7926 8.2154 13.4122 8.12203 13.1199 8.29916C9.91325 10.2428 7.63206 13.3035 6.69667 16.9173C6.61099 17.2481 6.80974 17.5857 7.14054 17.6713Z" fill="#FEE55A"/>
<path d="M26.8162 7.71519C26.5099 7.56368 26.1388 7.689 25.9872 7.99522C25.8356 8.30144 25.961 8.6726 26.2672 8.82419C29.6658 10.5064 32.1582 13.5693 33.1051 17.2276C33.1773 17.5064 33.4285 17.6914 33.7036 17.6914C33.7549 17.6914 33.8071 17.685 33.8591 17.6715C34.1899 17.5859 34.3887 17.2483 34.3031 16.9175C33.266 12.9109 30.5372 9.55683 26.8162 7.71519Z" fill="#FEE55A"/>
<path d="M33.8591 23.3285C33.5284 23.2428 33.1907 23.4416 33.1051 23.7725C32.1582 27.4308 29.6658 30.4937 26.2672 32.1759C25.961 32.3274 25.8356 32.6986 25.9872 33.0048C26.0951 33.2229 26.3143 33.3492 26.5422 33.3492C26.6344 33.3492 26.728 33.3285 26.8162 33.2849C30.5372 31.4431 33.2661 28.0891 34.3031 24.0825C34.3887 23.7517 34.1899 23.4141 33.8591 23.3285Z" fill="#FEE55A"/>
<path d="M13.761 31.6422C10.8321 29.8668 8.74872 27.0719 7.89461 23.7724C7.80892 23.4416 7.47139 23.2429 7.14059 23.3285C6.80979 23.4141 6.61104 23.7517 6.69664 24.0825C7.63203 27.6961 9.91306 30.7567 13.1195 32.7003C13.2197 32.7611 13.3303 32.79 13.4395 32.79C13.6488 32.79 13.8528 32.6839 13.9693 32.492C14.1465 32.1998 14.0532 31.8193 13.761 31.6422Z" fill="#FEE55A"/>
</svg>
