<svg width="151" height="44" viewBox="0 0 151 44" fill="none" xmlns="http://www.w3.org/2000/svg">
<path d="M87.5998 28.5226C87.6548 28.5073 87.7134 28.5114 87.7657 28.5344C87.818 28.5574 87.8607 28.5978 87.8866 28.6487L89.0562 30.199C89.6076 30.9408 90.1639 31.6653 90.7128 32.3997C91.2617 33.1341 91.7933 33.8585 92.3349 34.5855C92.5994 34.9415 92.8739 35.2877 93.1385 35.6438C93.1728 35.6984 93.2207 35.7432 93.2774 35.774C93.3342 35.8047 93.3978 35.8203 93.4624 35.8193C94.3303 35.8193 95.1932 35.8193 96.0636 35.8193C96.1155 35.8193 96.1748 35.8193 96.207 35.7377C96.1699 35.6784 96.1279 35.6067 96.0784 35.5399L94.5726 33.594C94.2759 33.2082 93.9841 32.82 93.6849 32.4368L92.273 30.6219C91.9417 30.1941 91.6178 29.7614 91.284 29.3336C90.6708 28.5399 90.0477 27.7487 89.4419 26.9525C89.3702 26.861 89.3108 26.7596 89.2441 26.6583C89.3306 26.5371 89.4023 26.4308 89.4913 26.3294L91.3928 23.8691C92.1197 22.9295 92.8459 21.9908 93.5712 21.0528C94.313 20.0885 95.0696 19.1266 95.8138 18.1598C95.8682 18.0881 95.9523 18.0214 95.935 17.9126C95.915 17.9009 95.8933 17.8925 95.8707 17.8879H93.2695C93.2161 17.8851 93.1629 17.8967 93.1155 17.9215C93.0681 17.9463 93.0282 17.9834 93 18.0288C92.8467 18.239 92.686 18.4442 92.5277 18.6494C92.1791 19.0821 91.8329 19.5346 91.4867 19.9698C91.0689 20.5212 90.6559 21.0751 90.2504 21.6265C89.6125 22.4705 88.9713 23.312 88.3267 24.151C88.1649 24.386 87.9864 24.6092 87.7926 24.8186C87.622 24.8384 87.5726 24.7148 87.5034 24.6233C86.8704 23.7752 86.2398 22.9246 85.6044 22.079L83.4408 19.2082C83.1614 18.8373 82.8771 18.4665 82.6051 18.0931C82.5592 18.021 82.4949 17.9626 82.4188 17.9239C82.3427 17.8852 82.2576 17.8676 82.1724 17.873C81.3366 17.873 80.5034 17.873 79.6676 17.873C79.6206 17.873 79.5712 17.873 79.4846 17.8928C79.5638 18.014 79.6182 18.1054 79.6824 18.1895C79.8407 18.4071 80.0064 18.6198 80.177 18.8349C80.6937 19.5124 81.2155 20.1874 81.7322 20.8649C82.1056 21.3594 82.474 21.8539 82.8474 22.3361C83.2208 22.8183 83.5595 23.2584 83.9156 23.7208L85.686 26.0376L86.0396 26.5C86.0839 26.5487 86.1084 26.6122 86.1084 26.678C86.1084 26.7439 86.0839 26.8074 86.0396 26.8561L85.9802 26.9327C85.6934 27.311 85.409 27.6918 85.1197 28.0676L83.2455 30.5081C82.2317 31.8269 81.2188 33.1456 80.2066 34.4643C79.9322 34.8229 79.6503 35.1789 79.3758 35.5399C79.3239 35.6091 79.23 35.6734 79.2769 35.7995C79.3338 35.7995 79.3857 35.7995 79.4401 35.7995H81.9424C81.986 35.8014 82.0293 35.7924 82.0686 35.7734C82.1078 35.7544 82.1418 35.726 82.1674 35.6907C82.2045 35.6388 82.2515 35.5918 82.2911 35.5424C82.7287 34.9663 83.1664 34.3926 83.6015 33.8116L86.0222 30.5971C86.3536 30.157 86.68 29.7144 87.0113 29.2743C87.1967 29.0344 87.4044 28.7723 87.5998 28.5226Z" fill="#009506"/>
<path d="M109.488 18.0313C109.349 17.9886 109.202 17.9743 109.058 17.9893H104.31C104.204 17.9893 104.095 17.9893 103.986 17.9893C103.921 17.9774 103.856 17.9609 103.793 17.9398C103.781 17.8521 103.774 17.7637 103.771 17.6752C103.771 17.0472 103.771 16.4191 103.771 15.7911C103.767 15.6933 103.775 15.5954 103.793 15.4993C103.882 15.1655 103.915 14.8169 104.041 14.493C104.32 13.7512 104.782 13.1429 105.537 12.8388C105.73 12.7434 105.938 12.6807 106.152 12.6533C106.324 12.6397 106.495 12.6149 106.664 12.5792C106.834 12.5446 107.009 12.5396 107.181 12.5643C107.46 12.5989 107.74 12.6237 108.019 12.6583C108.114 12.6733 108.208 12.6931 108.301 12.7176C108.35 12.7393 108.402 12.7567 108.454 12.7696C108.764 12.811 109.069 12.8788 109.367 12.9723C109.425 12.9793 109.484 12.9793 109.542 12.9723C109.542 12.8512 109.56 12.7448 109.56 12.6385V11.1253C109.563 11.0602 109.563 10.995 109.56 10.9299C109.562 10.8642 109.54 10.7999 109.498 10.7498C109.455 10.6998 109.395 10.6679 109.33 10.6604C109.117 10.583 108.896 10.53 108.672 10.5022C108.628 10.5024 108.585 10.4895 108.548 10.4651C108.452 10.4147 108.343 10.3917 108.234 10.3983C108.019 10.3835 107.804 10.3637 107.589 10.3439C107.426 10.3291 107.267 10.3019 107.094 10.2969C106.835 10.2969 106.575 10.2969 106.315 10.2969C106.229 10.2845 106.142 10.2845 106.056 10.2969C105.682 10.4107 105.277 10.3291 104.913 10.4997C104.585 10.5557 104.267 10.6625 103.971 10.8162C103.076 11.2155 102.348 11.9152 101.914 12.7943C101.735 13.1365 101.594 13.4971 101.494 13.8699C101.419 14.1293 101.357 14.3926 101.311 14.6586C101.212 15.2575 101.17 15.8643 101.185 16.4711C101.2 16.7727 101.185 17.0769 101.185 17.381C101.185 17.836 101.185 17.836 100.742 17.8384H99.1177C99.0028 17.8211 98.8855 17.833 98.7764 17.873C98.7181 17.9565 98.6942 18.0592 98.7097 18.1599C98.7097 18.6915 98.7097 19.2231 98.7097 19.7522C98.7097 20.0564 98.7443 20.0885 99.0484 20.0885C99.58 20.0885 100.109 20.0885 100.641 20.0885H100.9C101.148 20.0885 101.175 20.138 101.185 20.3828C101.185 20.4916 101.185 20.6004 101.185 20.7091V35.2037C101.185 35.3224 101.185 35.4509 101.185 35.5622C101.192 35.6246 101.203 35.6865 101.217 35.7476C101.262 35.7629 101.308 35.7728 101.355 35.7773H103.603C103.659 35.7684 103.713 35.7509 103.764 35.7254C103.764 35.5746 103.764 35.4361 103.764 35.2952C103.764 30.3895 103.764 25.4821 103.764 20.5732C103.764 20.0786 103.764 20.0786 104.258 20.0786H109.003C109.1 20.0786 109.199 20.0786 109.295 20.0786C109.355 20.0698 109.415 20.0566 109.473 20.0391C109.532 19.3713 109.537 18.6999 109.488 18.0313Z" fill="#009506"/>
<path d="M139.684 17.8912C139.638 17.9971 139.621 18.113 139.634 18.2275V19.7531C139.634 20.1488 139.634 20.1488 140.032 20.1537H140.163C140.658 20.1537 141.18 20.1537 141.689 20.1537C141.797 20.1553 141.906 20.1644 142.013 20.1809C142.051 20.1856 142.086 20.204 142.112 20.2326C142.138 20.2612 142.153 20.2981 142.154 20.3367C142.154 20.4554 142.154 20.5839 142.154 20.6952V31.3547C142.154 31.5401 142.154 31.7231 142.154 31.9085C142.148 31.9841 142.155 32.0602 142.174 32.1336C142.285 32.4303 142.277 32.7492 142.376 33.0484C142.462 33.338 142.571 33.62 142.703 33.8916C143.116 34.7227 143.82 35.373 144.681 35.7189C145.113 35.9171 145.577 36.0401 146.051 36.0823C146.134 36.0932 146.217 36.1097 146.298 36.1318C146.844 36.2151 147.399 36.2218 147.947 36.1516C148.14 36.1318 148.33 36.0947 148.523 36.065C148.577 36.0621 148.631 36.0555 148.684 36.0452C148.931 35.9735 149.179 35.9043 149.426 35.8252C149.757 35.7306 150.074 35.5908 150.368 35.4098C150.368 34.7175 150.368 34.035 150.368 33.3526C150.368 33.3155 150.338 33.2809 150.321 33.2363C150.046 33.3427 149.789 33.4515 149.527 33.543C149.324 33.615 149.115 33.6736 148.904 33.7185C148.479 33.7997 148.046 33.8329 147.613 33.8174C147.101 33.8129 146.596 33.6973 146.132 33.4787C145.805 33.3215 145.521 33.0889 145.301 32.8C145.082 32.5111 144.935 32.1742 144.871 31.8171C144.856 31.7528 144.834 31.691 144.824 31.6267C144.8 31.4907 144.767 31.3522 144.755 31.2137C144.743 31.0753 144.755 30.8898 144.755 30.7192V20.5543C144.751 20.4892 144.751 20.424 144.755 20.3589C144.755 20.2303 144.809 20.1784 144.931 20.1661C145.05 20.1599 145.17 20.1599 145.289 20.1661H149.935C150.044 20.1661 150.153 20.1661 150.262 20.1661C150.286 20.1685 150.311 20.1657 150.334 20.158C150.358 20.1503 150.38 20.1378 150.398 20.1213C150.416 20.1048 150.431 20.0846 150.441 20.0621C150.451 20.0396 150.457 20.0152 150.457 19.9905C150.461 19.937 150.461 19.8833 150.457 19.8298C150.457 19.2858 150.457 18.7435 150.457 18.2028C150.464 18.1504 150.461 18.097 150.447 18.046C150.433 17.995 150.408 17.9474 150.375 17.9061C150.274 17.9061 150.158 17.9061 150.039 17.9061H145.094C144.981 17.9276 144.865 17.9064 144.767 17.8467C144.731 17.7268 144.72 17.6004 144.735 17.4758V12.8916C144.746 12.7589 144.735 12.6252 144.703 12.496C144.64 12.4816 144.577 12.4717 144.513 12.4663C143.796 12.4663 143.08 12.4663 142.367 12.4663C142.299 12.4727 142.231 12.486 142.166 12.5059C142.166 12.6468 142.166 12.7754 142.166 12.904V17.1964C142.166 17.3473 142.166 17.5006 142.166 17.6514C142.159 17.7077 142.147 17.7631 142.129 17.8171C142.015 17.8732 141.886 17.893 141.761 17.8739H140.005C139.891 17.8764 139.785 17.8863 139.684 17.8912Z" fill="#009506"/>
<path d="M116.507 35.8062C116.558 35.64 116.575 35.4649 116.556 35.2919V18.3939C116.556 18.2852 116.556 18.1764 116.556 18.0676C116.546 18.0071 116.531 17.9476 116.512 17.8895C116.466 17.8752 116.42 17.8653 116.373 17.8599H114.163C114.113 17.8661 114.064 17.8785 114.017 17.897C113.983 18.0276 113.974 18.1635 113.99 18.2975C113.99 23.9846 113.99 29.6716 113.99 35.3586C113.99 35.4452 113.99 35.5317 113.99 35.6059C113.998 35.6608 114.01 35.7153 114.024 35.7691C114.089 35.7831 114.155 35.793 114.222 35.7987C114.979 35.8136 115.72 35.8284 116.507 35.8062Z" fill="#009506"/>
<path d="M116.676 11.0673C116.582 11.0524 116.532 11.0376 116.478 11.0351C116.423 11.0326 116.305 11.0351 116.218 11.0351H114.111C113.998 11.0351 113.864 11.003 113.775 11.1043C113.765 11.1357 113.758 11.168 113.755 11.2008C113.755 12.025 113.755 12.8492 113.755 13.6734C113.755 13.8638 113.8 13.9009 113.983 13.9207H116.317C116.68 13.9207 116.7 13.9009 116.7 13.5325C116.7 12.8302 116.7 12.128 116.7 11.4258C116.708 11.3071 116.683 11.2008 116.676 11.0673Z" fill="#009506"/>
<path d="M36.4046 35.8119C36.3909 35.7475 36.3818 35.6822 36.3774 35.6165V11.5529C36.4403 11.5313 36.5048 11.5148 36.5703 11.5035C36.6667 11.5035 36.7656 11.5035 36.8621 11.5035H44.5989H45.6077C45.6723 11.5013 45.7369 11.5055 45.8006 11.5159C46.1411 11.5838 46.487 11.6211 46.8342 11.6271C46.8881 11.6294 46.9417 11.6352 46.9949 11.6444C47.3781 11.7137 47.7639 11.7705 48.1397 11.862C48.5156 11.9535 48.9334 12.0499 49.3216 12.1859C49.7593 12.3392 50.1969 12.4851 50.6222 12.6805C51.4723 13.0523 52.277 13.5202 53.0207 14.075C54.6755 15.2922 55.9644 16.9404 56.7469 18.8398C56.9151 19.2478 57.0634 19.6607 57.1969 20.0761C57.3305 20.4915 57.3577 20.8822 57.464 21.2778C57.5901 21.7402 57.548 22.2248 57.6643 22.6896C57.6826 22.7858 57.6884 22.8838 57.6816 22.9814C57.6816 23.4042 57.6816 23.8246 57.6816 24.2474C57.6816 24.3784 57.6593 24.507 57.6469 24.6356C57.6198 24.9051 57.5975 25.1746 57.5579 25.4417C57.5134 25.7508 57.4566 26.0598 57.3947 26.3664C57.3428 26.6137 57.2785 26.861 57.2142 27.1231C57.1747 27.2788 57.1277 27.4346 57.0733 27.5854C56.6375 28.8773 55.9835 30.085 55.1397 31.1559C54.5897 31.8353 53.9716 32.4567 53.2951 33.0104C52.9184 33.316 52.5228 33.5976 52.1107 33.8535C51.7201 34.1008 51.2973 34.2986 50.8744 34.5088C50.385 34.7566 49.8745 34.9601 49.3488 35.1171C49.0451 35.2238 48.7334 35.3065 48.4166 35.3643C48.2337 35.4805 48.0087 35.4286 47.8232 35.5077C47.6361 35.5572 47.4449 35.5903 47.252 35.6066C46.7523 35.7005 46.2467 35.76 45.7388 35.7847C45.34 35.8193 44.9395 35.8292 44.5396 35.8143C42.1873 35.8143 39.8358 35.8143 37.4852 35.8143C37.2379 35.8143 36.9907 35.8143 36.7434 35.8143C36.6494 35.8267 36.5431 35.8168 36.4046 35.8119ZM39.1245 33.3392C39.2679 33.3392 39.3866 33.3541 39.5028 33.3541H45.0292C45.4089 33.3751 45.7896 33.3401 46.1591 33.2502C46.2115 33.2365 46.2658 33.2315 46.3199 33.2354C46.7087 33.2229 47.0947 33.1639 47.4696 33.0598C47.8052 32.9911 48.1357 32.8994 48.4587 32.7854C48.9587 32.6204 49.4456 32.4179 49.9151 32.1796C50.6981 31.7864 51.4188 31.2799 52.0539 30.6762C52.8578 29.9036 53.5131 28.9901 53.9875 27.9811C54.1111 27.719 54.2149 27.447 54.3139 27.175C54.4377 26.8415 54.5401 26.5004 54.6205 26.1538C54.6773 25.9065 54.6971 25.6395 54.7663 25.3897C54.8253 25.1468 54.856 24.8979 54.8578 24.648C54.8454 24.3445 54.8628 24.0406 54.9098 23.7405C54.9196 23.6766 54.9196 23.6116 54.9098 23.5476C54.8974 23.4067 54.8751 23.2682 54.8727 23.1298C54.8923 22.7396 54.8531 22.3487 54.7565 21.9701C54.7444 21.9065 54.7386 21.8419 54.7391 21.7772C54.7344 21.7016 54.7245 21.6265 54.7095 21.5522C54.5684 20.9315 54.3782 20.323 54.1408 19.7324C53.9552 19.2841 53.7336 18.8517 53.4781 18.4392C52.9914 17.6584 52.3838 16.9599 51.678 16.3696C51.5371 16.2509 51.3962 16.1224 51.2503 16.0235C50.7229 15.6136 50.1505 15.2652 49.5442 14.9849C48.9334 14.6927 48.2889 14.4768 47.6254 14.3421C47.5928 14.3401 47.5608 14.3317 47.5314 14.3173C47.3968 14.2466 47.2458 14.2125 47.0938 14.2184C47.0289 14.2194 46.9644 14.2085 46.9034 14.1863C46.7311 14.119 46.5468 14.0879 46.3619 14.0948C46.2648 14.098 46.1677 14.0897 46.0726 14.0701C45.7012 13.9928 45.3216 13.9621 44.9426 13.9786C43.1557 13.9786 41.3672 13.9786 39.577 13.9786C39.4798 13.9737 39.3824 13.9737 39.2852 13.9786C39.2178 13.9908 39.1516 14.009 39.0874 14.033C39.0874 14.1813 39.0726 14.3198 39.0726 14.4608V32.8867C39.0726 32.9733 39.0726 33.0598 39.0726 33.1464C39.0819 33.2122 39.0951 33.2774 39.1122 33.3417L39.1245 33.3392Z" fill="#009506"/>
<path d="M76.7138 27.7935C76.5357 27.7935 76.3849 27.7935 76.2341 27.7935H63.0031C62.872 27.7935 62.7434 27.7935 62.6124 27.7935C62.5904 27.7931 62.5686 27.7973 62.5484 27.8057C62.5281 27.8141 62.5097 27.8265 62.4944 27.8423C62.4791 27.858 62.4672 27.8767 62.4594 27.8973C62.4517 27.9178 62.4482 27.9397 62.4492 27.9616C62.4543 28.101 62.4691 28.2398 62.4937 28.377C62.5189 28.4581 62.5388 28.5407 62.553 28.6243C62.5754 28.879 62.6354 29.129 62.7311 29.3661C62.9957 30.2465 63.4402 31.0624 64.0366 31.7621C64.5842 32.3941 65.258 32.9045 66.0147 33.2605C66.4994 33.4979 67.0157 33.6645 67.5477 33.755C68.1623 33.8875 68.7937 33.9242 69.4195 33.8638C69.8473 33.802 70.2775 33.7525 70.7003 33.666C70.9964 33.6036 71.2861 33.5142 71.5658 33.3989C72.0285 33.2224 72.4717 32.9987 72.8886 32.7313C73.2404 32.5005 73.5774 32.2478 73.8974 31.9747C74.0458 31.8511 74.1843 31.7126 74.3277 31.5816C74.3895 31.5247 74.4587 31.4728 74.5304 31.411C74.8313 31.6074 75.1085 31.8381 75.3563 32.0983C75.6286 32.3179 75.8855 32.5558 76.1253 32.8105C76.0863 32.877 76.0425 32.9407 75.9942 33.0008C75.5466 33.5004 75.055 33.9589 74.5255 34.3707C74.1013 34.6853 73.6532 34.9664 73.1853 35.2114C72.5749 35.5065 71.9373 35.7417 71.2814 35.9136C70.9253 35.9359 70.5915 36.0966 70.2281 36.0817C70.1448 36.076 70.0612 36.0844 69.9808 36.1065C69.6754 36.1825 69.3602 36.2108 69.0462 36.1905C68.8385 36.1905 68.6332 36.1905 68.428 36.1905C68.2005 36.1984 67.9729 36.1776 67.7505 36.1287C67.6128 36.0997 67.4731 36.0807 67.3326 36.0718C67.1917 36.075 67.0518 36.048 66.9222 35.9927C66.8835 35.9735 66.8416 35.9617 66.7985 35.9581C66.2888 35.8712 65.7909 35.7252 65.315 35.5229C64.8133 35.326 64.3335 35.0774 63.8833 34.7811C63.6361 34.6229 63.3888 34.4572 63.1712 34.2866C62.3216 33.6147 61.6075 32.7873 61.067 31.8486C60.7896 31.3613 60.553 30.8519 60.3598 30.3255C60.2436 30.0139 60.1966 29.6776 60.0903 29.3611C59.984 29.0447 60.0013 28.6738 59.89 28.3424C59.8656 28.2481 59.8572 28.1503 59.8653 28.0531C59.8653 27.2841 59.8653 26.5152 59.8653 25.7462C59.8762 25.6064 59.8969 25.4676 59.9271 25.3308C59.9271 25.2788 59.9593 25.2269 59.9642 25.1725C60.0227 24.5999 60.1463 24.0358 60.3326 23.4911C60.4754 23.0496 60.6574 22.6218 60.8766 22.2128C61.3151 21.3446 61.8922 20.5537 62.5852 19.8712C63.0983 19.3752 63.6705 18.9442 64.2888 18.5879C64.7844 18.3042 65.3103 18.077 65.8565 17.9104C66.0762 17.8174 66.3088 17.7582 66.5463 17.7349C66.5993 17.7272 66.6514 17.7148 66.7021 17.6978C66.8159 17.6665 66.9315 17.6426 67.0483 17.6261C67.3085 17.6248 67.5673 17.5874 67.8173 17.5148C67.8811 17.5035 67.9463 17.5035 68.0101 17.5148H68.6604C68.8526 17.5046 69.0454 17.5187 69.2341 17.5568C69.4147 17.5941 69.5985 17.6139 69.783 17.6162C69.9133 17.613 70.0429 17.6366 70.1638 17.6854C70.2034 17.7026 70.2449 17.7151 70.2874 17.7225C70.949 17.8296 71.5892 18.0416 72.1839 18.3506C72.815 18.6639 73.3978 19.0661 73.9147 19.5448C74.6728 20.2566 75.2901 21.1046 75.7346 22.0447C76.0165 22.6148 76.2346 23.2143 76.3849 23.8324C76.4517 24.1142 76.5258 24.3961 76.5926 24.6805C76.6099 24.7522 76.605 24.8313 76.6173 24.9055C76.6396 25.0662 76.6693 25.2244 76.694 25.3852C76.7133 25.4664 76.7257 25.5491 76.7311 25.6324C76.741 26.2704 76.7467 26.91 76.7484 27.5512C76.7433 27.6328 76.7317 27.7138 76.7138 27.7935ZM74.0977 25.8723C74.1543 25.7123 74.1543 25.5377 74.0977 25.3777C73.9939 25.0909 74.0557 24.772 73.8999 24.4975C73.9123 24.2502 73.759 24.0673 73.7466 23.8398C73.5839 23.3783 73.3838 22.931 73.1482 22.5021C72.7061 21.7013 72.0734 21.0219 71.3061 20.524C70.8024 20.1875 70.2339 19.9601 69.6371 19.8564C69.6055 19.8531 69.5746 19.8447 69.5456 19.8317C69.3877 19.7569 69.2128 19.7254 69.0387 19.7402C68.7025 19.7402 68.3662 19.7402 68.0299 19.7402C67.7496 19.7077 67.4657 19.7459 67.2041 19.8514C67.1829 19.8566 67.1609 19.8566 67.1398 19.8514C66.9118 19.8636 66.6887 19.9225 66.4845 20.0245C65.8604 20.2615 65.2841 20.6091 64.7834 21.0507C64.1248 21.6298 63.5892 22.3352 63.2083 23.1252C63.0248 23.5277 62.8646 23.9405 62.7286 24.3615C62.6601 24.5662 62.6088 24.7763 62.5753 24.9895C62.5579 25.1289 62.5306 25.2669 62.4937 25.4025C62.4319 25.553 62.4319 25.7218 62.4937 25.8723C62.6376 25.9279 62.7932 25.9466 62.9462 25.9267H73.6749C73.7573 25.9312 73.8398 25.9312 73.9222 25.9267C73.9823 25.9142 74.0411 25.896 74.0977 25.8723Z" fill="#009506"/>
<path d="M123.216 21.1683C122.949 20.5056 122.709 19.8207 122.474 19.121C122.608 19.0542 122.709 18.9899 122.816 18.9504C123.271 18.7797 123.713 18.5819 124.173 18.4262C124.705 18.2481 125.244 18.1072 125.788 17.9687C126.129 17.9206 126.468 17.8521 126.801 17.7635C127.279 17.7635 127.748 17.6547 128.223 17.6324C128.698 17.6102 129.175 17.6324 129.652 17.6324C129.729 17.6286 129.805 17.6336 129.88 17.6473C130.175 17.714 130.477 17.7512 130.78 17.7586C130.855 17.764 130.929 17.7756 131.002 17.7932C131.129 17.8179 131.25 17.8451 131.381 17.8772C131.663 17.9489 131.947 18.0132 132.224 18.0998C132.963 18.3319 133.654 18.6954 134.264 19.1729C135.004 19.7614 135.585 20.5266 135.953 21.3983C136.124 21.8171 136.26 22.2497 136.358 22.6914C136.474 23.1365 136.44 23.5964 136.566 24.0365C136.585 24.1325 136.591 24.2307 136.583 24.3283V35.4774C136.583 35.5738 136.583 35.6702 136.568 35.7815C136.506 35.8011 136.441 35.8143 136.375 35.8211H134.328C134.276 35.8177 134.223 35.8094 134.172 35.7963C134.114 35.6893 134.092 35.5659 134.111 35.4452C134.111 34.8271 134.111 34.2089 134.111 33.5908C134.109 33.494 134.102 33.3973 134.088 33.3015C134.085 33.288 134.079 33.2754 134.071 33.2648C134.062 33.2541 134.051 33.2456 134.039 33.24C134.026 33.2345 134.012 33.232 133.999 33.2328C133.985 33.2336 133.972 33.2376 133.96 33.2446C133.897 33.2858 133.84 33.3348 133.789 33.3905C133.546 33.6795 133.283 33.9514 133.003 34.204C132.495 34.6578 131.931 35.0442 131.324 35.3537C130.824 35.607 130.295 35.7988 129.749 35.9249C129.441 36.0283 129.119 36.0842 128.794 36.0906C128.751 36.0879 128.707 36.0929 128.666 36.1054C128.319 36.1925 127.96 36.2234 127.603 36.1969H127.049C126.974 36.2044 126.899 36.2044 126.824 36.1969C126.539 36.1203 126.24 36.1277 125.958 36.0634C125.472 35.965 124.994 35.8294 124.529 35.6579C124.004 35.46 123.505 35.1967 123.046 34.8741C122.243 34.3197 121.615 33.5477 121.236 32.6487C120.997 32.0806 120.877 31.4698 120.882 30.8536C120.882 30.5395 120.882 30.2255 120.902 29.9115C120.926 29.5553 120.994 29.2033 121.102 28.8631C121.245 28.3648 121.472 27.8948 121.775 27.4735C122.183 26.9005 122.703 26.4153 123.303 26.0468C123.762 25.7647 124.25 25.5326 124.759 25.3545C125.081 25.2407 125.427 25.1913 125.748 25.0924C126.07 24.9935 126.475 24.991 126.831 24.8921C126.912 24.8718 126.995 24.8618 127.078 24.8624C128.152 24.8624 129.222 24.8476 130.293 24.8624C130.701 24.8624 131.106 24.9638 131.529 25.0058C131.85 25.05 132.169 25.1102 132.484 25.1863C132.803 25.237 133.119 25.3114 133.428 25.4089C133.586 25.435 133.743 25.4731 133.895 25.5226C133.911 25.5287 133.928 25.5316 133.944 25.5308C133.961 25.5301 133.977 25.5259 133.992 25.5184C134.007 25.5109 134.02 25.5004 134.031 25.4875C134.042 25.4746 134.049 25.4596 134.054 25.4435C134.077 25.3723 134.09 25.2982 134.093 25.2234C134.098 24.9205 134.076 24.6177 134.029 24.3184C134.029 24.1874 134.009 24.0588 133.989 23.9302C133.97 23.8016 133.945 23.683 133.918 23.5519C133.918 23.5 133.886 23.4481 133.876 23.3961C133.717 22.6189 133.333 21.9054 132.773 21.3439C132.254 20.8367 131.619 20.464 130.923 20.2584C130.412 20.079 129.873 19.9895 129.331 19.9938C129.201 19.995 129.071 19.9801 128.945 19.9493C128.765 19.9135 128.579 19.9135 128.399 19.9493C128.261 19.9779 128.121 19.9945 127.981 19.9987C127.417 19.9963 126.856 20.0653 126.309 20.204C125.934 20.293 125.553 20.3721 125.184 20.4957C124.61 20.6763 124.049 20.8943 123.503 21.1485C123.412 21.1878 123.311 21.1948 123.216 21.1683ZM128.982 26.7045H127.835C127.759 26.6982 127.682 26.7075 127.61 26.7317C127.437 26.7945 127.255 26.8247 127.071 26.8207C127.017 26.8209 126.963 26.8275 126.91 26.8405C126.663 26.9097 126.438 26.9839 126.201 27.0556C125.416 27.2706 124.715 27.72 124.193 28.3439C123.829 28.7759 123.597 29.3039 123.525 29.8645C123.441 30.3899 123.472 30.9275 123.617 31.4396C123.735 31.8322 123.928 32.1983 124.185 32.5176C124.7 33.1395 125.389 33.5933 126.164 33.8207C126.359 33.8825 126.564 33.9122 126.757 33.974C126.943 34.0275 127.135 34.0582 127.328 34.0655C127.501 34.0779 127.672 34.1026 127.845 34.11C128.018 34.1174 128.169 34.11 128.339 34.0976C128.446 34.0826 128.553 34.0735 128.661 34.0704C129.073 34.0755 129.483 34.0188 129.877 33.9023C130.499 33.7629 131.095 33.5268 131.643 33.2026C132.53 32.7166 133.248 31.9701 133.698 31.0637C133.876 30.7432 133.988 30.39 134.026 30.0252C134.03 29.9932 134.038 29.9617 134.049 29.9313C134.116 29.7138 134.147 29.4863 134.138 29.2587V27.8419C134.138 27.7776 134.138 27.7109 134.138 27.6466C134.135 27.5925 134.114 27.5409 134.078 27.4998C134.043 27.4587 133.995 27.4304 133.942 27.4191C133.695 27.3523 133.426 27.2707 133.164 27.204C132.966 27.1545 132.765 27.11 132.563 27.0803C132.27 27.0038 131.97 26.9565 131.668 26.9394C131.646 26.9396 131.624 26.9336 131.606 26.9221C131.414 26.8478 131.208 26.8157 131.002 26.8281C130.852 26.8263 130.701 26.8131 130.552 26.7886C130.266 26.7273 129.973 26.6991 129.68 26.7045C129.437 26.7045 129.21 26.7045 128.982 26.7045Z" fill="#009506"/>
<path d="M87.6014 28.5209C87.4061 28.7682 87.1984 29.0328 86.9981 29.2998C86.6668 29.7399 86.3404 30.1825 86.0091 30.6227L83.5884 33.8371C83.1532 34.4157 82.7155 34.9893 82.2779 35.5679C82.2383 35.6174 82.1913 35.6643 82.1542 35.7163C82.1286 35.7515 82.0946 35.7799 82.0554 35.7989C82.0161 35.8179 81.9728 35.8269 81.9292 35.8251H79.4269C79.3725 35.8251 79.3206 35.8251 79.2637 35.8251C79.2168 35.699 79.3107 35.6347 79.3626 35.5654C79.6371 35.2044 79.919 34.8484 80.1935 34.4898C81.2072 33.1711 82.2202 31.8524 83.2323 30.5336L85.1066 28.0932C85.3959 27.7173 85.6802 27.3365 85.967 26.9582L86.0264 26.8816C86.0707 26.8329 86.0952 26.7694 86.0952 26.7035C86.0952 26.6377 86.0707 26.5742 86.0264 26.5255L85.6728 26.0631L83.9024 23.7364C83.5463 23.274 83.1878 22.8141 82.8342 22.3517C82.4806 21.8894 82.0924 21.3627 81.7191 20.8805C81.2023 20.203 80.6806 19.528 80.1638 18.8505C80.0006 18.6354 79.8349 18.4227 79.6693 18.2051C79.605 18.1211 79.5506 18.0296 79.4714 17.9084C79.558 17.9084 79.6074 17.8886 79.6544 17.8886C80.4902 17.8886 81.3234 17.8886 82.1592 17.8886C82.2444 17.8833 82.3295 17.9008 82.4056 17.9395C82.4817 17.9783 82.5461 18.0367 82.5919 18.1087C82.8639 18.4845 83.1482 18.8505 83.4276 19.2239L85.5912 22.0946C86.2267 22.9402 86.8572 23.7908 87.4902 24.6389C87.5594 24.7304 87.6089 24.854 87.7795 24.8342C87.9732 24.6248 88.1517 24.4017 88.3135 24.1666C88.9597 23.3292 89.601 22.4877 90.2373 21.6421C90.6551 21.0907 91.0681 20.5368 91.4736 19.9854C91.8148 19.5404 92.161 19.0978 92.5022 18.6552C92.6604 18.4499 92.8211 18.2447 92.9744 18.0345C93.0027 17.9891 93.0426 17.952 93.09 17.9273C93.1374 17.9025 93.1905 17.8908 93.244 17.8936H95.8452C95.8678 17.8983 95.8895 17.9066 95.9094 17.9183C95.9268 18.0271 95.8427 18.0939 95.7883 18.1656C95.0465 19.1324 94.2924 20.0942 93.5456 21.0585C92.7989 22.0229 92.0942 22.9353 91.3672 23.8749L89.4658 26.3351C89.3867 26.4365 89.315 26.5428 89.2185 26.664C89.2853 26.7654 89.3446 26.8667 89.4163 26.9582C90.0295 27.7544 90.6527 28.5457 91.2584 29.3394C91.5898 29.7671 91.9137 30.1998 92.2475 30.6276L93.6594 32.4425C93.9585 32.8258 94.2503 33.214 94.547 33.5997L96.0529 35.5456C96.1023 35.6124 96.1444 35.6841 96.1814 35.7435C96.1493 35.8325 96.0899 35.8251 96.038 35.8251C95.1726 35.8251 94.3072 35.8251 93.4368 35.8251C93.3723 35.8261 93.3086 35.8104 93.2519 35.7797C93.1951 35.7489 93.1473 35.7041 93.1129 35.6495C92.8483 35.2934 92.5739 34.9473 92.3093 34.5912C91.7678 33.8643 91.2312 33.1324 90.6873 32.4054C90.1433 31.6785 89.582 30.9392 89.0306 30.2048L87.8611 28.6544C87.8376 28.6075 87.7997 28.5693 87.7531 28.5453C87.7064 28.5213 87.6533 28.5127 87.6014 28.5209Z" fill="#009506"/>
<path d="M109.488 18.0338C109.544 18.7143 109.544 19.3982 109.488 20.0787C109.43 20.0962 109.37 20.1094 109.31 20.1182C109.214 20.1182 109.115 20.1182 109.018 20.1182H104.266C103.771 20.1182 103.771 20.1182 103.771 20.6128C103.771 25.5201 103.771 30.4274 103.771 35.3348C103.771 35.4757 103.771 35.6142 103.771 35.765C103.721 35.7905 103.667 35.8081 103.611 35.8169H101.378C101.331 35.8124 101.284 35.8025 101.239 35.7873C101.225 35.7261 101.214 35.6642 101.207 35.6018C101.207 35.4831 101.207 35.3545 101.207 35.2433V20.7438C101.207 20.635 101.207 20.5262 101.207 20.4174C101.207 20.1702 101.16 20.1331 100.923 20.1232H100.663C100.132 20.1232 99.6025 20.1232 99.0709 20.1232C98.7668 20.1232 98.7346 20.091 98.7321 19.7869C98.7321 19.2578 98.7321 18.7262 98.7321 18.1945C98.7167 18.0939 98.7406 17.9912 98.7989 17.9077C98.9079 17.8676 99.0253 17.8557 99.1401 17.8731H100.765C101.207 17.8731 101.207 17.8731 101.207 17.4157C101.207 17.1115 101.22 16.8074 101.207 16.5057C101.192 15.899 101.234 15.2921 101.333 14.6933C101.38 14.4272 101.441 14.1639 101.516 13.9045C101.617 13.5318 101.758 13.1711 101.937 12.8289C102.371 11.9498 103.098 11.2501 103.994 10.8509C104.29 10.6972 104.607 10.5904 104.936 10.5344C105.299 10.3637 105.705 10.4453 106.078 10.3316C106.164 10.3192 106.252 10.3192 106.338 10.3316C106.598 10.3316 106.857 10.3316 107.117 10.3316C107.28 10.3316 107.438 10.3637 107.611 10.3786C107.826 10.3984 108.042 10.4181 108.257 10.433C108.365 10.4263 108.474 10.4494 108.571 10.4997C108.607 10.5242 108.65 10.5371 108.694 10.5368C108.919 10.5646 109.139 10.6177 109.352 10.6951C109.417 10.7025 109.477 10.7345 109.52 10.7845C109.563 10.8345 109.585 10.8989 109.582 10.9646C109.586 11.0296 109.586 11.0949 109.582 11.1599V12.6435C109.582 12.7498 109.582 12.8561 109.565 12.9773C109.506 12.9843 109.447 12.9843 109.389 12.9773C109.091 12.8838 108.786 12.816 108.477 12.7746C108.424 12.7617 108.373 12.7443 108.323 12.7226C108.231 12.6981 108.136 12.6783 108.042 12.6633C107.762 12.6287 107.483 12.6039 107.203 12.5693C107.032 12.5446 106.857 12.5496 106.687 12.5842C106.518 12.6199 106.347 12.6447 106.175 12.6583C105.961 12.6857 105.753 12.7484 105.559 12.8438C104.793 13.1479 104.343 13.7488 104.063 14.498C103.942 14.8219 103.91 15.1705 103.816 15.5043C103.797 15.6004 103.79 15.6983 103.794 15.7961C103.794 16.4241 103.794 17.0522 103.794 17.6802C103.797 17.7687 103.804 17.8571 103.816 17.9448C103.879 17.9659 103.943 17.9824 104.009 17.9943C104.118 17.9943 104.226 17.9943 104.333 17.9943H109.08C109.217 17.9814 109.356 17.9948 109.488 18.0338Z" fill="#009506"/>
<path d="M139.684 17.8932C139.785 17.8932 139.892 17.8783 139.998 17.8783H141.753C141.879 17.8974 142.008 17.8776 142.122 17.8215C142.139 17.7675 142.152 17.712 142.159 17.6558C142.159 17.505 142.159 17.3517 142.159 17.2008V12.9084C142.159 12.7798 142.159 12.6611 142.159 12.5103C142.224 12.4904 142.291 12.4771 142.359 12.4707C143.075 12.4707 143.79 12.4707 144.505 12.4707C144.57 12.4761 144.633 12.486 144.696 12.5004C144.728 12.6296 144.739 12.7633 144.728 12.896V17.4456C144.712 17.5701 144.723 17.6966 144.76 17.8165C144.858 17.8762 144.974 17.8974 145.087 17.8759H150.032C150.15 17.8759 150.279 17.8759 150.368 17.8759C150.401 17.9171 150.425 17.9648 150.44 18.0158C150.454 18.0668 150.457 18.1202 150.45 18.1726C150.45 18.7133 150.45 19.2556 150.45 19.7996C150.453 19.8531 150.453 19.9068 150.45 19.9603C150.449 19.985 150.444 20.0094 150.434 20.0319C150.424 20.0544 150.409 20.0746 150.391 20.0911C150.372 20.1076 150.351 20.1201 150.327 20.1278C150.304 20.1355 150.279 20.1382 150.254 20.1358C150.146 20.1358 150.037 20.1358 149.928 20.1358H145.282C145.162 20.1297 145.043 20.1297 144.923 20.1358C144.802 20.1358 144.758 20.2001 144.748 20.3287C144.744 20.3938 144.744 20.459 144.748 20.524V30.6964C144.748 30.8596 144.748 31.0228 144.748 31.1909C144.748 31.3591 144.792 31.4679 144.817 31.6039C144.817 31.6681 144.849 31.73 144.864 31.7943C144.927 32.1514 145.075 32.4883 145.294 32.7772C145.513 33.0661 145.798 33.2987 146.125 33.4559C146.595 33.6777 147.108 33.7934 147.628 33.7946C148.061 33.8101 148.494 33.7769 148.919 33.6957C149.13 33.6508 149.339 33.5922 149.542 33.5201C149.804 33.4287 150.061 33.3199 150.336 33.2135C150.353 33.2581 150.383 33.2927 150.383 33.3298C150.383 34.0122 150.383 34.6946 150.383 35.387C150.089 35.568 149.772 35.7078 149.441 35.8024C149.194 35.8815 148.946 35.9507 148.699 36.0224C148.646 36.0327 148.592 36.0393 148.538 36.0422C148.345 36.0719 148.155 36.109 147.962 36.1288C147.414 36.199 146.859 36.1923 146.313 36.109C146.232 36.0869 146.149 36.0704 146.066 36.0595C145.592 36.0173 145.128 35.8943 144.696 35.6961C143.835 35.3502 143.131 34.6999 142.718 33.8688C142.586 33.5971 142.477 33.3151 142.391 33.0256C142.292 32.7264 142.3 32.4075 142.189 32.1108C142.17 32.0374 142.163 31.9613 142.169 31.8857C142.169 31.7003 142.169 31.5173 142.169 31.3319V20.6971C142.169 20.5784 142.169 20.4499 142.169 20.3386C142.168 20.3 142.153 20.2631 142.127 20.2345C142.101 20.2059 142.066 20.1876 142.028 20.1828C141.921 20.1663 141.812 20.1572 141.704 20.1556C141.195 20.1556 140.685 20.1556 140.178 20.1556H140.047C139.652 20.1556 139.652 20.1556 139.649 19.7551V18.2294C139.631 18.1162 139.643 18.0003 139.684 17.8932Z" fill="#009506"/>
<path d="M116.506 35.8066C115.727 35.8288 114.968 35.8066 114.211 35.8066C114.145 35.8008 114.079 35.7909 114.014 35.7769C113.999 35.7232 113.988 35.6687 113.979 35.6137C113.979 35.5272 113.979 35.4406 113.979 35.3665C113.979 29.6794 113.979 23.9924 113.979 18.3054C113.964 18.1702 113.975 18.0335 114.011 17.9023C114.058 17.8839 114.107 17.8715 114.157 17.8652H116.368C116.415 17.8707 116.461 17.8806 116.506 17.8949C116.525 17.953 116.54 18.0125 116.55 18.0729C116.55 18.1817 116.55 18.2905 116.55 18.3993V35.2972C116.571 35.4683 116.555 35.6416 116.506 35.8066Z" fill="#009506"/>
<path d="M116.676 11.0674C116.676 11.2009 116.696 11.3147 116.696 11.4136C116.696 12.1158 116.696 12.818 116.696 13.5203C116.696 13.8887 116.676 13.906 116.313 13.9085H113.989C113.806 13.8936 113.761 13.8565 113.761 13.6612C113.761 12.837 113.761 12.0128 113.761 11.1886C113.764 11.1558 113.771 11.1235 113.781 11.0921C113.877 10.9908 114.004 11.0229 114.117 11.0229H116.214C116.301 11.0229 116.387 11.0229 116.474 11.0229C116.56 11.0229 116.582 11.0526 116.676 11.0674Z" fill="#009506"/>
<path d="M0.000678827 5.11356C-0.0134296 5.98607 0.192583 6.84808 0.599685 7.61993C1.00679 8.39178 1.60185 9.04858 2.32989 9.52966L17.581 19.6056C17.9876 19.8785 18.3203 20.2478 18.5495 20.6805C18.7786 21.1132 18.8972 21.5959 18.8945 22.0855C18.8918 22.5752 18.7679 23.0565 18.534 23.4867C18.3001 23.9169 17.9634 24.2824 17.5538 24.5509L2.60682 34.1941C1.87176 34.668 1.26831 35.3199 0.852478 36.0894C0.436644 36.8588 0.221896 37.7208 0.22816 38.5954V38.8426C0.267722 43.4417 5.82371 45.7215 9.08262 42.4774L27.4567 24.18C27.7325 23.9056 27.9513 23.5795 28.1007 23.2203C28.25 22.8611 28.3269 22.4759 28.3269 22.0869C28.3269 21.6979 28.25 21.3127 28.1007 20.9535C27.9513 20.5943 27.7325 20.2682 27.4567 19.9938L8.84772 1.51836C5.60364 -1.70594 0.0773301 0.539203 0.000678827 5.11356Z" fill="#009506"/>
<path d="M3.98893 15.5674H2.98752C1.97425 15.5674 1.15283 16.3888 1.15283 17.4021V26.6126C1.15283 27.6259 1.97425 28.4473 2.98752 28.4473H3.98893C5.0022 28.4473 5.82362 27.6259 5.82362 26.6126V17.4021C5.82362 16.3888 5.0022 15.5674 3.98893 15.5674Z" fill="#009506"/>
</svg>
