<svg width="14" height="14" viewBox="0 0 14 14" fill="none" xmlns="http://www.w3.org/2000/svg">
<path d="M2.26521 9.90818L3.3568 9.02029L4.45873 8.12399C4.50045 8.09006 4.53699 8.03119 4.54707 7.95468L5.04279 8.01998L4.54707 7.95468C4.55717 7.87798 4.53771 7.80407 4.50073 7.75059C4.46455 7.69828 4.4192 7.67483 4.38185 7.66905C4.34547 7.66341 4.30332 7.67215 4.26329 7.70471L1.5106 9.94372C1.48708 9.96348 1.46486 9.99148 1.44836 10.0276C1.43155 10.0645 1.42203 10.107 1.42203 10.1514C1.42203 10.1958 1.43155 10.2382 1.44836 10.2751C1.46513 10.3118 1.4878 10.3401 1.51173 10.3599L1.51522 10.3628L1.51521 10.3628L4.17334 12.6034L2.26521 9.90818ZM2.26521 9.90818H3.6723M2.26521 9.90818H3.6723M3.6723 9.90818H12.6255C12.6618 9.90818 12.7058 9.92347 12.7449 9.96588L13.1125 9.62694L12.7449 9.96589C12.7852 10.0097 12.8142 10.0771 12.8142 10.1551C12.8142 10.2331 12.7852 10.3005 12.7449 10.3443C12.7058 10.3867 12.6618 10.402 12.6255 10.402H3.6172H2.23936L3.29655 11.2856L4.37508 12.1871C4.41593 12.2227 4.45055 12.2823 4.45902 12.3581C4.46762 12.4348 4.44684 12.5077 4.40945 12.5598L4.40944 12.5598M3.6723 9.90818L4.40944 12.5598M4.40944 12.5598L4.40782 12.562M4.40944 12.5598L4.40782 12.562M4.40782 12.562C4.38676 12.5917 4.36232 12.6121 4.33868 12.6248C4.31583 12.637 4.29307 12.6424 4.27168 12.6427M4.40782 12.562L4.27168 12.6427M4.27168 12.6427C4.24127 12.6423 4.20669 12.6313 4.17361 12.6036L4.27168 12.6427ZM10.8749 4.56767L11.9664 3.67978H10.5594H1.60619C1.56983 3.67978 1.52589 3.66448 1.48678 3.62207C1.44642 3.5783 1.41748 3.51085 1.41748 3.43286C1.41748 3.35488 1.44642 3.28743 1.48678 3.24366C1.52589 3.20124 1.56983 3.18595 1.60619 3.18595H10.6144H11.9923L10.9351 2.30231L9.85574 1.40014C9.85552 1.39995 9.8553 1.39976 9.85507 1.39958C9.81354 1.36419 9.77806 1.30416 9.76925 1.2275C9.76038 1.15026 9.78119 1.0768 9.81885 1.02434C9.85565 0.973069 9.90106 0.950622 9.93845 0.945572C9.97498 0.940638 10.0176 0.950185 10.0577 0.984105L10.058 0.984366L12.7164 3.22511L12.7164 3.22512L12.7199 3.22801C12.7439 3.24782 12.7665 3.27614 12.7833 3.31289C12.8001 3.34972 12.8096 3.39219 12.8096 3.4366C12.8096 3.481 12.8001 3.52348 12.7833 3.56031C12.7668 3.59649 12.7446 3.62449 12.721 3.64425L9.96837 5.88325C9.93529 5.91015 9.9009 5.92052 9.87065 5.92052C9.84848 5.92052 9.82478 5.91503 9.80099 5.90213C9.77695 5.88909 9.75212 5.868 9.73093 5.83736C9.71296 5.81139 9.69855 5.7798 9.6901 5.74403L9.20349 5.85898L9.6901 5.74402C9.68164 5.70823 9.67969 5.67043 9.68458 5.63328C9.68948 5.59613 9.7009 5.56195 9.71689 5.53266C9.73285 5.50342 9.7525 5.48058 9.77293 5.46396L9.45743 5.07607L9.77293 5.46396L10.8749 4.56767Z" fill="white" stroke="url(#paint0_linear_207_544)"/>
<defs>
<linearGradient id="paint0_linear_207_544" x1="7.11583" y1="0.444336" x2="7.11583" y2="13.1427" gradientUnits="userSpaceOnUse">
<stop stop-color="#009506"/>
<stop offset="1"/>
</linearGradient>
</defs>
</svg>
