<svg width="16" height="16" viewBox="0 0 16 16" fill="none" xmlns="http://www.w3.org/2000/svg">
<path d="M14 0H2C1.4375 0 0.963542 0.192708 0.578125 0.578125C0.192708 0.963542 0 1.4375 0 2V14.6562C0 15.0312 0.130208 15.349 0.390625 15.6094C0.651042 15.8698 0.96875 16 1.34375 16H14.6562C15.0312 16 15.349 15.8698 15.6094 15.6094C15.8698 15.349 16 15.0312 16 14.6562V2C16 1.4375 15.8073 0.963542 15.4219 0.578125C15.0365 0.192708 14.5625 0 14 0ZM14.6562 14.6562H1.34375V2C1.34375 1.5625 1.5625 1.34375 2 1.34375H14C14.4375 1.34375 14.6562 1.5625 14.6562 2V14.6562ZM12 2H4C3.64583 2 3.33333 2.13021 3.0625 2.39062C2.79167 2.65104 2.65625 2.96875 2.65625 3.34375V4.65625H2V6H2.65625V10H2V11.3438H2.65625V12.6562C2.65625 13.0312 2.79167 13.349 3.0625 13.6094C3.33333 13.8698 3.64583 14 4 14H12C12.5625 14 13.0365 13.8073 13.4219 13.4219C13.8073 13.0365 14 12.5625 14 12V4C14 3.4375 13.8073 2.96354 13.4219 2.57812C13.0365 2.19271 12.5625 2 12 2ZM12.6562 12C12.6562 12.4375 12.4375 12.6562 12 12.6562H4V11.3438H4.65625V10H4V6H4.65625V4.65625H4V3.34375H12C12.4375 3.34375 12.6562 3.5625 12.6562 4V12ZM10.4688 8.875C10.5938 8.60417 10.6562 8.3125 10.6562 8C10.6562 7.58333 10.5312 7.20312 10.2812 6.85938C10.0312 6.51562 9.71875 6.27083 9.34375 6.125V4.65625C9.34375 4.46875 9.28125 4.3125 9.15625 4.1875C9.03125 4.0625 8.86458 4 8.65625 4C8.46875 4 8.3125 4.0625 8.1875 4.1875C8.0625 4.3125 8 4.46875 8 4.65625V6.125C7.10417 6.4375 6.65625 7.0625 6.65625 8C6.65625 8.3125 6.72917 8.60417 6.875 8.875L5.53125 10.1875C5.23958 10.5208 5.23958 10.8333 5.53125 11.125C5.65625 11.2708 5.8125 11.3438 6 11.3438C6.1875 11.3438 6.34375 11.2708 6.46875 11.125L7.8125 9.8125C8.0625 9.9375 8.34375 10 8.65625 10C8.98958 10 9.28125 9.9375 9.53125 9.8125L10.875 11.125C11 11.2708 11.1562 11.3438 11.3438 11.3438C11.5104 11.3438 11.6667 11.2708 11.8125 11.125C12.1042 10.8333 12.1042 10.5208 11.8125 10.1875L10.4688 8.875ZM8.65625 8.65625C8.21875 8.65625 8 8.4375 8 8C8 7.5625 8.21875 7.34375 8.65625 7.34375C9.11458 7.34375 9.34375 7.5625 9.34375 8C9.34375 8.4375 9.11458 8.65625 8.65625 8.65625Z" fill="url(#paint0_linear_207_533)"/>
<defs>
<linearGradient id="paint0_linear_207_533" x1="8" y1="0" x2="8" y2="16" gradientUnits="userSpaceOnUse">
<stop/>
<stop offset="0.0001" stop-color="white"/>
</linearGradient>
</defs>
</svg>
