<svg width="16" height="16" viewBox="0 0 16 16" fill="none" xmlns="http://www.w3.org/2000/svg">
<path d="M16 14L13 16V15H8.25L10.25 13H13V12L16 14Z" fill="white"/>
<path d="M0 2L3 0V1H7.75L5.75 3H3V4L0 2Z" fill="white"/>
<path d="M9.74 0L0 9.74L6.26 16L16 6.26L9.74 0ZM1.39 9.74L9.74 1.39L14.61 6.26L6.26 14.61L1.39 9.74Z" fill="white"/>
<path d="M4.7 9.48L4 10.18L6.09 12.27L6.79 11.57L7.53 12.26L10.27 9.48C9.80622 9.93027 9.18391 10.18 8.53753 10.1752C7.89114 10.1705 7.27259 9.91157 6.81551 9.45449C6.35843 8.99741 6.09954 8.37886 6.09477 7.73247C6.08999 7.08609 6.33972 6.46378 6.79 6L4.01 8.74L4.7 9.48Z" fill="white"/>
<path d="M12.26 6.09L10.17 4L9.47 4.7L8.74 4L6 6.78C6.46378 6.32973 7.08609 6.07999 7.73247 6.08477C8.37886 6.08954 8.99741 6.34844 9.45449 6.80551C9.91157 7.26259 10.1705 7.88114 10.1752 8.52753C10.18 9.17391 9.93027 9.79622 9.48 10.26L12.26 7.52L11.56 6.82L12.26 6.09Z" fill="white"/>
<path d="M8.5 10C9.88071 10 11 8.88071 11 7.5C11 6.11929 9.88071 5 8.5 5C7.11929 5 6 6.11929 6 7.5C6 8.88071 7.11929 10 8.5 10Z" fill="white"/>
<path d="M9.6868 5.29932C9.94135 5.6909 10.0893 6.15813 10.0893 6.66C10.0893 8.04071 8.97005 9.16 7.58934 9.16C7.15975 9.16 6.75549 9.05159 6.40234 8.86072C6.84813 9.54647 7.62095 10 8.4998 10C9.88052 10 10.9998 8.88075 10.9998 7.50004C10.9998 6.54893 10.4686 5.7219 9.6868 5.29932Z" fill="white"/>
<path d="M8.50015 9.67705C9.70242 9.67705 10.6771 8.70242 10.6771 7.50015C10.6771 6.29788 9.70242 5.32324 8.50015 5.32324C7.29788 5.32324 6.32324 6.29788 6.32324 7.50015C6.32324 8.70242 7.29788 9.67705 8.50015 9.67705Z" fill="#D8F6EF"/>
<path d="M9.9702 5.89453C10.0477 6.13581 10.0898 6.393 10.0898 6.66004C10.0898 8.04075 8.97047 9.16004 7.58976 9.16004C7.39305 9.16004 7.20168 9.13725 7.01807 9.09429C7.40671 9.45577 7.92759 9.67698 8.50022 9.67698C9.7025 9.67698 10.6771 8.70234 10.6771 7.50008C10.6771 6.86445 10.4046 6.29251 9.9702 5.89453Z" fill="#C6F2E7"/>
<path d="M7.87504 6.4446C7.87417 6.49913 7.8869 6.553 7.91205 6.60125C7.9372 6.64949 7.97396 6.69054 8.01894 6.7206L8.96113 7.35035C8.98625 7.36741 9.0068 7.39049 9.02096 7.41753C9.03512 7.44457 9.04244 7.47474 9.04228 7.50535C9.04211 7.53595 9.03446 7.56603 9.02001 7.59292C9.00556 7.6198 8.98475 7.64265 8.95945 7.65943L8.03605 8.26213C7.99063 8.29175 7.95335 8.3325 7.92767 8.38058C7.90198 8.42867 7.88871 8.48255 7.8891 8.53721V8.55266C7.89154 8.84011 8.23478 8.98259 8.43611 8.77984L9.57124 7.63625C9.58828 7.6191 9.6018 7.59872 9.61102 7.57627C9.62025 7.55382 9.625 7.52974 9.625 7.50543C9.625 7.48112 9.62025 7.45704 9.61102 7.43459C9.6018 7.41214 9.58828 7.39176 9.57124 7.37461L8.4216 6.2199C8.22119 6.01838 7.87978 6.1587 7.87504 6.4446Z" fill="white"/>
<path d="M8.0268 7.125H7.9732C7.91897 7.125 7.875 7.17283 7.875 7.23183V7.76817C7.875 7.82717 7.91897 7.875 7.9732 7.875H8.0268C8.08103 7.875 8.125 7.82717 8.125 7.76817V7.23183C8.125 7.17283 8.08103 7.125 8.0268 7.125Z" fill="white"/>
</svg>
