<svg width="40" height="33" viewBox="0 0 40 33" fill="none" xmlns="http://www.w3.org/2000/svg">
<path d="M39.39 4.43403C37.9635 5.06611 36.4312 5.4932 34.8202 5.68624C36.4824 4.69163 37.726 3.12624 38.3189 1.28216C36.7572 2.20976 35.048 2.8627 33.2656 3.21257C32.067 1.9328 30.4794 1.08455 28.7493 0.799507C27.0193 0.514468 25.2435 0.808591 23.6977 1.63621C22.1519 2.46383 20.9225 3.77865 20.2006 5.37652C19.4786 6.9744 19.3043 8.76594 19.7049 10.473C16.5405 10.3141 13.4449 9.49164 10.619 8.05895C7.79305 6.62627 5.29994 4.61539 3.30146 2.15682C2.61813 3.33557 2.22521 4.70224 2.22521 6.15774C2.22445 7.46802 2.54712 8.75824 3.16459 9.91391C3.78206 11.0696 4.67524 12.055 5.76488 12.7827C4.50118 12.7424 3.26537 12.401 2.16029 11.7867V11.8892C2.16017 13.7269 2.79585 15.5081 3.95948 16.9305C5.12311 18.3529 6.74302 19.3289 8.54434 19.6929C7.37205 20.0101 6.143 20.0569 4.95 19.8295C5.45823 21.4108 6.4482 22.7935 7.78134 23.7842C9.11447 24.7749 10.724 25.3238 12.3847 25.3543C9.56563 27.5673 6.08414 28.7677 2.50025 28.7624C1.8654 28.7626 1.23109 28.7255 0.600586 28.6514C4.23844 30.9904 8.47317 32.2317 12.7981 32.2269C27.4385 32.2269 35.442 20.1012 35.442 9.58465C35.442 9.24299 35.4335 8.8979 35.4181 8.55624C36.9749 7.4304 38.3187 6.03627 39.3866 4.43916L39.39 4.43403Z" fill="black"/>
</svg>
