<svg width="37" height="31" viewBox="0 0 37 31" fill="none" xmlns="http://www.w3.org/2000/svg">
<path d="M33.3797 1.2432C33.3797 1.2432 36.6982 -0.0508624 36.4205 3.09162C36.3292 4.38568 35.4998 8.91532 34.854 13.814L32.6417 28.3263C32.6417 28.3263 32.4572 30.4523 30.7976 30.8221C29.1388 31.1911 26.6497 29.5281 26.1885 29.1582C25.8195 28.8806 19.2749 24.7208 16.9703 22.6879C16.3246 22.1327 15.5866 21.024 17.0626 19.7299L26.7411 10.4861C27.8473 9.37743 28.9534 6.7893 24.3443 9.93178L11.4379 18.7126C11.4379 18.7126 9.96273 19.6377 7.1978 18.8057L1.20496 16.9564C1.20496 16.9564 -1.00733 15.5701 2.77236 14.1838C11.9914 9.83953 23.3304 5.40299 33.378 1.2432H33.3797Z" fill="black"/>
</svg>
