<svg width="41" height="41" viewBox="0 0 41 41" fill="none" xmlns="http://www.w3.org/2000/svg">
<path d="M40.9118 7.73597C40.9315 7.69817 40.9384 7.65304 40.9311 7.60953C40.9239 7.56601 40.9031 7.52729 40.8729 7.50103C40.8647 7.49134 40.8565 7.48166 40.8483 7.47681L40.836 7.47197L28.4683 0.162309C28.2805 0.0598381 28.0766 0.00457982 27.8697 3.40082e-05C27.631 -0.00176271 27.3957 0.0676605 27.1857 0.201872C26.9758 0.336084 26.7978 0.530743 26.6684 0.767814L19.5467 14.4425L28.4827 31.5977L40.9118 7.73597ZM38.7306 40.5374C39.9832 41.2785 41 40.7602 41 39.3797V11.9818L29.0915 34.8432L38.7306 40.5374ZM15.6251 11.3278V26.8917L27.3326 33.8066L15.6251 11.3278ZM1.1357 34.4775L11.7752 40.7626C12.0118 40.9107 12.2742 40.992 12.5419 41C13.2041 41 13.6673 40.3945 13.6673 39.3797V7.66573C13.6674 7.63648 13.6608 7.60776 13.6481 7.58261C13.6355 7.55745 13.6173 7.5368 13.5956 7.52283L1.51495 0.389979C1.32547 0.270148 1.11481 0.204606 0.89995 0.19864C0.37105 0.19864 0 0.680622 0 1.492V32.3074C0 33.1333 0.5125 34.1094 1.1357 34.4775Z" fill="black"/>
</svg>
