<svg width="41" height="41" viewBox="0 0 41 41" fill="none" xmlns="http://www.w3.org/2000/svg">
<path d="M35.2744 12.8651C35.0075 12.8117 34.8073 12.7849 34.6738 12.7849C33.6862 12.7849 32.832 13.1189 32.1113 13.7869C30.4831 13.0655 28.9616 12.4777 27.5469 12.0235C25.2246 11.2753 22.7956 10.6608 20.2598 10.1799C20.0195 9.53861 19.6592 9.00424 19.1787 8.57673C19.846 5.42392 20.7402 2.565 21.8613 0C25.2246 0.240469 28.3143 1.21571 31.1304 2.92571C33.9465 4.63571 36.222 6.88009 37.957 9.65885C36.9694 10.7276 36.0752 11.7964 35.2744 12.8651ZM16.6963 7.65494C16.0023 7.65494 15.3483 7.84197 14.7344 8.21603C12.5723 6.6129 10.3968 5.25024 8.20801 4.12805C11.5179 1.61649 15.2282 0.240469 19.3389 0C18.2979 2.32454 17.457 4.87618 16.8164 7.65494H16.6963ZM2.80273 10.1398C3.71029 8.61681 4.85807 7.174 6.24609 5.81134C8.0612 6.7465 9.94303 7.89541 11.8916 9.25806C8.44824 9.17791 5.41862 9.47182 2.80273 10.1398ZM12.8525 11.7429C12.9059 12.5712 13.1929 13.2993 13.7134 13.9272C14.2339 14.5551 14.8812 14.9759 15.6553 15.1896C15.4951 17.06 15.415 18.8368 15.415 20.52C15.415 21.6957 15.4551 23.045 15.5352 24.5679C14.9479 24.755 14.4274 25.0756 13.9736 25.5298C12.5322 24.9687 11.1442 24.3275 9.80957 23.6061C10.1032 23.0182 10.25 22.4171 10.25 21.8025C10.25 20.7338 9.8763 19.8253 9.12891 19.0772C8.38151 18.3291 7.47396 17.955 6.40625 17.955C5.23177 17.955 4.25749 18.4093 3.4834 19.3177C2.3623 18.3024 1.36133 17.247 0.480469 16.1515C0.720703 15.0026 1.08105 13.8671 1.56152 12.7449C4.81803 11.8364 8.58171 11.5024 12.8525 11.7429ZM2.60254 22.1232C2.68262 23.1118 3.08968 23.9467 3.82373 24.6281C4.55778 25.3094 5.41862 25.65 6.40625 25.65C6.69987 25.65 7.02018 25.5966 7.36719 25.4897C9.07552 26.4783 10.904 27.3333 12.8525 28.0547V28.2151C12.8525 29.2571 13.2062 30.1455 13.9136 30.8803C14.6209 31.615 15.4951 32.0091 16.5361 32.0626C17.2035 35.3223 18.1377 38.3014 19.3389 41C16.6696 40.8397 14.1471 40.1918 11.7715 39.0562C9.39583 37.9207 7.34717 36.4444 5.62549 34.6276C3.90381 32.8107 2.53581 30.6732 1.52148 28.2151C0.507161 25.7569 0 23.1919 0 20.52C0 20.4933 0.0133464 20.1326 0.0400391 19.4379C0.787435 20.3731 1.6416 21.2682 2.60254 22.1232ZM20.0596 30.0186C21.9814 30.3659 23.9167 30.593 25.8652 30.6999C26.0521 31.2343 26.3457 31.7286 26.7461 32.1828C26.1322 34.9883 25.7585 37.7136 25.625 40.3587C24.2637 40.7061 23.0091 40.9198 21.8613 41C20.6068 38.1411 19.6325 34.9081 18.9385 31.3011C19.4189 30.9804 19.7926 30.5529 20.0596 30.0186ZM32.4717 31.9423C32.8187 31.5148 33.0589 31.0606 33.1924 30.5797C35.1409 30.4194 37.0228 30.1655 38.8379 29.8182C37.5566 32.3298 35.7949 34.5073 33.5527 36.3509C33.3125 34.9616 32.9521 33.492 32.4717 31.9423ZM25.9453 28.1349C24.0768 28.028 22.235 27.7876 20.4199 27.4135C20.1263 26.0775 19.3656 25.1558 18.1377 24.6481C18.0309 23.0717 17.9775 21.6957 17.9775 20.52C17.9775 18.7566 18.0576 16.9264 18.2178 15.0293C18.2712 15.0293 18.3379 15.0026 18.418 14.9492C18.498 14.8957 18.5514 14.869 18.5781 14.869C19.6191 15.8843 20.5267 16.8195 21.3008 17.6745C23.623 20.2395 25.5983 23.1518 27.2266 26.4115C26.6393 26.8658 26.2122 27.4402 25.9453 28.1349ZM29.5088 33.3451C29.5622 33.3451 29.709 33.3317 29.9492 33.305C30.403 34.9348 30.7367 36.5513 30.9502 38.1544C30.1761 38.6087 29.2419 39.0629 28.1475 39.5171C28.3343 37.433 28.6546 35.3623 29.1084 33.305C29.3219 33.3317 29.4554 33.3451 29.5088 33.3451ZM29.3086 23.7664C29.2819 23.8198 29.2485 23.9 29.2085 24.0068C29.1685 24.1137 29.1351 24.1939 29.1084 24.2473C27.4268 21.2014 25.4515 18.436 23.1826 15.9511C22.3551 15.016 21.3675 14.0007 20.2197 12.9052C20.2464 12.9052 20.2664 12.8851 20.2798 12.8451L20.2998 12.7849C22.542 13.2392 24.6908 13.8003 26.7461 14.4682C28.0007 14.869 29.3753 15.4034 30.8701 16.0714C30.8167 16.3385 30.79 16.5389 30.79 16.6725C30.79 17.4741 31.0303 18.2089 31.5107 18.8768C30.6299 20.5601 29.8958 22.19 29.3086 23.7664ZM31.1904 26.0909C31.5107 25.1558 31.6709 24.6748 31.6709 24.6481C32.2048 23.3122 32.8721 21.8827 33.6729 20.3597C34.0199 20.4666 34.3535 20.52 34.6738 20.52C35.5814 20.52 36.3955 20.2128 37.1162 19.5982C38.4242 20.5067 39.7054 21.522 40.96 22.6442C40.7998 24.1672 40.4795 25.6367 39.999 27.0528C37.8102 27.507 35.5013 27.8276 33.0723 28.0147C32.7253 27.1597 32.098 26.5184 31.1904 26.0909ZM38.5176 16.6325C38.5176 15.7507 38.224 14.9492 37.6367 14.2278C38.1973 13.5064 38.7578 12.8517 39.3184 12.2639C40.2793 14.4549 40.8398 16.7126 41 19.0371C40.1191 18.3692 39.265 17.768 38.4375 17.2336C38.4909 16.9932 38.5176 16.7928 38.5176 16.6325Z" fill="black"/>
</svg>
