<svg width="22" height="14" viewBox="0 0 22 14" fill="none" xmlns="http://www.w3.org/2000/svg">
<path d="M6 8.90909V4.97636C5.28 4.55636 4.61 4.04727 4 3.44909V8.90909H6ZM4 14H2V11.4545H0V8.90909H2V0H4V1.82C5.8 3.81818 8.27 5.09091 11 5.09091C13.73 5.09091 16.2 3.81818 18 1.82V0H20V8.90909H22V11.4545H20V14H18V11.4545H4V14ZM16 4.97636V8.90909H18V3.44909C17.39 4.04727 16.72 4.55636 16 4.97636ZM15 8.90909V5.49818C14.36 5.79091 13.69 6.00727 13 6.16V8.90909H15ZM12 8.90909V6.31273L11 6.36364L10 6.31273V8.90909H12ZM9 8.90909V6.16C8.31 6.00727 7.64 5.79091 7 5.49818V8.90909H9Z" fill="url(#paint0_linear_207_566)"/>
<defs>
<linearGradient id="paint0_linear_207_566" x1="11" y1="0" x2="11" y2="14" gradientUnits="userSpaceOnUse">
<stop stop-color="#009506"/>
<stop offset="1"/>
</linearGradient>
</defs>
</svg>
