<svg width="234" height="56" viewBox="0 0 234 56" fill="none" xmlns="http://www.w3.org/2000/svg">
<path d="M136.237 36.3013C136.323 36.2818 136.414 36.2871 136.495 36.3164C136.577 36.3456 136.643 36.397 136.683 36.4618L138.502 38.435C139.36 39.3791 140.225 40.3011 141.079 41.2358C141.932 42.1704 142.759 43.0925 143.601 44.0177C144.013 44.4709 144.44 44.9114 144.851 45.3646C144.905 45.4341 144.979 45.4912 145.067 45.5303C145.155 45.5694 145.254 45.5893 145.355 45.5881C146.705 45.5881 148.047 45.5881 149.4 45.5881C149.481 45.5881 149.573 45.5881 149.623 45.4842C149.566 45.4087 149.5 45.3174 149.423 45.2324L147.081 42.7558C146.62 42.2648 146.166 41.7708 145.701 41.283L143.505 38.9731C142.99 38.4287 142.486 37.878 141.967 37.3335C141.013 36.3234 140.044 35.3163 139.102 34.303C138.991 34.1866 138.898 34.0575 138.794 33.9285C138.929 33.7743 139.041 33.639 139.179 33.51L142.136 30.3787C143.267 29.1829 144.396 27.9881 145.524 26.7943C146.678 25.567 147.854 24.3428 149.012 23.1124C149.096 23.0211 149.227 22.9361 149.2 22.7977C149.169 22.7828 149.136 22.7722 149.1 22.7662H145.055C144.972 22.7627 144.889 22.7775 144.815 22.809C144.742 22.8406 144.68 22.8877 144.636 22.9456C144.397 23.2131 144.147 23.4743 143.901 23.7355C143.359 24.2862 142.821 24.8621 142.282 25.4159C141.632 26.1177 140.99 26.8226 140.36 27.5244C139.367 28.5986 138.37 29.6696 137.368 30.7375C137.116 31.0366 136.839 31.3206 136.537 31.5872C136.272 31.6123 136.195 31.455 136.087 31.3385C135.103 30.2591 134.122 29.1766 133.134 28.1003L129.769 24.4467C129.335 23.9746 128.892 23.5026 128.469 23.0274C128.398 22.9357 128.298 22.8613 128.18 22.8121C128.061 22.7628 127.929 22.7404 127.796 22.7473C126.497 22.7473 125.201 22.7473 123.901 22.7473C123.828 22.7473 123.751 22.7473 123.616 22.7725C123.739 22.9267 123.824 23.0431 123.924 23.1501C124.17 23.427 124.428 23.6977 124.693 23.9715C125.497 24.8337 126.308 25.6929 127.112 26.5551C127.693 27.1845 128.266 27.8139 128.846 28.4276C129.427 29.0413 129.954 29.6014 130.507 30.1899L133.261 33.1386L133.811 33.7271C133.88 33.7891 133.918 33.8699 133.918 33.9537C133.918 34.0375 133.88 34.1183 133.811 34.1803L133.718 34.2778C133.272 34.7593 132.83 35.2439 132.38 35.7223L129.465 38.8283C127.889 40.5067 126.313 42.1851 124.739 43.8635C124.312 44.3198 123.874 44.773 123.447 45.2324C123.366 45.3206 123.22 45.4024 123.293 45.5629C123.382 45.5629 123.463 45.5629 123.547 45.5629H127.439C127.506 45.5652 127.574 45.5537 127.635 45.5296C127.696 45.5054 127.749 45.4693 127.789 45.4244C127.846 45.3583 127.919 45.2985 127.981 45.2356C128.662 44.5023 129.342 43.7722 130.019 43.0327L133.784 38.9416C134.299 38.3815 134.807 37.8182 135.322 37.258C135.61 36.9527 135.933 36.6192 136.237 36.3013Z" fill="#009506"/>
<path d="M170.277 22.9494C170.061 22.895 169.833 22.8768 169.608 22.8959H162.225C162.06 22.8959 161.89 22.8959 161.721 22.8959C161.62 22.8808 161.519 22.8598 161.421 22.8329C161.403 22.7212 161.391 22.6089 161.387 22.4962C161.387 21.6969 161.387 20.8975 161.387 20.0982C161.381 19.9737 161.392 19.8491 161.421 19.7269C161.56 19.302 161.61 18.8583 161.806 18.446C162.24 17.502 162.959 16.7278 164.132 16.3407C164.433 16.2193 164.757 16.1395 165.09 16.1047C165.357 16.0874 165.623 16.0558 165.886 16.0103C166.15 15.9663 166.422 15.9599 166.69 15.9914C167.124 16.0355 167.559 16.0669 167.993 16.111C168.141 16.1301 168.287 16.1553 168.432 16.1865C168.509 16.2141 168.588 16.2363 168.67 16.2526C169.151 16.3053 169.626 16.3916 170.089 16.5107C170.18 16.5195 170.271 16.5195 170.362 16.5107C170.362 16.3565 170.389 16.2211 170.389 16.0858V14.1599C170.395 14.0771 170.395 13.9941 170.389 13.9113C170.393 13.8276 170.359 13.7457 170.293 13.6821C170.226 13.6184 170.133 13.5777 170.031 13.5682C169.701 13.4698 169.358 13.4022 169.008 13.3668C168.94 13.3672 168.873 13.3507 168.816 13.3196C168.666 13.2556 168.497 13.2262 168.328 13.2347C167.993 13.2158 167.659 13.1906 167.324 13.1654C167.07 13.1465 166.824 13.1119 166.555 13.1056C166.151 13.1056 165.747 13.1056 165.344 13.1056C165.21 13.0898 165.074 13.0898 164.94 13.1056C164.359 13.2504 163.729 13.1465 163.163 13.3637C162.652 13.435 162.158 13.5709 161.698 13.7665C160.306 14.2747 159.174 15.1652 158.499 16.2841C158.221 16.7196 158.001 17.1786 157.845 17.653C157.728 17.9831 157.633 18.3183 157.56 18.6569C157.407 19.4191 157.341 20.1914 157.364 20.9636C157.387 21.3476 157.364 21.7346 157.364 22.1217C157.364 22.7008 157.364 22.7008 156.676 22.7039H154.149C153.971 22.6818 153.788 22.697 153.619 22.748C153.528 22.8542 153.491 22.9849 153.515 23.113C153.515 23.7896 153.515 24.4662 153.515 25.1397C153.515 25.5267 153.569 25.5677 154.042 25.5677C154.869 25.5677 155.692 25.5677 156.518 25.5677H156.922C157.307 25.5677 157.349 25.6306 157.364 25.9421C157.364 26.0806 157.364 26.2191 157.364 26.3575V44.8051C157.364 44.9562 157.364 45.1198 157.364 45.2614C157.375 45.3408 157.392 45.4196 157.414 45.4974C157.484 45.5168 157.556 45.5295 157.63 45.5352H161.125C161.212 45.5239 161.297 45.5016 161.375 45.4691C161.375 45.2772 161.375 45.1009 161.375 44.9216C161.375 38.678 161.375 32.4323 161.375 26.1845C161.375 25.5551 161.375 25.5551 162.144 25.5551H169.524C169.674 25.5551 169.827 25.5551 169.977 25.5551C170.071 25.5438 170.164 25.527 170.254 25.5047C170.346 24.6548 170.353 23.8003 170.277 22.9494Z" fill="#009506"/>
<path d="M217.239 22.7717C217.168 22.9063 217.141 23.0539 217.162 23.1996V25.1413C217.162 25.6448 217.162 25.6448 217.781 25.6511H217.985C218.754 25.6511 219.566 25.6511 220.358 25.6511C220.526 25.6532 220.695 25.6647 220.861 25.6858C220.921 25.6918 220.976 25.7151 221.016 25.7515C221.056 25.7879 221.079 25.8349 221.081 25.884C221.081 26.0351 221.081 26.1987 221.081 26.3403V39.9069C221.081 40.143 221.081 40.3758 221.081 40.6119C221.071 40.7081 221.082 40.8048 221.111 40.8982C221.284 41.2759 221.273 41.6818 221.427 42.0626C221.56 42.4311 221.729 42.79 221.934 43.1357C222.577 44.1935 223.671 45.0212 225.011 45.4613C225.683 45.7137 226.404 45.8701 227.141 45.924C227.271 45.9378 227.399 45.9588 227.526 45.9869C228.375 46.093 229.238 46.1014 230.091 46.0121C230.391 45.9869 230.687 45.9397 230.987 45.9019C231.07 45.8982 231.154 45.8898 231.237 45.8767C231.621 45.7855 232.006 45.6974 232.39 45.5967C232.906 45.4762 233.399 45.2983 233.855 45.068C233.855 44.1868 233.855 43.3183 233.855 42.4497C233.855 42.4025 233.809 42.3584 233.782 42.3018C233.355 42.4371 232.955 42.5756 232.548 42.692C232.231 42.7837 231.907 42.8583 231.579 42.9154C230.918 43.0188 230.244 43.061 229.571 43.0413C228.775 43.0356 227.989 42.8885 227.268 42.6102C226.76 42.4102 226.317 42.1141 225.976 41.7464C225.635 41.3787 225.405 40.9499 225.307 40.4954C225.284 40.4136 225.249 40.3349 225.234 40.2531C225.195 40.08 225.145 39.9038 225.126 39.7276C225.107 39.5513 225.126 39.3153 225.126 39.0982V26.1609C225.12 26.0781 225.12 25.9951 225.126 25.9123C225.126 25.7487 225.211 25.6826 225.399 25.6669C225.585 25.659 225.771 25.659 225.957 25.6669H233.182C233.352 25.6669 233.521 25.6669 233.69 25.6669C233.728 25.6699 233.767 25.6664 233.803 25.6566C233.84 25.6468 233.873 25.6309 233.902 25.6099C233.931 25.5889 233.953 25.5632 233.969 25.5346C233.985 25.5059 233.993 25.4749 233.994 25.4434C233.999 25.3753 233.999 25.307 233.994 25.2389C233.994 24.5465 233.994 23.8563 233.994 23.1682C234.005 23.1015 234 23.0336 233.978 22.9686C233.956 22.9037 233.918 22.8431 233.867 22.7905C233.709 22.7905 233.528 22.7905 233.344 22.7905H225.653C225.478 22.8179 225.297 22.791 225.145 22.715C225.088 22.5623 225.071 22.4014 225.095 22.243V16.4085C225.112 16.2395 225.095 16.0694 225.045 15.905C224.948 15.8867 224.849 15.8741 224.749 15.8672C223.634 15.8672 222.521 15.8672 221.411 15.8672C221.306 15.8754 221.201 15.8922 221.1 15.9175C221.1 16.0969 221.1 16.2606 221.1 16.4242V21.8874C221.1 22.0793 221.1 22.2744 221.1 22.4664C221.089 22.538 221.069 22.6086 221.042 22.6772C220.865 22.7487 220.665 22.7739 220.469 22.7496H217.739C217.562 22.7528 217.397 22.7654 217.239 22.7717Z" fill="#009506"/>
<path d="M181.194 45.5712C181.275 45.3597 181.301 45.1368 181.271 44.9166V23.4102C181.271 23.2717 181.271 23.1333 181.271 22.9948C181.255 22.9179 181.232 22.8422 181.202 22.7682C181.132 22.7501 181.059 22.7374 180.986 22.7305H177.549C177.471 22.7384 177.395 22.7542 177.322 22.7777C177.269 22.944 177.255 23.1169 177.279 23.2875C177.279 30.5255 177.279 37.7636 177.279 45.0016C177.279 45.1118 177.279 45.2219 177.279 45.3163C177.293 45.3863 177.311 45.4556 177.333 45.524C177.435 45.5418 177.537 45.5544 177.641 45.5618C178.818 45.5807 179.971 45.5995 181.194 45.5712Z" fill="#009506"/>
<path d="M181.457 14.0861C181.31 14.0673 181.234 14.0484 181.149 14.0452C181.064 14.0421 180.88 14.0452 180.745 14.0452H177.469C177.292 14.0452 177.084 14.0043 176.946 14.1333C176.93 14.1732 176.92 14.2144 176.915 14.2561C176.915 15.3051 176.915 16.3541 176.915 17.403C176.915 17.6454 176.984 17.6926 177.269 17.7177H180.899C181.464 17.7177 181.495 17.6926 181.495 17.2237C181.495 16.3299 181.495 15.4362 181.495 14.5424C181.507 14.3914 181.468 14.2561 181.457 14.0861Z" fill="#009506"/>
<path d="M56.6185 45.5793C56.5971 45.4973 56.583 45.4142 56.5762 45.3306V14.7043C56.6739 14.6767 56.7742 14.6557 56.8761 14.6413C57.0261 14.6413 57.1799 14.6413 57.3299 14.6413H69.3624H70.9314C71.0317 14.6386 71.1322 14.6438 71.2313 14.6571C71.7608 14.7436 72.2988 14.791 72.8387 14.7987C72.9225 14.8016 73.006 14.8089 73.0887 14.8207C73.6847 14.9088 74.2846 14.9812 74.8691 15.0977C75.4536 15.2141 76.1035 15.3368 76.7073 15.5099C77.3879 15.705 78.0686 15.8907 78.73 16.1393C80.052 16.6126 81.3035 17.2081 82.4601 17.9142C85.0337 19.4634 87.0383 21.561 88.2552 23.9784C88.5167 24.4977 88.7475 25.0232 88.9551 25.5519C89.1628 26.0806 89.2051 26.5778 89.3704 27.0813C89.5666 27.6698 89.5012 28.2866 89.6819 28.8783C89.7104 29.0006 89.7194 29.1254 89.7088 29.2496C89.7088 29.7877 89.7088 30.3227 89.7088 30.8609C89.7088 31.0276 89.6742 31.1913 89.655 31.3549C89.6127 31.6979 89.5781 32.041 89.5166 32.3808C89.4473 32.7742 89.3589 33.1676 89.2628 33.5578C89.182 33.8725 89.082 34.1872 88.982 34.5208C88.9205 34.719 88.8475 34.9173 88.7629 35.1093C88.0851 36.7535 87.0679 38.2905 85.7557 39.6535C84.9003 40.5182 83.939 41.3091 82.887 42.0137C82.3011 42.4027 81.6858 42.7611 81.045 43.0869C80.4374 43.4016 79.7798 43.6533 79.1222 43.9208C78.3611 44.2361 77.567 44.4952 76.7496 44.695C76.2772 44.8308 75.7924 44.9361 75.2998 45.0097C75.0153 45.1576 74.6653 45.0915 74.3769 45.1922C74.0858 45.2552 73.7886 45.2973 73.4886 45.3181C72.7114 45.4375 71.925 45.5132 71.1352 45.5446C70.515 45.5887 69.8922 45.6014 69.2701 45.5824C65.6118 45.5824 61.9547 45.5824 58.299 45.5824C57.9144 45.5824 57.5299 45.5824 57.1453 45.5824C56.9992 45.5981 56.8338 45.5856 56.6185 45.5793ZM60.8485 42.4323C61.0715 42.4323 61.2561 42.4512 61.4369 42.4512H70.0315C70.6221 42.478 71.2142 42.4334 71.7889 42.319C71.8704 42.3015 71.9548 42.2952 72.0389 42.3001C72.6437 42.2842 73.244 42.2092 73.827 42.0767C74.3489 41.9892 74.8628 41.8725 75.3652 41.7274C76.1429 41.5174 76.9 41.2597 77.6302 40.9564C78.848 40.456 79.9689 39.8113 80.9565 39.043C82.2067 38.0597 83.226 36.897 83.9637 35.6128C84.156 35.2792 84.3175 34.933 84.4713 34.5869C84.6639 34.1624 84.8232 33.7283 84.9481 33.2872C85.0366 32.9725 85.0673 32.6326 85.175 32.3148C85.2667 32.0056 85.3144 31.6888 85.3173 31.3707C85.2979 30.9844 85.325 30.5976 85.3981 30.2157C85.4133 30.1344 85.4133 30.0516 85.3981 29.9703C85.3788 29.7909 85.3442 29.6147 85.3404 29.4384C85.3709 28.9418 85.3099 28.4443 85.1596 27.9625C85.1409 27.8816 85.1319 27.7994 85.1327 27.717C85.1254 27.6208 85.11 27.5251 85.0866 27.4307C84.8671 26.6407 84.5714 25.8662 84.2021 25.1145C83.9135 24.544 83.5688 23.9935 83.1715 23.4686C82.4145 22.4749 81.4696 21.5858 80.372 20.8346C80.1528 20.6835 79.9336 20.5199 79.7067 20.394C78.8865 19.8723 77.9963 19.4289 77.0534 19.0723C76.1035 18.7004 75.1012 18.4256 74.0693 18.2541C74.0185 18.2516 73.9688 18.2409 73.9231 18.2226C73.7137 18.1325 73.4789 18.0891 73.2425 18.0967C73.1416 18.098 73.0412 18.0841 72.9464 18.0558C72.6784 17.9702 72.3917 17.9306 72.1042 17.9394C71.9533 17.9434 71.8022 17.9328 71.6543 17.9079C71.0767 17.8096 70.4863 17.7705 69.8969 17.7915C67.1179 17.7915 64.3364 17.7915 61.5522 17.7915C61.4011 17.7852 61.2496 17.7852 61.0985 17.7915C60.9936 17.807 60.8907 17.8302 60.7908 17.8607C60.7908 18.0495 60.7677 18.2258 60.7677 18.4051V41.8564C60.7677 41.9665 60.7677 42.0767 60.7677 42.1868C60.7822 42.2706 60.8027 42.3536 60.8293 42.4354L60.8485 42.4323Z" fill="#009506"/>
<path d="M119.307 35.374C119.031 35.374 118.796 35.374 118.561 35.374H97.9842C97.7804 35.374 97.5804 35.374 97.3766 35.374C97.3425 35.3735 97.3086 35.3788 97.277 35.3895C97.2455 35.4002 97.2169 35.416 97.1931 35.4361C97.1693 35.4561 97.1508 35.4799 97.1387 35.5061C97.1266 35.5322 97.1212 35.5601 97.1228 35.588C97.1307 35.7653 97.1538 35.942 97.192 36.1167C97.2313 36.2198 97.2621 36.3249 97.2843 36.4314C97.319 36.7556 97.4123 37.0737 97.5612 37.3755C97.9727 38.496 98.6641 39.5344 99.5916 40.4249C100.443 41.2293 101.491 41.8789 102.668 42.332C103.422 42.6342 104.225 42.8462 105.052 42.9613C106.008 43.13 106.99 43.1767 107.963 43.0998C108.628 43.0211 109.298 42.9582 109.955 42.8481C110.416 42.7687 110.866 42.6549 111.301 42.5082C112.021 42.2835 112.71 41.9988 113.358 41.6585C113.906 41.3648 114.43 41.0431 114.927 40.6955C115.158 40.5382 115.373 40.3619 115.596 40.1952C115.693 40.1228 115.8 40.0567 115.912 39.978C116.38 40.2281 116.811 40.5217 117.196 40.8529C117.62 41.1323 118.019 41.4351 118.392 41.7592C118.332 41.8439 118.263 41.9249 118.188 42.0015C117.492 42.6374 116.728 43.2208 115.904 43.7449C115.244 44.1454 114.548 44.5032 113.82 44.8149C112.871 45.1906 111.879 45.4899 110.859 45.7087C110.305 45.737 109.786 45.9415 109.221 45.9227C109.091 45.9154 108.961 45.926 108.836 45.9541C108.361 46.0509 107.871 46.087 107.383 46.0611C107.06 46.0611 106.74 46.0611 106.421 46.0611C106.067 46.0711 105.713 46.0447 105.368 45.9824C105.153 45.9456 104.936 45.9214 104.718 45.9101C104.499 45.9141 104.281 45.8798 104.079 45.8094C104.019 45.7849 103.954 45.7699 103.887 45.7653C103.094 45.6547 102.32 45.4688 101.58 45.2114C100.8 44.9608 100.053 44.6444 99.3532 44.2673C98.9686 44.0659 98.5841 43.8551 98.2457 43.638C96.9244 42.7827 95.8138 41.7297 94.9732 40.535C94.5417 39.9149 94.1738 39.2665 93.8734 38.5965C93.6926 38.2 93.6196 37.772 93.4542 37.3692C93.2889 36.9664 93.3158 36.4943 93.1427 36.0726C93.1047 35.9525 93.0917 35.8281 93.1043 35.7044C93.1043 34.7257 93.1043 33.747 93.1043 32.7683C93.1212 32.5905 93.1534 32.4138 93.2004 32.2396C93.2004 32.1735 93.2504 32.1074 93.2581 32.0382C93.349 31.3094 93.5412 30.5914 93.8311 29.8983C94.053 29.3363 94.3362 28.7918 94.6771 28.2713C95.359 27.1663 96.2565 26.1597 97.3343 25.2911C98.1323 24.6598 99.0222 24.1113 99.9838 23.6578C100.755 23.2967 101.572 23.0075 102.422 22.7955C102.764 22.6771 103.125 22.6018 103.495 22.5721C103.577 22.5624 103.658 22.5466 103.737 22.5249C103.914 22.4851 104.094 22.4547 104.275 22.4336C104.68 22.432 105.083 22.3844 105.471 22.292C105.571 22.2777 105.672 22.2777 105.771 22.292H106.783C107.082 22.279 107.381 22.297 107.675 22.3455C107.956 22.3929 108.242 22.4182 108.528 22.421C108.731 22.417 108.933 22.447 109.121 22.5092C109.182 22.5311 109.247 22.5469 109.313 22.5564C110.342 22.6926 111.338 22.9625 112.262 23.3557C113.244 23.7545 114.15 24.2664 114.954 24.8757C116.133 25.7816 117.093 26.8609 117.785 28.0573C118.223 28.7829 118.562 29.546 118.796 30.3325C118.9 30.6913 119.015 31.05 119.119 31.412C119.146 31.5032 119.138 31.6039 119.157 31.6983C119.192 31.9029 119.238 32.1043 119.277 32.3088C119.307 32.4122 119.326 32.5175 119.334 32.6235C119.35 33.4355 119.359 34.2495 119.361 35.0656C119.353 35.1694 119.335 35.2725 119.307 35.374ZM115.239 32.9288C115.327 32.7252 115.327 32.503 115.239 32.2994C115.077 31.9343 115.173 31.5284 114.931 31.1791C114.95 30.8644 114.712 30.6315 114.693 30.342C114.44 29.7547 114.129 29.1853 113.762 28.6395C113.075 27.6203 112.091 26.7556 110.897 26.1219C110.114 25.6937 109.23 25.4042 108.302 25.2722C108.252 25.268 108.204 25.2574 108.159 25.2407C107.914 25.1456 107.642 25.1054 107.371 25.1243C106.848 25.1243 106.325 25.1243 105.802 25.1243C105.366 25.083 104.925 25.1316 104.518 25.2659C104.485 25.2724 104.451 25.2724 104.418 25.2659C104.063 25.2814 103.716 25.3563 103.399 25.4862C102.428 25.7878 101.532 26.2302 100.753 26.7922C99.7287 27.5293 98.8958 28.4271 98.3034 29.4325C98.018 29.9448 97.7689 30.4702 97.5573 31.006C97.4508 31.2665 97.3711 31.5339 97.3189 31.8053C97.2919 31.9827 97.2495 32.1584 97.192 32.3309C97.0959 32.5224 97.0959 32.7373 97.192 32.9288C97.4159 32.9996 97.6578 33.0234 97.8957 32.998H114.581C114.709 33.0037 114.838 33.0037 114.966 32.998C115.059 32.9821 115.151 32.9589 115.239 32.9288Z" fill="#009506"/>
<path d="M191.628 26.9425C191.213 26.0991 190.84 25.2273 190.475 24.3368C190.682 24.2518 190.84 24.17 191.005 24.1196C191.713 23.9025 192.401 23.6507 193.117 23.4525C193.943 23.2259 194.782 23.0465 195.628 22.8703C196.159 22.809 196.686 22.7218 197.204 22.6091C197.947 22.6091 198.677 22.4706 199.416 22.4423C200.154 22.414 200.896 22.4423 201.638 22.4423C201.757 22.4374 201.875 22.4437 201.992 22.4612C202.452 22.546 202.921 22.5935 203.392 22.6028C203.508 22.6098 203.624 22.6245 203.738 22.6468C203.934 22.6783 204.122 22.7129 204.326 22.7538C204.765 22.8451 205.207 22.9269 205.638 23.0371C206.787 23.3325 207.862 23.7952 208.81 24.4028C209.962 25.1518 210.865 26.1258 211.437 27.2351C211.703 27.7682 211.914 28.3188 212.067 28.881C212.248 29.4474 212.194 30.0328 212.39 30.5929C212.42 30.7151 212.429 30.8401 212.417 30.9643V45.154C212.417 45.2767 212.417 45.3995 212.394 45.5411C212.296 45.566 212.196 45.5828 212.094 45.5914H208.91C208.828 45.5871 208.747 45.5766 208.668 45.56C208.577 45.4237 208.543 45.2666 208.572 45.1131C208.572 44.3263 208.572 43.5396 208.572 42.7529C208.57 42.6296 208.558 42.5067 208.537 42.3847C208.533 42.3675 208.523 42.3515 208.51 42.3379C208.496 42.3243 208.479 42.3136 208.46 42.3065C208.44 42.2994 208.419 42.2963 208.398 42.2973C208.376 42.2983 208.355 42.3034 208.337 42.3123C208.239 42.3647 208.15 42.4271 208.072 42.4979C207.694 42.8658 207.285 43.2118 206.849 43.5333C206.059 44.1109 205.181 44.6027 204.238 44.9966C203.46 45.319 202.638 45.5631 201.788 45.7236C201.309 45.8552 200.809 45.9263 200.304 45.9345C200.236 45.931 200.169 45.9374 200.104 45.9533C199.564 46.0641 199.006 46.1034 198.45 46.0698H197.589C197.473 46.0793 197.355 46.0793 197.239 46.0698C196.797 45.9722 196.331 45.9817 195.893 45.8998C195.137 45.7746 194.394 45.6021 193.67 45.3837C192.853 45.1319 192.078 44.7967 191.363 44.3861C190.114 43.6806 189.138 42.698 188.548 41.5539C188.177 40.8308 187.99 40.0534 187.998 39.2692C187.998 38.8695 187.998 38.4698 188.029 38.0702C188.067 37.6168 188.172 37.1688 188.341 36.7358C188.563 36.1016 188.917 35.5034 189.387 34.9672C190.022 34.2379 190.83 33.6205 191.763 33.1514C192.477 32.7924 193.237 32.497 194.028 32.2703C194.528 32.1255 195.066 32.0626 195.566 31.9367C196.066 31.8108 196.697 31.8077 197.251 31.6818C197.376 31.656 197.505 31.6433 197.635 31.644C199.304 31.644 200.969 31.6252 202.634 31.644C203.269 31.644 203.899 31.7731 204.557 31.8266C205.056 31.8828 205.552 31.9594 206.041 32.0563C206.539 32.1208 207.03 32.2155 207.51 32.3395C207.757 32.3728 208 32.4212 208.237 32.4843C208.261 32.4921 208.287 32.4957 208.313 32.4948C208.339 32.4938 208.364 32.4885 208.388 32.479C208.411 32.4695 208.431 32.456 208.448 32.4396C208.464 32.4232 208.476 32.4041 208.483 32.3836C208.519 32.2929 208.54 32.1987 208.545 32.1035C208.552 31.7179 208.518 31.3326 208.445 30.9517C208.445 30.7849 208.414 30.6213 208.383 30.4576C208.352 30.294 208.314 30.1429 208.272 29.9761C208.272 29.91 208.222 29.844 208.206 29.7779C207.959 28.7887 207.363 27.8805 206.491 27.1659C205.684 26.5204 204.697 26.0461 203.615 25.7844C202.819 25.556 201.981 25.4421 201.138 25.4476C200.936 25.4492 200.735 25.4302 200.538 25.391C200.258 25.3454 199.969 25.3454 199.689 25.391C199.475 25.4274 199.257 25.4485 199.039 25.4539C198.162 25.4509 197.289 25.5386 196.439 25.7151C195.855 25.8284 195.262 25.9291 194.689 26.0865C193.797 26.3162 192.923 26.5938 192.075 26.9173C191.934 26.9673 191.776 26.9762 191.628 26.9425ZM200.596 33.9885H198.812C198.694 33.9806 198.574 33.9923 198.462 34.0231C198.193 34.1031 197.909 34.1415 197.624 34.1364C197.539 34.1367 197.455 34.1451 197.374 34.1616C196.989 34.2497 196.639 34.3441 196.27 34.4354C195.049 34.709 193.96 35.281 193.147 36.075C192.581 36.6248 192.22 37.2969 192.109 38.0104C191.978 38.6791 192.026 39.3632 192.251 40.015C192.435 40.5147 192.736 40.9807 193.136 41.3871C193.936 42.1786 195.008 42.7561 196.212 43.0455C196.516 43.1242 196.835 43.162 197.135 43.2406C197.424 43.3087 197.723 43.3478 198.023 43.3571C198.293 43.3728 198.558 43.4043 198.827 43.4137C199.096 43.4232 199.331 43.4137 199.596 43.398C199.762 43.3788 199.929 43.3672 200.096 43.3634C200.736 43.3698 201.374 43.2977 201.988 43.1494C202.955 42.972 203.881 42.6715 204.734 42.2588C206.114 41.6403 207.23 40.6902 207.929 39.5366C208.207 39.1286 208.381 38.6791 208.441 38.2149C208.447 38.1741 208.459 38.134 208.476 38.0953C208.581 37.8185 208.628 37.529 208.614 37.2394V35.4361C208.614 35.3543 208.614 35.2693 208.614 35.1875C208.609 35.1187 208.577 35.0531 208.522 35.0008C208.467 34.9485 208.393 34.9124 208.31 34.898C207.926 34.813 207.506 34.7092 207.099 34.6242C206.791 34.5613 206.48 34.5046 206.164 34.4669C205.709 34.3694 205.242 34.3093 204.772 34.2875C204.738 34.2877 204.705 34.28 204.676 34.2655C204.378 34.1708 204.058 34.1301 203.738 34.1459C203.503 34.1436 203.269 34.1268 203.038 34.0955C202.592 34.0176 202.137 33.9817 201.681 33.9885C201.304 33.9885 200.95 33.9885 200.596 33.9885Z" fill="#009506"/>
<path d="M136.24 36.2988C135.936 36.6135 135.613 36.9503 135.301 37.2901C134.786 37.8503 134.279 38.4136 133.763 38.9738L129.999 43.0648C129.322 43.8012 128.641 44.5313 127.96 45.2677C127.899 45.3307 127.826 45.3904 127.768 45.4565C127.728 45.5014 127.675 45.5376 127.614 45.5617C127.553 45.5859 127.486 45.5973 127.418 45.595H123.527C123.442 45.595 123.361 45.595 123.273 45.595C123.2 45.4345 123.346 45.3527 123.427 45.2646C123.853 44.8051 124.292 44.3519 124.719 43.8956C126.295 42.2172 127.871 40.5389 129.445 38.8605L132.36 35.7544C132.81 35.2761 133.252 34.7914 133.698 34.3099L133.79 34.2124C133.859 34.1504 133.897 34.0696 133.897 33.9858C133.897 33.902 133.859 33.8212 133.79 33.7592L133.24 33.1707L130.487 30.2094C129.933 29.6209 129.376 29.0356 128.826 28.4471C128.276 27.8586 127.672 27.1883 127.091 26.5747C126.288 25.7124 125.476 24.8533 124.673 23.991C124.419 23.7172 124.161 23.4466 123.903 23.1696C123.803 23.0626 123.719 22.9462 123.596 22.792C123.73 22.792 123.807 22.7668 123.88 22.7668C125.18 22.7668 126.476 22.7668 127.776 22.7668C127.908 22.76 128.041 22.7824 128.159 22.8316C128.277 22.8809 128.378 22.9552 128.449 23.0469C128.872 23.5253 129.314 23.991 129.749 24.4662L133.113 28.1198C134.102 29.1961 135.082 30.2787 136.067 31.3581C136.174 31.4745 136.251 31.6319 136.517 31.6067C136.818 31.3401 137.096 31.0561 137.347 30.757C138.352 29.6912 139.349 28.6202 140.339 27.5439C140.989 26.8422 141.631 26.1372 142.262 25.4355C142.792 24.869 143.331 24.3057 143.861 23.7424C144.108 23.4812 144.358 23.22 144.596 22.9525C144.64 22.8947 144.702 22.8475 144.776 22.816C144.849 22.7844 144.932 22.7696 145.015 22.7731H149.061C149.096 22.7791 149.13 22.7897 149.161 22.8046C149.187 22.9431 149.057 23.028 148.972 23.1193C147.819 24.3498 146.646 25.5739 145.484 26.8013C144.323 28.0286 143.227 29.1898 142.096 30.3857L139.139 33.5169C139.016 33.6459 138.905 33.7812 138.755 33.9354C138.859 34.0645 138.951 34.1935 139.062 34.3099C140.016 35.3233 140.985 36.3303 141.927 37.3405C142.443 37.8849 142.946 38.4356 143.465 38.9801L145.661 41.2899C146.126 41.7777 146.58 42.2718 147.042 42.7627L149.384 45.2394C149.461 45.3244 149.526 45.4156 149.584 45.4911C149.534 45.6044 149.441 45.595 149.361 45.595C148.015 45.595 146.669 45.595 145.315 45.595C145.215 45.5963 145.116 45.5764 145.027 45.5373C144.939 45.4981 144.865 45.4411 144.811 45.3716C144.4 44.9184 143.973 44.4778 143.562 44.0247C142.719 43.0994 141.885 42.1679 141.039 41.2427C140.193 40.3175 139.32 39.3766 138.462 38.4419L136.644 36.4688C136.607 36.409 136.548 36.3604 136.476 36.3298C136.403 36.2993 136.32 36.2884 136.24 36.2988Z" fill="#009506"/>
<path d="M170.279 22.9514C170.366 23.8175 170.366 24.6879 170.279 25.554C170.188 25.5762 170.096 25.5931 170.002 25.6043C169.852 25.6043 169.698 25.6043 169.548 25.6043H162.157C161.388 25.6043 161.388 25.6043 161.388 26.2337C161.388 32.4794 161.388 38.7251 161.388 44.9708C161.388 45.1502 161.388 45.3264 161.388 45.5184C161.31 45.5509 161.225 45.5732 161.138 45.5845H157.666C157.592 45.5788 157.52 45.5661 157.45 45.5467C157.428 45.4689 157.411 45.3901 157.4 45.3107C157.4 45.1596 157.4 44.996 157.4 44.8544V26.4005C157.4 26.262 157.4 26.1236 157.4 25.9851C157.4 25.6704 157.327 25.6232 156.958 25.6106H156.554C155.728 25.6106 154.905 25.6106 154.078 25.6106C153.605 25.6106 153.555 25.5697 153.551 25.1826C153.551 24.5092 153.551 23.8326 153.551 23.156C153.527 23.0279 153.564 22.8971 153.655 22.7909C153.824 22.7399 154.007 22.7248 154.186 22.7469H156.712C157.4 22.7469 157.4 22.7469 157.4 22.1647C157.4 21.7776 157.42 21.3905 157.4 21.0066C157.377 20.2343 157.443 19.462 157.597 18.6999C157.669 18.3612 157.764 18.0261 157.881 17.696C158.038 17.2216 158.257 16.7625 158.535 16.327C159.21 15.2082 160.342 14.3176 161.734 13.8095C162.194 13.6138 162.688 13.478 163.199 13.4066C163.765 13.1895 164.395 13.2934 164.976 13.1486C165.11 13.1328 165.246 13.1328 165.38 13.1486C165.784 13.1486 166.187 13.1486 166.591 13.1486C166.845 13.1486 167.091 13.1895 167.36 13.2084C167.695 13.2336 168.029 13.2587 168.364 13.2776C168.533 13.2692 168.702 13.2985 168.852 13.3626C168.909 13.3937 168.976 13.4101 169.045 13.4098C169.394 13.4452 169.737 13.5127 170.067 13.6112C170.169 13.6207 170.262 13.6614 170.329 13.725C170.395 13.7887 170.43 13.8706 170.425 13.9542C170.431 14.037 170.431 14.12 170.425 14.2028V16.091C170.425 16.2263 170.425 16.3617 170.398 16.5159C170.307 16.5247 170.216 16.5247 170.125 16.5159C169.662 16.3969 169.187 16.3105 168.706 16.2578C168.624 16.2415 168.545 16.2194 168.468 16.1917C168.323 16.1605 168.177 16.1353 168.029 16.1162C167.595 16.0721 167.16 16.0407 166.726 15.9966C166.458 15.9651 166.187 15.9715 165.922 16.0155C165.659 16.061 165.394 16.0926 165.126 16.1099C164.793 16.1447 164.47 16.2245 164.168 16.3459C162.976 16.733 162.276 17.4977 161.842 18.4513C161.654 18.8635 161.604 19.3072 161.457 19.7321C161.428 19.8543 161.417 19.979 161.423 20.1034C161.423 20.9027 161.423 21.7021 161.423 22.5014C161.427 22.6141 161.439 22.7264 161.457 22.8381C161.555 22.865 161.656 22.886 161.757 22.9011C161.927 22.9011 162.096 22.9011 162.261 22.9011H169.644C169.858 22.8847 170.073 22.9018 170.279 22.9514Z" fill="#009506"/>
<path d="M217.239 22.7724C217.397 22.7724 217.562 22.7535 217.728 22.7535H220.458C220.654 22.7778 220.853 22.7526 221.031 22.6811C221.058 22.6125 221.077 22.5419 221.089 22.4703C221.089 22.2783 221.089 22.0832 221.089 21.8913V16.4281C221.089 16.2645 221.089 16.1134 221.089 15.9214C221.19 15.8961 221.294 15.8793 221.4 15.8711C222.513 15.8711 223.625 15.8711 224.738 15.8711C224.838 15.878 224.937 15.8906 225.034 15.9089C225.084 16.0733 225.101 16.2434 225.084 16.4124V22.2028C225.06 22.3613 225.077 22.5222 225.134 22.6749C225.286 22.7508 225.467 22.7778 225.642 22.7504H233.333C233.517 22.7504 233.717 22.7504 233.856 22.7504C233.907 22.8029 233.945 22.8635 233.967 22.9285C233.989 22.9934 233.994 23.0613 233.983 23.128C233.983 23.8162 233.983 24.5064 233.983 25.1987C233.988 25.2668 233.988 25.3352 233.983 25.4033C233.982 25.4347 233.974 25.4658 233.958 25.4944C233.942 25.5231 233.919 25.5487 233.891 25.5697C233.862 25.5907 233.829 25.6067 233.792 25.6165C233.756 25.6263 233.717 25.6298 233.679 25.6267C233.51 25.6267 233.34 25.6267 233.171 25.6267H225.945C225.76 25.6189 225.574 25.6189 225.388 25.6267C225.199 25.6267 225.13 25.7085 225.115 25.8722C225.109 25.955 225.109 26.038 225.115 26.1208V39.0674C225.115 39.2751 225.115 39.4828 225.115 39.6968C225.115 39.9108 225.184 40.0493 225.223 40.2224C225.223 40.3042 225.273 40.3829 225.296 40.4647C225.394 40.9192 225.623 41.348 225.964 41.7157C226.305 42.0834 226.748 42.3795 227.257 42.5795C227.988 42.8618 228.786 43.009 229.595 43.0106C230.268 43.0303 230.941 42.9881 231.602 42.8847C231.931 42.8276 232.255 42.753 232.571 42.6613C232.979 42.5449 233.379 42.4064 233.806 42.2711C233.833 42.3277 233.879 42.3718 233.879 42.419C233.879 43.2875 233.879 44.1561 233.879 45.0373C233.422 45.2676 232.929 45.4455 232.414 45.566C232.029 45.6667 231.644 45.7548 231.26 45.846C231.177 45.8591 231.094 45.8675 231.01 45.8712C230.71 45.909 230.414 45.9562 230.114 45.9814C229.262 46.0707 228.398 46.0622 227.549 45.9562C227.423 45.9281 227.294 45.907 227.164 45.8932C226.427 45.8394 225.707 45.683 225.034 45.4306C223.695 44.9905 222.6 44.1628 221.958 43.105C221.753 42.7593 221.583 42.4004 221.45 42.0319C221.296 41.6511 221.308 41.2452 221.135 40.8675C221.105 40.7741 221.095 40.6773 221.104 40.5811C221.104 40.3451 221.104 40.1122 221.104 39.8762V26.3411C221.104 26.19 221.104 26.0264 221.104 25.8848C221.103 25.8357 221.08 25.7887 221.039 25.7523C220.999 25.7159 220.944 25.6925 220.885 25.6865C220.718 25.6655 220.55 25.6539 220.381 25.6519C219.589 25.6519 218.797 25.6519 218.008 25.6519H217.805C217.189 25.6519 217.189 25.6519 217.185 25.1421V23.2004C217.158 23.0563 217.176 22.9088 217.239 22.7724Z" fill="#009506"/>
<path d="M181.193 45.5727C179.981 45.6011 178.801 45.5727 177.624 45.5727C177.521 45.5654 177.418 45.5528 177.317 45.535C177.294 45.4665 177.276 45.3972 177.263 45.3273C177.263 45.2171 177.263 45.107 177.263 45.0126C177.263 37.7745 177.263 30.5365 177.263 23.2984C177.24 23.1264 177.257 22.9524 177.313 22.7855C177.386 22.7621 177.462 22.7462 177.54 22.7383H180.977C181.051 22.7452 181.123 22.7579 181.193 22.776C181.223 22.85 181.246 22.9257 181.262 23.0026C181.262 23.1411 181.262 23.2796 181.262 23.418V44.9245C181.293 45.1422 181.27 45.3628 181.193 45.5727Z" fill="#009506"/>
<path d="M181.458 14.0862C181.458 14.2562 181.488 14.4009 181.488 14.5268C181.488 15.4206 181.488 16.3143 181.488 17.208C181.488 17.6769 181.458 17.699 180.892 17.7021H177.278C176.993 17.6832 176.924 17.636 176.924 17.3874C176.924 16.3384 176.924 15.2894 176.924 14.2404C176.929 14.1987 176.939 14.1576 176.955 14.1177C177.105 13.9887 177.301 14.0296 177.478 14.0296H180.739C180.873 14.0296 181.008 14.0296 181.142 14.0296C181.277 14.0296 181.312 14.0674 181.458 14.0862Z" fill="#009506"/>
<path d="M0.00105573 6.50816C-0.020886 7.61864 0.29951 8.71573 0.932644 9.69809C1.56578 10.6804 2.49123 11.5164 3.6235 12.1287L27.3424 24.9526C27.9747 25.2999 28.4921 25.7699 28.8485 26.3206C29.205 26.8713 29.3893 27.4857 29.3851 28.1089C29.3809 28.732 29.1883 29.3447 28.8245 29.8922C28.4607 30.4396 27.937 30.9049 27.3001 31.2465L4.05419 43.5197C2.911 44.1229 1.97251 44.9526 1.32579 45.9319C0.679079 46.9112 0.345097 48.0083 0.35484 49.1214V49.4361C0.416368 55.2894 9.05716 58.1909 14.1255 54.0621L42.7013 30.7745C43.1302 30.4253 43.4706 30.0102 43.7028 29.5531C43.9351 29.0959 44.0546 28.6057 44.0546 28.1106C44.0546 27.6155 43.9351 27.1253 43.7028 26.6681C43.4706 26.2109 43.1302 25.7958 42.7013 25.4467L13.7602 1.93246C8.71492 -2.1712 0.120266 0.686259 0.00105573 6.50816Z" fill="#009506"/>
<path d="M6.20276 19.8125H4.64534C3.06948 19.8125 1.79199 20.8579 1.79199 22.1476V33.87C1.79199 35.1597 3.06948 36.2051 4.64534 36.2051H6.20276C7.77862 36.2051 9.0561 35.1597 9.0561 33.87V22.1476C9.0561 20.8579 7.77862 19.8125 6.20276 19.8125Z" fill="#009506"/>
</svg>
