<svg width="14" height="13" viewBox="0 0 14 13" fill="none" xmlns="http://www.w3.org/2000/svg">
<path d="M7 4C7.19891 4 7.38968 3.92098 7.53033 3.78033C7.67098 3.63968 7.75 3.44891 7.75 3.25C7.75 3.05109 7.67098 2.86032 7.53033 2.71967C7.38968 2.57902 7.19891 2.5 7 2.5C6.80109 2.5 6.61032 2.57902 6.46967 2.71967C6.32902 2.86032 6.25 3.05109 6.25 3.25C6.25 3.44891 6.32902 3.63968 6.46967 3.78033C6.61032 3.92098 6.80109 4 7 4Z" fill="white"/>
<path d="M7.73593 0.454226C7.52789 0.285161 7.268 0.192871 6.99993 0.192871C6.73186 0.192871 6.47196 0.285161 6.26393 0.454226L1.26193 4.52023C0.653929 5.01523 1.00393 6.00023 1.78793 6.00023H1.99993V10.2002C1.40593 10.5032 0.999929 11.1202 0.999929 11.8332V12.5002C0.999929 12.6328 1.05261 12.76 1.14638 12.8538C1.24014 12.9475 1.36732 13.0002 1.49993 13.0002H12.4999C12.6325 13.0002 12.7597 12.9475 12.8535 12.8538C12.9473 12.76 12.9999 12.6328 12.9999 12.5002V11.8332C12.9999 11.1212 12.5939 10.5032 11.9999 10.2002V6.00023H12.2119C12.9959 6.00023 13.3459 5.01523 12.7369 4.52023L7.73693 0.454226H7.73593ZM6.89593 1.23023C6.92565 1.2062 6.96271 1.19309 7.00093 1.19309C7.03915 1.19309 7.07621 1.2062 7.10593 1.23023L11.7409 5.00023H2.25793L6.89593 1.23023ZM10.9999 10.0002H9.99993V6.00023H10.9999V10.0002ZM8.99993 10.0002H7.49993V6.00023H8.99993V10.0002ZM6.49993 10.0002H4.99993V6.00023H6.49993V10.0002ZM11.1669 11.0002C11.6269 11.0002 11.9999 11.3732 11.9999 11.8332V12.0002H1.99993V11.8332C1.99993 11.3732 2.37293 11.0002 2.83293 11.0002H11.1669ZM3.99993 10.0002H2.99993V6.00023H3.99993V10.0002Z" fill="white"/>
</svg>
