<svg width="38" height="38" viewBox="0 0 38 38" fill="none" xmlns="http://www.w3.org/2000/svg">
<path fill-rule="evenodd" clip-rule="evenodd" d="M25.4227 13.5595C25.4227 15.3575 24.7085 17.0818 23.4371 18.3531C22.1658 19.6245 20.4414 20.3387 18.6435 20.3387C16.8455 20.3387 15.1212 19.6245 13.8498 18.3531C12.5785 17.0818 11.8643 15.3575 11.8643 13.5595C11.8643 11.7615 12.5785 10.0372 13.8498 8.76586C15.1212 7.49451 16.8455 6.78027 18.6435 6.78027C20.4414 6.78027 22.1658 7.49451 23.4371 8.76586C24.7085 10.0372 25.4227 11.7615 25.4227 13.5595ZM22.0331 13.5595C22.0331 14.4585 21.676 15.3206 21.0403 15.9563C20.4046 16.592 19.5425 16.9491 18.6435 16.9491C17.7445 16.9491 16.8823 16.592 16.2467 15.9563C15.611 15.3206 15.2539 14.4585 15.2539 13.5595C15.2539 12.6605 15.611 11.7984 16.2467 11.1627C16.8823 10.527 17.7445 10.1699 18.6435 10.1699C19.5425 10.1699 20.4046 10.527 21.0403 11.1627C21.676 11.7984 22.0331 12.6605 22.0331 13.5595Z" fill="#009506"/>
<path fill-rule="evenodd" clip-rule="evenodd" d="M18.6429 0C8.34692 0 0 8.34692 0 18.6429C0 28.9388 8.34692 37.2857 18.6429 37.2857C28.9388 37.2857 37.2857 28.9388 37.2857 18.6429C37.2857 8.34692 28.9388 0 18.6429 0ZM3.38961 18.6429C3.38961 22.185 4.59801 25.4458 6.6233 28.0355C8.04563 26.1676 9.88054 24.6539 11.9847 23.6126C14.0889 22.5712 16.4053 22.0304 18.753 22.0325C21.0704 22.0303 23.3577 22.5571 25.4406 23.5727C27.5235 24.5883 29.3472 26.066 30.7726 27.8931C32.241 25.9671 33.2298 23.7192 33.657 21.3352C34.0841 18.9512 33.9375 16.4998 33.2292 14.1838C32.5209 11.8678 31.2712 9.75368 29.5836 8.01649C27.8961 6.2793 25.8191 4.96893 23.5245 4.19381C21.23 3.41869 18.7839 3.2011 16.3885 3.55905C13.9932 3.91699 11.7175 4.84018 9.74982 6.25223C7.78212 7.66427 6.17894 9.52459 5.07294 11.6792C3.96694 13.8339 3.38992 16.2209 3.38961 18.6429ZM18.6429 33.8961C15.1413 33.9014 11.7455 32.6968 9.02992 30.4862C10.123 28.9214 11.5778 27.6438 13.2707 26.7621C14.9635 25.8804 16.8443 25.4207 18.753 25.4221C20.6379 25.4206 22.496 25.8688 24.1729 26.7295C25.8498 27.5902 27.2972 28.8386 28.3948 30.3709C25.6582 32.6533 22.2063 33.9011 18.6429 33.8961Z" fill="#009506"/>
</svg>
