<svg width="22" height="21" viewBox="0 0 22 21" fill="none" xmlns="http://www.w3.org/2000/svg">
<path d="M11 21C17.0751 21 22 16.299 22 10.5C22 4.70101 17.0751 0 11 0C4.92487 0 0 4.70101 0 10.5C0 16.299 4.92487 21 11 21Z" fill="#009706"/>
<path d="M16.2228 1.25696C17.3428 2.9016 17.9939 4.86399 17.9939 6.97183C17.9939 12.7708 13.0691 17.4718 6.99394 17.4718C5.10374 17.4718 3.32501 17.0165 1.77117 16.2149C3.73261 19.095 7.13303 21 11 21C17.0751 21 22 16.299 22 10.5C22 6.50532 19.6629 3.03183 16.2228 1.25696V1.25696Z" fill="#009506"/>
<path d="M11 19.6431C16.29 19.6431 20.5784 15.5496 20.5784 10.5001C20.5784 5.45052 16.29 1.35706 11 1.35706C5.71003 1.35706 1.42165 5.45052 1.42165 10.5001C1.42165 15.5496 5.71003 19.6431 11 19.6431Z" fill="#D8F6EF"/>
<path d="M17.4679 3.75671C17.809 4.77009 17.994 5.85027 17.994 6.97185C17.994 12.7708 13.0691 17.4718 6.99395 17.4718C6.12843 17.4718 5.28641 17.3761 4.47852 17.1957C6.18854 18.7139 8.48041 19.643 11 19.643C16.29 19.643 20.5784 15.5495 20.5784 10.5C20.5784 7.83039 19.3795 5.42822 17.4679 3.75671Z" fill="#C6F2E7"/>
<path d="M8.25018 6.06728C8.24635 6.29632 8.30235 6.5226 8.41301 6.72521C8.52367 6.92782 8.68542 7.10023 8.88333 7.22651L13.029 9.87145C13.1395 9.94308 13.2299 10.04 13.2922 10.1536C13.3545 10.2672 13.3867 10.3939 13.386 10.5224C13.3853 10.651 13.3516 10.7773 13.288 10.8902C13.2245 11.0031 13.1329 11.0991 13.0216 11.1696L8.9586 13.7009C8.75879 13.8253 8.59476 13.9965 8.48173 14.1984C8.36869 14.4004 8.31032 14.6267 8.31202 14.8563V14.9212C8.32277 16.1284 9.83304 16.7269 10.7189 15.8753L15.7135 11.0722C15.7884 11.0002 15.8479 10.9146 15.8885 10.8203C15.9291 10.726 15.95 10.6249 15.95 10.5228C15.95 10.4207 15.9291 10.3196 15.8885 10.2253C15.8479 10.131 15.7884 10.0454 15.7135 9.97335L10.655 5.12355C9.77322 4.27717 8.27102 4.86652 8.25018 6.06728Z" fill="#009506"/>
<path d="M8.91792 8.92505H8.68208C8.44345 8.92505 8.25 9.12594 8.25 9.37375V11.6263C8.25 11.8742 8.44345 12.075 8.68208 12.075H8.91792C9.15655 12.075 9.35 11.8742 9.35 11.6263V9.37375C9.35 9.12594 9.15655 8.92505 8.91792 8.92505Z" fill="#009506"/>
</svg>
