<svg width="108" height="32" viewBox="0 0 108 32" fill="none" xmlns="http://www.w3.org/2000/svg">
<path d="M62.879 20.7432C62.9185 20.732 62.9606 20.735 62.9981 20.7518C63.0357 20.7685 63.0663 20.7978 63.0849 20.8349L63.9244 21.9624C64.3202 22.5019 64.7195 23.0288 65.1135 23.5629C65.5076 24.0969 65.8891 24.6238 66.2778 25.1525C66.4677 25.4115 66.6647 25.6632 66.8547 25.9222C66.8793 25.9619 66.9137 25.9945 66.9544 26.0169C66.9951 26.0392 67.0408 26.0506 67.0872 26.0499C67.7101 26.0499 68.3295 26.0499 68.9543 26.0499C68.9916 26.0499 69.0342 26.0499 69.0572 25.9905C69.0306 25.9474 69.0004 25.8952 68.9649 25.8467L67.8841 24.4314C67.6711 24.1509 67.4617 23.8686 67.2469 23.5898L66.2335 22.2699C65.9956 21.9588 65.7631 21.6441 65.5235 21.333C65.0834 20.7557 64.6361 20.1803 64.2013 19.6013C64.1498 19.5347 64.1072 19.461 64.0593 19.3873C64.1214 19.2991 64.1729 19.2218 64.2368 19.1481L65.6016 17.3588C66.1234 16.6755 66.6446 15.9927 67.1652 15.3106C67.6977 14.6093 68.2408 13.9097 68.775 13.2066C68.8141 13.1545 68.8744 13.1059 68.862 13.0268C68.8477 13.0183 68.8321 13.0122 68.8159 13.0088H66.9487C66.9104 13.0068 66.8722 13.0153 66.8382 13.0333C66.8042 13.0513 66.7755 13.0782 66.7553 13.1113C66.6452 13.2642 66.5299 13.4134 66.4163 13.5627C66.166 13.8774 65.9175 14.2064 65.6691 14.5229C65.3691 14.924 65.0727 15.3268 64.7816 15.7278C64.3237 16.3416 63.8635 16.9536 63.4008 17.5638C63.2847 17.7348 63.1565 17.897 63.0175 18.0494C62.895 18.0637 62.8595 17.9738 62.8098 17.9073C62.3554 17.2905 61.9029 16.6719 61.4467 16.0569L59.8937 13.9691C59.6932 13.6993 59.4891 13.4296 59.2938 13.1581C59.2609 13.1057 59.2148 13.0632 59.1601 13.035C59.1055 13.0069 59.0444 12.9941 58.9832 12.998C58.3833 12.998 57.7852 12.998 57.1853 12.998C57.1516 12.998 57.1161 12.998 57.054 13.0124C57.1108 13.1005 57.1498 13.167 57.196 13.2282C57.3096 13.3864 57.4285 13.5411 57.5509 13.6975C57.9219 14.1903 58.2964 14.6812 58.6673 15.1739C58.9353 15.5336 59.1998 15.8932 59.4678 16.2439C59.7358 16.5945 59.9789 16.9146 60.2345 17.2509L61.5053 18.9359L61.7591 19.2722C61.7909 19.3076 61.8085 19.3538 61.8085 19.4017C61.8085 19.4495 61.7909 19.4957 61.7591 19.5311L61.7165 19.5869C61.5106 19.862 61.3065 20.1389 61.0988 20.4123L59.7535 22.1872C59.0258 23.1463 58.2987 24.1053 57.5722 25.0644C57.3752 25.3252 57.1729 25.5841 56.9759 25.8467C56.9386 25.897 56.8712 25.9438 56.9049 26.0355C56.9457 26.0355 56.983 26.0355 57.022 26.0355H58.8182C58.8495 26.0368 58.8806 26.0303 58.9087 26.0165C58.9369 26.0026 58.9613 25.982 58.9797 25.9564C59.0063 25.9186 59.04 25.8844 59.0684 25.8485C59.3826 25.4295 59.6967 25.0123 60.0091 24.5897L61.7467 22.2519C61.9845 21.9318 62.2188 21.6099 62.4566 21.2898C62.5897 21.1154 62.7388 20.9248 62.879 20.7432Z" fill="#DAAA02"/>
<path d="M78.5899 13.1149C78.4901 13.0839 78.385 13.0735 78.2811 13.0844H74.8734C74.7971 13.0844 74.719 13.0844 74.6409 13.0844C74.594 13.0758 74.5477 13.0637 74.5025 13.0484C74.4939 12.9846 74.4886 12.9204 74.4865 12.856C74.4865 12.3992 74.4865 11.9425 74.4865 11.4857C74.4837 11.4146 74.489 11.3434 74.5025 11.2735C74.5664 11.0307 74.5894 10.7772 74.68 10.5416C74.8805 10.0021 75.2124 9.55975 75.7537 9.33856C75.8927 9.26918 76.042 9.22361 76.1957 9.20369C76.3192 9.19378 76.4419 9.17576 76.5631 9.14975C76.6852 9.12462 76.8107 9.12097 76.934 9.13896C77.1346 9.16413 77.3351 9.18212 77.5357 9.20729C77.6038 9.21822 77.6713 9.23263 77.738 9.25045C77.7735 9.26624 77.8104 9.27887 77.848 9.28821C78.0701 9.31833 78.2892 9.36767 78.503 9.43567C78.5448 9.44073 78.5871 9.44073 78.629 9.43567C78.629 9.34756 78.6414 9.27023 78.6414 9.1929V8.09236C78.6441 8.04505 78.6441 7.99761 78.6414 7.9503C78.6435 7.90252 78.6276 7.85572 78.597 7.81933C78.5664 7.78295 78.5232 7.75971 78.4763 7.75429C78.3238 7.69802 78.1654 7.65941 78.0042 7.6392C77.9727 7.6394 77.9417 7.63 77.9155 7.61222C77.8461 7.57563 77.7682 7.55884 77.6901 7.56367C77.5357 7.55288 77.3813 7.53849 77.2269 7.52411C77.1097 7.51332 76.9961 7.49354 76.8719 7.48994C76.6855 7.48994 76.4992 7.48994 76.3128 7.48994C76.251 7.48089 76.1883 7.48089 76.1265 7.48994C75.8585 7.57266 75.5674 7.51332 75.3065 7.6374C75.0707 7.67814 74.8425 7.7558 74.6303 7.86758C73.9875 8.15796 73.4652 8.66685 73.1536 9.3062C73.0252 9.55505 72.9241 9.81735 72.8519 10.0884C72.7978 10.2771 72.754 10.4686 72.7205 10.6621C72.6496 11.0976 72.6193 11.5389 72.63 11.9802C72.6407 12.1996 72.63 12.4208 72.63 12.642C72.63 12.9729 72.63 12.9729 72.3123 12.9747H71.1462C71.0638 12.962 70.9796 12.9707 70.9013 12.9998C70.8595 13.0605 70.8423 13.1353 70.8534 13.2084C70.8534 13.5951 70.8534 13.9817 70.8534 14.3665C70.8534 14.5877 70.8782 14.6111 71.0966 14.6111C71.4781 14.6111 71.858 14.6111 72.2396 14.6111H72.4259C72.6034 14.6111 72.6229 14.6471 72.63 14.8251C72.63 14.9042 72.63 14.9833 72.63 15.0625V25.6039C72.63 25.6903 72.63 25.7838 72.63 25.8647C72.6351 25.9101 72.6428 25.9551 72.6531 25.9996C72.6853 26.0106 72.7186 26.0179 72.7525 26.0211H74.3658C74.406 26.0147 74.4449 26.0019 74.4812 25.9834C74.4812 25.8737 74.4812 25.773 74.4812 25.6705C74.4812 22.1027 74.4812 18.5337 74.4812 14.9636C74.4812 14.6039 74.4812 14.6039 74.8361 14.6039H78.2421C78.3113 14.6039 78.3823 14.6039 78.4515 14.6039C78.4947 14.5975 78.5374 14.5879 78.5793 14.5751C78.6214 14.0895 78.625 13.6012 78.5899 13.1149Z" fill="#DAAA02"/>
<path d="M100.264 13.0125C100.232 13.0895 100.219 13.1738 100.229 13.2571V14.3666C100.229 14.6544 100.229 14.6544 100.515 14.658H100.609C100.964 14.658 101.338 14.658 101.704 14.658C101.782 14.6591 101.859 14.6657 101.936 14.6777C101.964 14.6812 101.989 14.6945 102.008 14.7153C102.026 14.7361 102.037 14.763 102.037 14.791C102.037 14.8774 102.037 14.9709 102.037 15.0518V22.8041C102.037 22.939 102.037 23.0721 102.037 23.2069C102.033 23.2619 102.038 23.3172 102.052 23.3706C102.131 23.5864 102.126 23.8184 102.197 24.036C102.259 24.2465 102.337 24.4516 102.431 24.6492C102.728 25.2536 103.233 25.7266 103.851 25.9781C104.162 26.1223 104.494 26.2117 104.835 26.2424C104.894 26.2503 104.954 26.2623 105.012 26.2784C105.404 26.339 105.803 26.3438 106.196 26.2928C106.334 26.2784 106.471 26.2514 106.609 26.2298C106.648 26.2277 106.687 26.2229 106.725 26.2155C106.902 26.1633 107.08 26.113 107.257 26.0554C107.495 25.9866 107.723 25.8849 107.933 25.7533C107.933 25.2498 107.933 24.7535 107.933 24.2571C107.933 24.2302 107.912 24.205 107.9 24.1726C107.703 24.2499 107.518 24.3291 107.33 24.3956C107.184 24.448 107.034 24.4906 106.883 24.5233C106.578 24.5823 106.267 24.6065 105.956 24.5952C105.588 24.5919 105.226 24.5079 104.893 24.3488C104.658 24.2346 104.454 24.0654 104.297 23.8553C104.139 23.6452 104.033 23.4001 103.988 23.1404C103.977 23.0937 103.961 23.0487 103.954 23.0019C103.936 22.903 103.913 22.8023 103.905 22.7016C103.896 22.6009 103.905 22.4661 103.905 22.342V14.9493C103.902 14.902 103.902 14.8545 103.905 14.8072C103.905 14.7137 103.944 14.6759 104.031 14.667C104.116 14.6625 104.202 14.6625 104.288 14.667H107.623C107.701 14.667 107.779 14.667 107.857 14.667C107.875 14.6687 107.893 14.6667 107.909 14.6611C107.926 14.6555 107.942 14.6464 107.955 14.6344C107.968 14.6224 107.979 14.6077 107.986 14.5914C107.993 14.575 107.997 14.5572 107.997 14.5393C108 14.5004 108 14.4613 107.997 14.4224C107.997 14.0268 107.997 13.6324 107.997 13.2391C108.003 13.201 108 13.1622 107.99 13.1251C107.98 13.088 107.962 13.0534 107.939 13.0233C107.866 13.0233 107.783 13.0233 107.697 13.0233H104.148C104.067 13.039 103.983 13.0236 103.913 12.9802C103.887 12.8929 103.879 12.801 103.89 12.7104V9.37644C103.898 9.2799 103.89 9.1827 103.867 9.08872C103.822 9.0783 103.777 9.07108 103.731 9.06714C103.216 9.06714 102.702 9.06714 102.19 9.06714C102.141 9.07182 102.093 9.08146 102.046 9.09591C102.046 9.19841 102.046 9.29192 102.046 9.38543V12.5072C102.046 12.6169 102.046 12.7284 102.046 12.8381C102.041 12.879 102.032 12.9194 102.02 12.9586C101.938 12.9994 101.845 13.0138 101.755 13H100.495C100.413 13.0018 100.337 13.009 100.264 13.0125Z" fill="#DAAA02"/>
<path d="M83.6279 26.0409C83.665 25.92 83.6771 25.7927 83.6634 25.6668V13.3774C83.6634 13.2983 83.6634 13.2192 83.6634 13.1401C83.6561 13.0961 83.6454 13.0528 83.6314 13.0106C83.599 13.0002 83.5658 12.993 83.532 12.989H81.9453C81.9094 12.9935 81.8743 13.0026 81.8406 13.016C81.8163 13.111 81.8097 13.2098 81.8211 13.3073C81.8211 17.4433 81.8211 21.5794 81.8211 25.7154C81.8211 25.7783 81.8211 25.8413 81.8211 25.8952C81.8273 25.9352 81.8356 25.9748 81.8459 26.0139C81.8928 26.0241 81.9402 26.0313 81.9879 26.0355C82.531 26.0463 83.0635 26.0571 83.6279 26.0409Z" fill="#DAAA02"/>
<path d="M83.7495 8.04887C83.6821 8.03808 83.6466 8.02729 83.6075 8.02549C83.5685 8.02369 83.4833 8.02549 83.4212 8.02549H81.909C81.8273 8.02549 81.7315 8.00212 81.6676 8.07584C81.6603 8.09862 81.6556 8.12214 81.6534 8.14598C81.6534 8.7454 81.6534 9.34482 81.6534 9.94425C81.6534 10.0827 81.6854 10.1097 81.8167 10.1241H83.4921C83.7531 10.1241 83.7672 10.1097 83.7672 9.84175C83.7672 9.33104 83.7672 8.82033 83.7672 8.30962C83.7726 8.2233 83.7548 8.14598 83.7495 8.04887Z" fill="#DAAA02"/>
<path d="M26.1312 26.0445C26.1214 25.9976 26.1149 25.9502 26.1117 25.9024V8.40161C26.1568 8.38587 26.2031 8.37384 26.2502 8.36565C26.3194 8.36565 26.3904 8.36565 26.4596 8.36565H32.0131H32.7372C32.7835 8.36406 32.8299 8.36707 32.8756 8.37464C33.12 8.42406 33.3683 8.45115 33.6175 8.45556C33.6562 8.4572 33.6947 8.46141 33.7329 8.46815C34.008 8.5185 34.2849 8.55986 34.5546 8.6264C34.8244 8.69293 35.1244 8.76306 35.403 8.86197C35.7172 8.97346 36.0313 9.07956 36.3366 9.22162C36.9467 9.49206 37.5244 9.83235 38.0582 10.2358C39.246 11.1211 40.1712 12.3197 40.7329 13.7011C40.8535 13.9978 40.96 14.2981 41.0559 14.6003C41.1517 14.9024 41.1712 15.1865 41.2476 15.4742C41.3381 15.8105 41.3079 16.163 41.3913 16.501C41.4045 16.5709 41.4086 16.6422 41.4037 16.7132C41.4037 17.0207 41.4037 17.3264 41.4037 17.6339C41.4037 17.7292 41.3878 17.8228 41.3789 17.9163C41.3594 18.1123 41.3434 18.3083 41.315 18.5025C41.2831 18.7273 41.2422 18.9521 41.1979 19.1751C41.1606 19.3549 41.1144 19.5347 41.0683 19.7253C41.0399 19.8386 41.0062 19.9519 40.9671 20.0616C40.6543 21.0012 40.1849 21.8794 39.5792 22.6583C39.1844 23.1524 38.7407 23.6044 38.2552 24.007C37.9848 24.2293 37.7008 24.4341 37.405 24.6202C37.1246 24.8001 36.8211 24.9439 36.5176 25.0968C36.1663 25.277 35.7998 25.425 35.4225 25.5391C35.2045 25.6168 34.9808 25.6769 34.7534 25.719C34.6221 25.8035 34.4606 25.7657 34.3275 25.8233C34.1931 25.8593 34.0559 25.8833 33.9175 25.8952C33.5588 25.9635 33.1958 26.0067 32.8313 26.0247C32.5451 26.0499 32.2576 26.0571 31.9705 26.0463C30.282 26.0463 28.5941 26.0463 26.9069 26.0463C26.7294 26.0463 26.5519 26.0463 26.3744 26.0463C26.307 26.0552 26.2306 26.0481 26.1312 26.0445ZM28.0836 24.2462C28.1865 24.2462 28.2717 24.257 28.3551 24.257H32.3219C32.5945 24.2723 32.8678 24.2468 33.133 24.1814C33.1706 24.1715 33.2096 24.1678 33.2484 24.1707C33.5275 24.1616 33.8046 24.1187 34.0737 24.043C34.3145 23.993 34.5517 23.9263 34.7836 23.8434C35.1425 23.7234 35.492 23.5761 35.829 23.4028C36.391 23.1169 36.9084 22.7485 37.3642 22.3094C37.9412 21.7475 38.4117 21.0832 38.7521 20.3493C38.8409 20.1587 38.9154 19.9609 38.9864 19.7631C39.0753 19.5205 39.1488 19.2725 39.2065 19.0204C39.2473 18.8406 39.2615 18.6464 39.3112 18.4647C39.3535 18.2881 39.3755 18.107 39.3769 17.9253C39.3679 17.7046 39.3804 17.4835 39.4142 17.2653C39.4212 17.2188 39.4212 17.1715 39.4142 17.125C39.4053 17.0225 39.3893 16.9218 39.3875 16.8211C39.4016 16.5373 39.3735 16.253 39.3041 15.9777C39.2955 15.9315 39.2913 15.8845 39.2917 15.8375C39.2883 15.7825 39.2812 15.7278 39.2704 15.6738C39.1691 15.2224 39.0326 14.7798 38.8622 14.3503C38.729 14.0243 38.5699 13.7098 38.3865 13.4098C38.0371 12.842 37.601 12.3339 37.0944 11.9046C36.9933 11.8183 36.8921 11.7248 36.7874 11.6529C36.4088 11.3548 35.998 11.1014 35.5627 10.8976C35.1243 10.6851 34.6618 10.5281 34.1855 10.4301C34.162 10.4286 34.1391 10.4225 34.118 10.4121C34.0213 10.3606 33.913 10.3358 33.8039 10.3401C33.7573 10.3409 33.711 10.333 33.6672 10.3168C33.5435 10.2678 33.4112 10.2452 33.2785 10.2502C33.2089 10.2525 33.1392 10.2465 33.0709 10.2323C32.8043 10.1761 32.5318 10.1537 32.2598 10.1657C30.9772 10.1657 29.6934 10.1657 28.4084 10.1657C28.3386 10.1621 28.2687 10.1621 28.1989 10.1657C28.1505 10.1746 28.103 10.1878 28.057 10.2053C28.057 10.3132 28.0463 10.4139 28.0463 10.5164V23.9171C28.0463 23.98 28.0463 24.043 28.0463 24.1059C28.053 24.1538 28.0624 24.2012 28.0747 24.248L28.0836 24.2462Z" fill="#DAAA02"/>
<path d="M55.0648 20.2128C54.9371 20.2128 54.8288 20.2128 54.7205 20.2128H45.2234C45.1293 20.2128 45.037 20.2128 44.9429 20.2128C44.9272 20.2125 44.9115 20.2155 44.897 20.2216C44.8824 20.2277 44.8692 20.2368 44.8583 20.2482C44.8473 20.2597 44.8387 20.2733 44.8332 20.2882C44.8276 20.3032 44.8251 20.3191 44.8258 20.3351C44.8294 20.4364 44.8401 20.5373 44.8577 20.6372C44.8758 20.6961 44.8901 20.7562 44.9003 20.817C44.9164 21.0022 44.9594 21.184 45.0281 21.3565C45.2181 21.9968 45.5372 22.5902 45.9652 23.099C46.3583 23.5587 46.8419 23.9299 47.3851 24.1887C47.733 24.3615 48.1036 24.4826 48.4855 24.5484C48.9267 24.6448 49.3799 24.6715 49.8291 24.6275C50.1361 24.5826 50.4449 24.5466 50.7484 24.4837C50.9609 24.4383 51.1689 24.3733 51.3696 24.2895C51.7018 24.1611 52.0199 23.9984 52.3192 23.8039C52.5717 23.6361 52.8136 23.4523 53.0433 23.2536C53.1498 23.1637 53.2492 23.063 53.3521 22.9677C53.3965 22.9264 53.4462 22.8886 53.4977 22.8436C53.7136 22.9865 53.9126 23.1543 54.0905 23.3436C54.2859 23.5032 54.4703 23.6762 54.6424 23.8615C54.6144 23.9099 54.583 23.9562 54.5484 23.9999C54.227 24.3633 53.8742 24.6967 53.4941 24.9962C53.1896 25.225 52.868 25.4294 52.5321 25.6076C52.094 25.8222 51.6363 25.9933 51.1655 26.1183C50.9099 26.1345 50.6703 26.2514 50.4094 26.2406C50.3497 26.2364 50.2897 26.2425 50.232 26.2586C50.0128 26.3138 49.7865 26.3345 49.5611 26.3197C49.412 26.3197 49.2647 26.3197 49.1174 26.3197C48.954 26.3254 48.7907 26.3103 48.631 26.2747C48.5322 26.2537 48.4319 26.2399 48.3311 26.2334C48.23 26.2357 48.1295 26.2161 48.0365 26.1758C48.0087 26.1618 47.9786 26.1533 47.9477 26.1507C47.5818 26.0875 47.2244 25.9812 46.8828 25.8342C46.5227 25.6909 46.1783 25.5101 45.8552 25.2947C45.6777 25.1796 45.5002 25.0591 45.344 24.935C44.7342 24.4463 44.2217 23.8446 43.8337 23.1619C43.6345 22.8075 43.4647 22.437 43.3261 22.0542C43.2426 21.8276 43.2089 21.5831 43.1326 21.3529C43.0563 21.1227 43.0687 20.853 42.9888 20.612C42.9713 20.5434 42.9653 20.4722 42.9711 20.4016C42.9711 19.8423 42.9711 19.2831 42.9711 18.7238C42.9789 18.6222 42.9937 18.5212 43.0155 18.4217C43.0155 18.3839 43.0385 18.3462 43.0421 18.3066C43.084 17.8901 43.1728 17.4799 43.3065 17.0838C43.409 16.7627 43.5397 16.4515 43.697 16.1541C44.0117 15.5227 44.426 14.9475 44.9234 14.4511C45.2917 14.0904 45.7024 13.7769 46.1463 13.5178C46.502 13.3115 46.8794 13.1462 47.2715 13.0251C47.4293 12.9574 47.5962 12.9144 47.7667 12.8974C47.8047 12.8918 47.8421 12.8828 47.8785 12.8704C47.9602 12.8477 48.0432 12.8303 48.127 12.8183C48.3138 12.8174 48.4996 12.7901 48.679 12.7374C48.7248 12.7292 48.7716 12.7292 48.8174 12.7374H49.2842C49.4222 12.7299 49.5605 12.7402 49.696 12.7679C49.8256 12.795 49.9576 12.8095 50.09 12.8111C50.1835 12.8088 50.2765 12.8259 50.3633 12.8614C50.3917 12.8739 50.4215 12.883 50.452 12.8884C50.9269 12.9663 51.3865 13.1205 51.8133 13.3452C52.2663 13.5731 52.6847 13.8656 53.0557 14.2137C53.5998 14.7314 54.043 15.3481 54.362 16.0318C54.5644 16.4464 54.7209 16.8825 54.8288 17.3319C54.8767 17.5369 54.93 17.7419 54.9779 17.9487C54.9903 18.0009 54.9867 18.0584 54.9956 18.1124C55.0116 18.2293 55.0329 18.3444 55.0506 18.4613C55.0645 18.5203 55.0734 18.5805 55.0773 18.6411C55.0844 19.105 55.0885 19.5702 55.0897 20.0365C55.0861 20.0959 55.0778 20.1548 55.0648 20.2128ZM53.1871 18.8155C53.2277 18.6992 53.2277 18.5722 53.1871 18.4559C53.1125 18.2473 53.1569 18.0153 53.0451 17.8157C53.0539 17.6358 52.9439 17.5028 52.935 17.3373C52.8182 17.0017 52.6746 16.6764 52.5055 16.3645C52.1882 15.7821 51.734 15.288 51.1833 14.9258C50.8217 14.6812 50.4136 14.5158 49.9853 14.4403C49.9626 14.4379 49.9404 14.4319 49.9196 14.4223C49.8062 14.368 49.6807 14.345 49.5557 14.3558C49.3144 14.3558 49.073 14.3558 48.8316 14.3558C48.6304 14.3322 48.4266 14.36 48.2388 14.4367C48.2237 14.4405 48.2078 14.4405 48.1927 14.4367C48.029 14.4455 47.8689 14.4884 47.7223 14.5626C47.2743 14.7349 46.8607 14.9877 46.5012 15.3089C46.0285 15.7301 45.6441 16.2431 45.3707 16.8176C45.2389 17.1104 45.124 17.4106 45.0264 17.7168C44.9772 17.8657 44.9404 18.0184 44.9163 18.1735C44.9038 18.2749 44.8843 18.3753 44.8577 18.4738C44.8134 18.5833 44.8134 18.7061 44.8577 18.8155C44.9611 18.8559 45.0727 18.8695 45.1825 18.8551H52.8836C52.9427 18.8583 53.0019 18.8583 53.061 18.8551C53.1042 18.846 53.1464 18.8327 53.1871 18.8155Z" fill="#DAAA02"/>
<path d="M88.4442 15.3951C88.2525 14.9132 88.0804 14.4151 87.9118 13.9062C88.0076 13.8576 88.0804 13.8109 88.1567 13.7821C88.4833 13.658 88.801 13.5141 89.1311 13.4008C89.5127 13.2714 89.8996 13.1689 90.2901 13.0682C90.5353 13.0332 90.7783 12.9833 91.0177 12.9189C91.3603 12.9189 91.6975 12.8398 92.0383 12.8236C92.379 12.8074 92.7216 12.8236 93.0641 12.8236C93.1188 12.8208 93.1736 12.8244 93.2274 12.8344C93.4396 12.8829 93.656 12.91 93.8734 12.9153C93.9273 12.9193 93.9807 12.9277 94.0332 12.9405C94.1237 12.9585 94.2107 12.9783 94.3047 13.0016C94.5071 13.0538 94.7112 13.1005 94.91 13.1635C95.4404 13.3323 95.9364 13.5967 96.3742 13.9439C96.9058 14.3719 97.3226 14.9285 97.5864 15.5624C97.7095 15.867 97.8069 16.1816 97.8775 16.5029C97.9609 16.8266 97.9361 17.161 98.0266 17.4811C98.0405 17.5509 98.0447 17.6223 98.039 17.6933V25.8017C98.039 25.8719 98.039 25.942 98.0284 26.0229C97.9833 26.0371 97.9369 26.0468 97.8899 26.0517H96.4204C96.3826 26.0492 96.3452 26.0432 96.3085 26.0337C96.2665 25.9558 96.2509 25.8661 96.2642 25.7783C96.2642 25.3288 96.2642 24.8792 96.2642 24.4296C96.2633 24.3592 96.2579 24.289 96.2482 24.2192C96.2462 24.2095 96.2419 24.2003 96.2357 24.1925C96.2295 24.1848 96.2215 24.1786 96.2125 24.1746C96.2035 24.1705 96.1937 24.1687 96.1838 24.1693C96.174 24.1699 96.1644 24.1728 96.1559 24.1779C96.1108 24.2078 96.0696 24.2435 96.0334 24.284C95.8591 24.4942 95.6705 24.6919 95.469 24.8756C95.1045 25.2056 94.6994 25.4867 94.2639 25.7118C93.905 25.896 93.5254 26.0355 93.1333 26.1272C92.9123 26.2024 92.6813 26.243 92.4483 26.2477C92.4171 26.2457 92.3859 26.2494 92.356 26.2585C92.1067 26.3218 91.8491 26.3443 91.5928 26.325H91.1952C91.1415 26.3305 91.0874 26.3305 91.0337 26.325C90.8296 26.2693 90.6148 26.2747 90.4125 26.2279C90.0636 26.1564 89.7207 26.0578 89.3867 25.933C89.0094 25.7891 88.6516 25.5976 88.3218 25.3629C87.7454 24.9598 87.2947 24.3983 87.0226 23.7445C86.8513 23.3313 86.7649 22.8871 86.7688 22.439C86.7688 22.2106 86.7688 21.9822 86.783 21.7538C86.8006 21.4948 86.8489 21.2388 86.9267 20.9914C87.0293 20.6289 87.1926 20.2871 87.4095 19.9807C87.7029 19.564 88.0759 19.2111 88.5063 18.9431C88.8361 18.738 89.1865 18.5692 89.5517 18.4396C89.7824 18.3569 90.0309 18.3209 90.2617 18.249C90.4924 18.1771 90.7835 18.1753 91.039 18.1033C91.0971 18.0886 91.1567 18.0813 91.2165 18.0817C91.9868 18.0817 92.7553 18.071 93.5238 18.0817C93.8167 18.0817 94.1077 18.1555 94.4112 18.186C94.6416 18.2182 94.8703 18.262 95.0963 18.3173C95.326 18.3542 95.5526 18.4083 95.7743 18.4792C95.888 18.4982 96.0001 18.5259 96.1098 18.5619C96.1209 18.5664 96.1328 18.5684 96.1448 18.5679C96.1568 18.5674 96.1685 18.5643 96.1792 18.5588C96.19 18.5534 96.1994 18.5458 96.207 18.5364C96.2146 18.527 96.2202 18.5161 96.2233 18.5043C96.24 18.4525 96.2495 18.3987 96.2517 18.3443C96.255 18.124 96.2396 17.9038 96.2056 17.6861C96.2056 17.5908 96.1914 17.4973 96.1772 17.4038C96.163 17.3103 96.1452 17.224 96.1257 17.1287C96.1257 17.0909 96.1027 17.0531 96.0956 17.0154C95.9815 16.4501 95.7062 15.9312 95.304 15.5228C94.9316 15.154 94.4758 14.8829 93.9764 14.7334C93.6092 14.6029 93.2225 14.5378 92.8334 14.5409C92.7401 14.5418 92.6471 14.531 92.5565 14.5086C92.427 14.4825 92.2938 14.4825 92.1643 14.5086C92.0655 14.5294 91.9652 14.5414 91.8643 14.5445C91.4598 14.5428 91.0567 14.5929 90.6645 14.6938C90.3948 14.7585 90.1214 14.8161 89.857 14.906C89.4449 15.0373 89.0417 15.1959 88.6501 15.3807C88.5851 15.4093 88.5124 15.4144 88.4442 15.3951ZM92.5831 19.4215H91.7596C91.705 19.4169 91.6501 19.4236 91.5981 19.4412C91.4742 19.4869 91.343 19.5089 91.2112 19.506C91.1723 19.5061 91.1336 19.5109 91.0958 19.5204C90.9183 19.5707 90.7568 19.6247 90.5865 19.6768C90.0231 19.8331 89.5203 20.16 89.1453 20.6137C88.8838 20.9279 88.7174 21.3119 88.6661 21.7196C88.6054 22.1018 88.6279 22.4927 88.7317 22.8651C88.8166 23.1507 88.9553 23.417 89.14 23.6492C89.5094 24.1015 90.0039 24.4315 90.5598 24.5969C90.7 24.6418 90.8474 24.6634 90.9858 24.7084C91.1193 24.7473 91.257 24.7696 91.3958 24.7749C91.52 24.7839 91.6425 24.8019 91.7667 24.8073C91.891 24.8127 91.9992 24.8073 92.1217 24.7983C92.1982 24.7873 92.2752 24.7807 92.3524 24.7785C92.6479 24.7822 92.9422 24.741 93.2256 24.6562C93.6717 24.5549 94.0994 24.3831 94.4929 24.1473C95.13 23.7939 95.6448 23.251 95.9678 22.5918C96.0957 22.3587 96.176 22.1018 96.2038 21.8365C96.2066 21.8132 96.212 21.7903 96.2198 21.7682C96.2684 21.61 96.29 21.4446 96.2837 21.2791V20.2487C96.2837 20.2019 96.2837 20.1534 96.2837 20.1066C96.2814 20.0673 96.2665 20.0298 96.2412 19.9999C96.2158 19.97 96.1815 19.9494 96.1435 19.9412C95.966 19.8926 95.7725 19.8333 95.5844 19.7847C95.4424 19.7487 95.2986 19.7164 95.1531 19.6948C94.9428 19.6391 94.7276 19.6048 94.5106 19.5923C94.495 19.5924 94.4796 19.588 94.4662 19.5797C94.3284 19.5256 94.1807 19.5023 94.0332 19.5114C93.925 19.5101 93.817 19.5004 93.7102 19.4826C93.5043 19.4381 93.2941 19.4175 93.0837 19.4215C92.9097 19.4215 92.7464 19.4215 92.5831 19.4215Z" fill="#DAAA02"/>
<path d="M62.8799 20.7433C62.7397 20.9231 62.5906 21.1155 62.4469 21.3097C62.209 21.6298 61.9747 21.9517 61.7369 22.2718L59.9993 24.6096C59.687 25.0303 59.3728 25.4475 59.0587 25.8683C59.0303 25.9043 58.9966 25.9385 58.9699 25.9762C58.9515 26.0019 58.9272 26.0225 58.899 26.0363C58.8708 26.0501 58.8397 26.0567 58.8084 26.0554H57.0123C56.9732 26.0554 56.936 26.0554 56.8952 26.0554C56.8614 25.9637 56.9289 25.9169 56.9661 25.8665C57.1632 25.604 57.3655 25.345 57.5625 25.0843C58.2902 24.1252 59.0173 23.1661 59.7438 22.2071L61.0891 20.4322C61.2968 20.1588 61.5009 19.8819 61.7067 19.6068L61.7493 19.551C61.7811 19.5156 61.7988 19.4694 61.7988 19.4215C61.7988 19.3737 61.7811 19.3275 61.7493 19.2921L61.4955 18.9558L60.2248 17.2636C59.9692 16.9273 59.7118 16.5929 59.458 16.2566C59.2042 15.9203 58.9256 15.5373 58.6576 15.1866C58.2866 14.6939 57.9121 14.203 57.5412 13.7102C57.4241 13.5538 57.3051 13.3991 57.1862 13.2409C57.1401 13.1797 57.101 13.1132 57.0442 13.0251C57.1064 13.0251 57.1419 13.0107 57.1756 13.0107C57.7755 13.0107 58.3736 13.0107 58.9735 13.0107C59.0347 13.0068 59.0957 13.0196 59.1504 13.0477C59.205 13.0759 59.2512 13.1184 59.2841 13.1707C59.4793 13.4441 59.6834 13.7102 59.884 13.9818L61.437 16.0696C61.8931 16.6846 62.3457 17.3032 62.8 17.92C62.8497 17.9865 62.8852 18.0764 63.0077 18.062C63.1468 17.9097 63.2749 17.7474 63.3911 17.5765C63.8549 16.9675 64.3152 16.3555 64.7719 15.7405C65.0718 15.3395 65.3682 14.9367 65.6593 14.5356C65.9042 14.2119 66.1527 13.8901 66.3976 13.5682C66.5112 13.4189 66.6266 13.2697 66.7366 13.1168C66.7569 13.0838 66.7855 13.0568 66.8196 13.0388C66.8536 13.0208 66.8918 13.0123 66.9301 13.0143H68.7972C68.8135 13.0177 68.8291 13.0238 68.8434 13.0323C68.8558 13.1114 68.7955 13.16 68.7564 13.2121C68.224 13.9152 67.6826 14.6148 67.1466 15.3161C66.6106 16.0174 66.1048 16.681 65.583 17.3643L64.2181 19.1536C64.1613 19.2273 64.1099 19.3047 64.0407 19.3928C64.0886 19.4665 64.1312 19.5402 64.1826 19.6068C64.6228 20.1858 65.0701 20.7613 65.5049 21.3385C65.7427 21.6496 65.9752 21.9643 66.2148 22.2754L67.2283 23.5953C67.443 23.8741 67.6525 24.1564 67.8654 24.4369L68.9463 25.8522C68.9818 25.9007 69.012 25.9529 69.0386 25.996C69.0155 26.0608 68.9729 26.0554 68.9357 26.0554C68.3145 26.0554 67.6933 26.0554 67.0685 26.0554C67.0222 26.0561 66.9765 26.0447 66.9358 26.0224C66.8951 26 66.8607 25.9674 66.836 25.9277C66.6461 25.6687 66.4491 25.417 66.2592 25.158C65.8705 24.6293 65.4854 24.097 65.0949 23.5684C64.7044 23.0397 64.3016 22.502 63.9058 21.9679L63.0663 20.8404C63.0494 20.8062 63.0223 20.7784 62.9887 20.761C62.9552 20.7435 62.9171 20.7373 62.8799 20.7433Z" fill="#DAAA02"/>
<path d="M78.5902 13.115C78.6302 13.6099 78.6302 14.1073 78.5902 14.6022C78.5483 14.6149 78.5056 14.6245 78.4624 14.6309C78.3932 14.6309 78.3222 14.6309 78.253 14.6309H74.8417C74.4868 14.6309 74.4868 14.6309 74.4868 14.9906C74.4868 18.5596 74.4868 22.1285 74.4868 25.6975C74.4868 25.8 74.4868 25.9007 74.4868 26.0104C74.4505 26.029 74.4116 26.0417 74.3714 26.0482H72.7687C72.7349 26.0449 72.7015 26.0377 72.6693 26.0266C72.6591 25.9821 72.6514 25.9371 72.6463 25.8917C72.6463 25.8054 72.6463 25.7119 72.6463 25.631V15.0859C72.6463 15.0068 72.6463 14.9277 72.6463 14.8485C72.6463 14.6687 72.6125 14.6417 72.4421 14.6345H72.2558C71.8742 14.6345 71.4944 14.6345 71.1128 14.6345C70.8945 14.6345 70.8714 14.6112 70.8696 14.39C70.8696 14.0051 70.8696 13.6185 70.8696 13.2319C70.8585 13.1587 70.8757 13.084 70.9176 13.0233C70.9958 12.9941 71.0801 12.9855 71.1625 12.9981H72.3286C72.6463 12.9981 72.6463 12.9981 72.6463 12.6654C72.6463 12.4442 72.6551 12.2231 72.6463 12.0037C72.6355 11.5624 72.6658 11.1211 72.7368 10.6855C72.7702 10.492 72.8141 10.3005 72.8681 10.1119C72.9403 9.84079 73.0415 9.57849 73.1698 9.32963C73.4814 8.69028 74.0037 8.1814 74.6465 7.89102C74.8588 7.77924 75.0869 7.70158 75.3227 7.66084C75.5836 7.53676 75.8747 7.5961 76.1427 7.51338C76.2045 7.50433 76.2672 7.50433 76.329 7.51338C76.5154 7.51338 76.7018 7.51338 76.8881 7.51338C77.0053 7.51338 77.1188 7.53676 77.2431 7.54755C77.3975 7.56193 77.5519 7.57632 77.7063 7.58711C77.7844 7.58228 77.8623 7.59906 77.9317 7.63566C77.958 7.65344 77.9889 7.66283 78.0205 7.66264C78.1816 7.68285 78.34 7.72146 78.4926 7.77773C78.5395 7.78314 78.5826 7.80639 78.6132 7.84277C78.6439 7.87915 78.6597 7.92596 78.6576 7.97374C78.6603 8.02105 78.6603 8.06849 78.6576 8.1158V9.19476C78.6576 9.27209 78.6576 9.34941 78.6452 9.43753C78.6034 9.44258 78.5611 9.44258 78.5192 9.43753C78.3054 9.36953 78.0863 9.32019 77.8643 9.29007C77.8266 9.28073 77.7898 9.2681 77.7542 9.25231C77.6876 9.23449 77.62 9.22008 77.5519 9.20915C77.3514 9.18397 77.1508 9.16599 76.9502 9.14082C76.8269 9.12283 76.7014 9.12648 76.5793 9.15161C76.4581 9.17762 76.3354 9.19564 76.2119 9.20555C76.0583 9.22547 75.9089 9.27104 75.77 9.34042C75.2198 9.56161 74.8967 9.99859 74.6962 10.5435C74.6092 10.779 74.5862 11.0326 74.5187 11.2754C74.5053 11.3452 74.4999 11.4164 74.5027 11.4876C74.5027 11.9443 74.5027 12.4011 74.5027 12.8578C74.5048 12.9222 74.5102 12.9864 74.5187 13.0503C74.5639 13.0656 74.6102 13.0776 74.6571 13.0862C74.7352 13.0862 74.8133 13.0862 74.8897 13.0862H78.2973C78.3959 13.0769 78.4953 13.0866 78.5902 13.115Z" fill="#DAAA02"/>
<path d="M100.264 13.0125C100.337 13.0125 100.414 13.0017 100.49 13.0017H101.75C101.84 13.0155 101.933 13.0011 102.014 12.9603C102.027 12.9211 102.036 12.8807 102.041 12.8398C102.041 12.7301 102.041 12.6186 102.041 12.5089V9.38714C102.041 9.29363 102.041 9.20731 102.041 9.09762C102.088 9.08316 102.136 9.07352 102.185 9.06885C102.698 9.06885 103.212 9.06885 103.725 9.06885C103.771 9.07279 103.817 9.08 103.862 9.09043C103.885 9.18441 103.893 9.28161 103.885 9.37815V12.687C103.874 12.7775 103.882 12.8695 103.908 12.9567C103.978 13.0001 104.062 13.0155 104.143 12.9999H107.692C107.777 12.9999 107.87 12.9999 107.934 12.9999C107.957 13.0299 107.975 13.0645 107.985 13.1016C107.995 13.1387 107.997 13.1775 107.992 13.2157C107.992 13.6089 107.992 14.0033 107.992 14.3989C107.995 14.4378 107.995 14.4769 107.992 14.5158C107.992 14.5338 107.988 14.5515 107.981 14.5679C107.974 14.5843 107.963 14.5989 107.95 14.6109C107.937 14.6229 107.921 14.632 107.904 14.6376C107.887 14.6432 107.87 14.6452 107.852 14.6435C107.774 14.6435 107.696 14.6435 107.618 14.6435H104.283C104.197 14.639 104.111 14.639 104.025 14.6435C103.938 14.6435 103.906 14.6902 103.899 14.7838C103.897 14.8311 103.897 14.8785 103.899 14.9258V22.3239C103.899 22.4426 103.899 22.5613 103.899 22.6836C103.899 22.8058 103.931 22.885 103.949 22.9839C103.949 23.0306 103.972 23.0756 103.983 23.1223C104.028 23.3821 104.134 23.6271 104.291 23.8372C104.449 24.0473 104.653 24.2165 104.888 24.3308C105.225 24.4921 105.594 24.5762 105.967 24.5771C106.278 24.5884 106.588 24.5643 106.894 24.5052C107.045 24.4726 107.195 24.4299 107.341 24.3775C107.529 24.311 107.714 24.2319 107.911 24.1545C107.923 24.1869 107.944 24.2121 107.944 24.2391C107.944 24.7354 107.944 25.2317 107.944 25.7352C107.734 25.8669 107.506 25.9685 107.268 26.0373C107.091 26.0949 106.913 26.1452 106.736 26.1974C106.697 26.2048 106.659 26.2096 106.62 26.2118C106.482 26.2333 106.345 26.2603 106.207 26.2747C105.813 26.3258 105.415 26.3209 105.023 26.2603C104.965 26.2443 104.905 26.2322 104.845 26.2244C104.505 26.1936 104.173 26.1042 103.862 25.96C103.244 25.7085 102.739 25.2355 102.442 24.6311C102.348 24.4335 102.269 24.2284 102.208 24.0179C102.137 23.8003 102.142 23.5683 102.062 23.3525C102.049 23.2991 102.044 23.2438 102.048 23.1889C102.048 23.054 102.048 22.9209 102.048 22.7861V15.0517C102.048 14.9654 102.048 14.8719 102.048 14.7909C102.048 14.7629 102.037 14.736 102.018 14.7152C102 14.6944 101.975 14.6811 101.947 14.6777C101.87 14.6656 101.792 14.659 101.715 14.6579C101.349 14.6579 100.983 14.6579 100.619 14.6579H100.525C100.241 14.6579 100.241 14.6579 100.24 14.3666V13.257C100.227 13.1747 100.235 13.0904 100.264 13.0125Z" fill="#DAAA02"/>
<path d="M83.6276 26.0409C83.0685 26.0571 82.5236 26.0409 81.9805 26.0409C81.9328 26.0367 81.8854 26.0295 81.8385 26.0194C81.8283 25.9803 81.82 25.9406 81.8137 25.9007C81.8137 25.8377 81.8137 25.7748 81.8137 25.7208C81.8137 21.5848 81.8137 17.4488 81.8137 13.3128C81.8032 13.2145 81.811 13.115 81.8368 13.0197C81.8704 13.0063 81.9056 12.9972 81.9415 12.9927H83.5282C83.5619 12.9966 83.5952 13.0039 83.6276 13.0143C83.6416 13.0565 83.6522 13.0998 83.6595 13.1437C83.6595 13.2229 83.6595 13.302 83.6595 13.3811V25.6705C83.6739 25.7949 83.663 25.9209 83.6276 26.0409Z" fill="#DAAA02"/>
<path d="M83.75 8.04932C83.75 8.14642 83.7642 8.22914 83.7642 8.30107C83.7642 8.81178 83.7642 9.32249 83.7642 9.8332C83.7642 10.1011 83.75 10.1137 83.4891 10.1155H81.8207C81.6894 10.1047 81.6574 10.0778 81.6574 9.9357C81.6574 9.33628 81.6574 8.73686 81.6574 8.13743C81.6596 8.11359 81.6644 8.09007 81.6716 8.0673C81.7409 7.99357 81.8314 8.01695 81.913 8.01695H83.4181C83.4802 8.01695 83.5423 8.01695 83.6044 8.01695C83.6666 8.01695 83.6825 8.03853 83.75 8.04932Z" fill="#DAAA02"/>
<path d="M0.00048726 3.71895C-0.00963972 4.35351 0.138235 4.98042 0.430451 5.54176C0.722667 6.10311 1.1498 6.58079 1.67239 6.93066L12.6196 14.2586C12.9114 14.4571 13.1502 14.7256 13.3147 15.0403C13.4792 15.355 13.5643 15.7061 13.5624 16.0622C13.5604 16.4183 13.4716 16.7684 13.3037 17.0812C13.1357 17.3941 12.894 17.66 12.6001 17.8552L1.87117 24.8684C1.34354 25.2131 0.91039 25.6872 0.611905 26.2468C0.313421 26.8064 0.159276 27.4333 0.163773 28.0693V28.2492C0.19217 31.594 4.18023 33.252 6.51947 30.8926L19.7083 17.5854C19.9063 17.3859 20.0634 17.1487 20.1706 16.8875C20.2778 16.6262 20.3329 16.3461 20.3329 16.0632C20.3329 15.7803 20.2778 15.5001 20.1706 15.2389C20.0634 14.9777 19.9063 14.7405 19.7083 14.5409L6.35086 1.10426C4.02227 -1.24068 0.0555073 0.392148 0.00048726 3.71895Z" fill="#DAAA02"/>
<path d="M2.86326 11.3203H2.14445C1.41713 11.3203 0.827522 11.9177 0.827522 12.6546V19.3532C0.827522 20.0901 1.41713 20.6875 2.14445 20.6875H2.86326C3.59058 20.6875 4.18019 20.0901 4.18019 19.3532V12.6546C4.18019 11.9177 3.59058 11.3203 2.86326 11.3203Z" fill="#DAAA02"/>
</svg>
