<svg width="16" height="16" viewBox="0 0 16 16" fill="none" xmlns="http://www.w3.org/2000/svg">
<path d="M8.04911 9.59902C8.38511 9.59902 8.55311 9.35902 8.60311 8.97202C8.64311 8.43802 8.80111 8.15702 9.45011 7.71202C10.1231 7.23702 10.4991 6.62202 10.4991 5.72602C10.4991 4.40102 9.57911 3.49902 8.23711 3.49902C7.21711 3.49902 6.44511 3.99102 6.13711 4.78902C6.04377 5.00697 5.99677 5.24194 5.99911 5.47902C5.99911 5.87202 6.20211 6.11902 6.54411 6.11902C6.81611 6.11902 6.99911 5.97202 7.10811 5.60902C7.26611 5.01702 7.63311 4.69402 8.18211 4.69402C8.79211 4.69402 9.21211 5.14002 9.21211 5.77802C9.21211 6.34102 9.00411 6.66302 8.39011 7.10302C7.77111 7.53602 7.46411 8.01702 7.46411 8.74302V8.85402C7.46411 9.28202 7.67211 9.59902 8.04911 9.59902Z" fill="black"/>
<path d="M10.2722 2.5122L9.3512 1.5682L10.0662 0.870195L10.6882 1.5072L11.5782 1.4962C11.9634 1.49164 12.3457 1.56415 12.7025 1.70948C13.0593 1.85481 13.3835 2.07002 13.6559 2.34245C13.9284 2.61489 14.1436 2.93904 14.2889 3.29586C14.4342 3.65267 14.5068 4.03495 14.5022 4.4202L14.4922 5.31019L15.1282 5.9322C15.4037 6.20137 15.6225 6.52288 15.772 6.87784C15.9214 7.23281 15.9984 7.61406 15.9984 7.9992C15.9984 8.38433 15.9214 8.76558 15.772 9.12055C15.6225 9.47551 15.4037 9.79703 15.1282 10.0662L14.4912 10.6882L14.5022 11.5782C14.5068 11.9634 14.4342 12.3457 14.2889 12.7025C14.1436 13.0593 13.9284 13.3835 13.6559 13.6559C13.3835 13.9284 13.0593 14.1436 12.7025 14.2889C12.3457 14.4342 11.9634 14.5068 11.5782 14.5022L10.6882 14.4922L10.0662 15.1282C9.79703 15.4037 9.47551 15.6225 9.12055 15.772C8.76558 15.9214 8.38433 15.9984 7.9992 15.9984C7.61406 15.9984 7.23281 15.9214 6.87784 15.772C6.52288 15.6225 6.20137 15.4037 5.9322 15.1282L5.31019 14.4912L4.4202 14.5022C4.03495 14.5068 3.65267 14.4342 3.29586 14.2889C2.93904 14.1436 2.61489 13.9284 2.34245 13.6559C2.07002 13.3835 1.85481 13.0593 1.70948 12.7025C1.56415 12.3457 1.49164 11.9634 1.4962 11.5782L1.5062 10.6882L0.870195 10.0662C0.594736 9.79703 0.375856 9.47551 0.226418 9.12055C0.0769807 8.76558 0 8.38433 0 7.9992C0 7.61406 0.0769807 7.23281 0.226418 6.87784C0.375856 6.52288 0.594736 6.20137 0.870195 5.9322L1.5072 5.31019L1.4962 4.4202C1.49164 4.03495 1.56415 3.65267 1.70948 3.29586C1.85481 2.93904 2.07002 2.61489 2.34245 2.34245C2.61489 2.07002 2.93904 1.85481 3.29586 1.70948C3.65267 1.56415 4.03495 1.49164 4.4202 1.4962L5.31019 1.5062L5.9322 0.870195C6.20137 0.594736 6.52288 0.375856 6.87784 0.226418C7.23281 0.0769807 7.61406 0 7.9992 0C8.38433 0 8.76558 0.0769807 9.12055 0.226418C9.47551 0.375856 9.79703 0.594736 10.0662 0.870195L9.3512 1.5682C9.17516 1.38798 8.96487 1.24478 8.73269 1.14701C8.5005 1.04924 8.25112 0.998875 7.9992 0.998875C7.74727 0.998875 7.49789 1.04924 7.26571 1.14701C7.03352 1.24478 6.82323 1.38798 6.64719 1.5682L5.7272 2.5122L4.4072 2.4962C4.15537 2.49338 3.90553 2.54092 3.67234 2.63602C3.43915 2.73113 3.22731 2.87187 3.04928 3.04999C2.87125 3.22812 2.73062 3.44002 2.63564 3.67326C2.54066 3.9065 2.49325 4.15637 2.4962 4.4082L2.5122 5.7262L1.5682 6.64719C1.38798 6.82323 1.24478 7.03352 1.14701 7.26571C1.04924 7.49789 0.998875 7.74727 0.998875 7.9992C0.998875 8.25112 1.04924 8.5005 1.14701 8.73269C1.24478 8.96487 1.38798 9.17516 1.5682 9.3512L2.5122 10.2712L2.4962 11.5912C2.49338 11.843 2.54092 12.0929 2.63602 12.3261C2.73113 12.5592 2.87187 12.7711 3.04999 12.9491C3.22812 13.1271 3.44002 13.2678 3.67326 13.3628C3.9065 13.4577 4.15637 13.5051 4.4082 13.5022L5.7262 13.4862L6.64719 14.4302C6.82323 14.6104 7.03352 14.7536 7.26571 14.8514C7.49789 14.9491 7.74727 14.9995 7.9992 14.9995C8.25112 14.9995 8.5005 14.9491 8.73269 14.8514C8.96487 14.7536 9.17516 14.6104 9.3512 14.4302L10.2712 13.4862L11.5912 13.5022C11.843 13.505 12.0929 13.4575 12.3261 13.3624C12.5592 13.2673 12.7711 13.1265 12.9491 12.9484C13.1271 12.7703 13.2678 12.5584 13.3628 12.3251C13.4577 12.0919 13.5051 11.842 13.5022 11.5902L13.4862 10.2722L14.4302 9.3512C14.6104 9.17516 14.7536 8.96487 14.8514 8.73269C14.9491 8.5005 14.9995 8.25112 14.9995 7.9992C14.9995 7.74727 14.9491 7.49789 14.8514 7.26571C14.7536 7.03352 14.6104 6.82323 14.4302 6.64719L13.4862 5.7272L13.5022 4.4072C13.505 4.15537 13.4575 3.90553 13.3624 3.67234C13.2673 3.43915 13.1265 3.22731 12.9484 3.04928C12.7703 2.87125 12.5584 2.73062 12.3251 2.63564C12.0919 2.54066 11.842 2.49325 11.5902 2.4962L10.2722 2.5122Z" fill="black"/>
<path d="M7 10.999C7 10.7338 7.10536 10.4795 7.29289 10.2919C7.48043 10.1044 7.73478 9.99902 8 9.99902C8.26522 9.99902 8.51957 10.1044 8.70711 10.2919C8.89464 10.4795 9 10.7338 9 10.999C9 11.2642 8.89464 11.5186 8.70711 11.7061C8.51957 11.8937 8.26522 11.999 8 11.999C7.73478 11.999 7.48043 11.8937 7.29289 11.7061C7.10536 11.5186 7 11.2642 7 10.999Z" fill="black"/>
</svg>
