<svg width="18" height="18" viewBox="0 0 18 18" fill="none" xmlns="http://www.w3.org/2000/svg">
<path d="M9 18C13.9706 18 18 13.9706 18 9C18 4.02944 13.9706 0 9 0C4.02944 0 0 4.02944 0 9C0 13.9706 4.02944 18 9 18Z" fill="#233447"/>
<path d="M13.9414 4.20898L9.74268 7.28914L10.5233 5.47395L13.9414 4.20898Z" fill="#E17726" stroke="#E17726" stroke-width="0.25" stroke-linecap="round" stroke-linejoin="round"/>
<path d="M4.25687 4.20898L8.41829 7.31798L7.675 5.47395L4.25687 4.20898ZM12.4304 11.3512L11.3131 13.0431L13.7054 13.6961L14.3904 11.388L12.4304 11.3512ZM3.8125 11.388L4.49344 13.6961L6.88154 13.0431L5.76869 11.3509L3.8125 11.388Z" fill="#E27625" stroke="#E27625" stroke-width="0.25" stroke-linecap="round" stroke-linejoin="round"/>
<path d="M6.75237 8.49243L6.08838 9.48612L8.45569 9.59285L8.37673 7.06678L6.75237 8.49243ZM11.4454 8.49243L9.79678 7.03857L9.74278 9.59322L12.1101 9.48639L11.4454 8.49243ZM6.88122 13.0429L8.31407 12.357L7.0807 11.4043L6.88122 13.0429ZM9.88408 12.357L11.3127 13.0429L11.1177 11.4043L9.88408 12.357Z" fill="#E27625" stroke="#E27625" stroke-width="0.25" stroke-linecap="round" stroke-linejoin="round"/>
<path d="M11.3129 13.0428L9.88393 12.3569L10.0006 13.2771L9.98779 13.6669L11.3129 13.0428ZM6.88135 13.0428L8.21031 13.6672L8.20199 13.2771L8.3142 12.3569L6.88135 13.0428Z" fill="#D5BFB2" stroke="#D5BFB2" stroke-width="0.25" stroke-linecap="round" stroke-linejoin="round"/>
<path d="M8.23502 10.7967L7.04736 10.4518L7.88624 10.0698L8.23502 10.7967ZM9.96294 10.7967L10.3114 10.0698L11.1547 10.4518L9.96294 10.7967Z" fill="#233447" stroke="#233447" stroke-width="0.25" stroke-linecap="round" stroke-linejoin="round"/>
<path d="M6.88139 13.0431L7.0892 11.3513L5.76855 11.388L6.88139 13.0431ZM11.1093 11.3513L11.3129 13.0431L12.4299 11.388L11.1093 11.3513ZM12.1106 9.48633L9.74297 9.59343L9.9632 10.7966L10.3117 10.0698L11.155 10.4518L12.1106 9.48633ZM7.04763 10.4518L7.8865 10.0698L8.23528 10.7966L8.45556 9.59343L6.08824 9.4866L7.04763 10.4518Z" fill="#CC6228" stroke="#CC6228" stroke-width="0.25" stroke-linecap="round" stroke-linejoin="round"/>
<path d="M6.08838 9.48633L7.08102 11.4045L7.04777 10.4518L6.08838 9.48633ZM11.1552 10.4518L11.1178 11.4045L12.1104 9.4866L11.1552 10.4518ZM8.45569 9.59343L8.23542 10.7966L8.51356 12.2178L8.57621 10.3447L8.45569 9.59343ZM9.74305 9.59343L9.62668 10.3408L9.68491 12.2178L9.96301 10.7966L9.74305 9.59343Z" fill="#E27525" stroke="#E27525" stroke-width="0.25" stroke-linecap="round" stroke-linejoin="round"/>
<path d="M9.96294 10.7965L9.68484 12.2177L9.88401 12.3571L11.1174 11.4044L11.1547 10.4517L9.96294 10.7965ZM7.04736 10.4517L7.08062 11.4044L8.31398 12.3571L8.51347 12.2177L8.23534 10.7965L7.04736 10.4517Z" fill="#F5841F" stroke="#F5841F" stroke-width="0.25" stroke-linecap="round" stroke-linejoin="round"/>
<path d="M9.98779 13.6674L10.0006 13.2771L9.89248 13.1869H8.30589L8.20199 13.2771L8.21031 13.667L6.88135 13.043L7.34649 13.4208L8.28959 14.0657H9.90499L10.8519 13.4208L11.3129 13.043L9.98779 13.6674Z" fill="#C0AC9D" stroke="#C0AC9D" stroke-width="0.25" stroke-linecap="round" stroke-linejoin="round"/>
<path d="M9.88422 12.3573L9.68469 12.2178H8.51401L8.31452 12.3573L8.20264 13.2773L8.30622 13.187H9.89286L10.0009 13.2773L9.88422 12.3573Z" fill="#161616" stroke="#161616" stroke-width="0.25" stroke-linecap="round" stroke-linejoin="round"/>
<path d="M14.1205 7.49041L14.4731 5.79058L13.9417 4.20898L9.88427 7.18645L11.446 8.49229L13.6512 9.12937L14.1371 8.56646L13.9252 8.41433L14.2618 8.11069L14.0041 7.91354L14.3404 7.65871L14.1205 7.49041ZM3.7251 5.79027L4.08219 7.49041L3.85393 7.65903L4.1944 7.91354L3.93705 8.11069L4.27337 8.41464L4.06141 8.56678L4.54734 9.1291L6.75289 8.49262L8.31426 7.18676L4.25675 4.20898L3.7251 5.79027Z" fill="#763E1A" stroke="#763E1A" stroke-width="0.25" stroke-linecap="round" stroke-linejoin="round"/>
<path d="M13.6511 9.12926L11.4459 8.49278L12.1102 9.48674L11.1176 11.4046L12.4303 11.3882H14.3903L13.6511 9.12926ZM6.75253 8.49278L4.5473 9.12926L3.81201 11.3882H5.76852L7.08086 11.4046L6.08821 9.48674L6.75253 8.49278ZM9.74297 9.59357L9.88427 7.18662L10.5236 5.47412H7.67484L8.31423 7.18662L8.45553 9.59357L8.50955 10.3492L8.51371 12.218H9.68474L9.68888 10.3492L9.74297 9.59357Z" fill="#F5841F" stroke="#F5841F" stroke-width="0.25" stroke-linecap="round" stroke-linejoin="round"/>
</svg>
